<?xml version="1.0" encoding="UTF-8" standalone="no"?>
<!DOCTYPE svg PUBLIC "-//W3C//DTD SVG 1.1//EN"
 "http://www.w3.org/Graphics/SVG/1.1/DTD/svg11.dtd">
<!-- Generated by graphviz version 2.43.0 (0)
 -->
<!-- Title: APrimePhysics Pages: 1 -->
<svg width="526pt" height="374pt"
 viewBox="0.00 0.00 525.50 374.00" xmlns="http://www.w3.org/2000/svg" xmlns:xlink="http://www.w3.org/1999/xlink">
<g id="graph0" class="graph" transform="scale(1 1) rotate(0) translate(4 370)">
<title>APrimePhysics</title>
<!-- Node1 -->
<g id="node1" class="node">
<title>Node1</title>
<g id="a_node1"><a xlink:title="basic physics constructor which simply creates the A&#39; and the dark brem">
<polygon fill="#bfbfbf" stroke="black" points="266,-0.5 266,-19.5 355,-19.5 355,-0.5 266,-0.5"/>
<text text-anchor="middle" x="310.5" y="-7.5" font-family="Helvetica,sans-Serif" font-size="10.00">APrimePhysics</text>
</a>
</g>
</g>
<!-- Node2 -->
<g id="node2" class="node">
<title>Node2</title>
<g id="a_node2"><a xlink:title=" ">
<polygon fill="none" stroke="#bfbfbf" points="49.5,-67.5 49.5,-86.5 179.5,-86.5 179.5,-67.5 49.5,-67.5"/>
<text text-anchor="middle" x="114.5" y="-74.5" font-family="Helvetica,sans-Serif" font-size="10.00">G4VPhysicsConstructor</text>
</a>
</g>
</g>
<!-- Node2&#45;&gt;Node1 -->
<g id="edge1" class="edge">
<title>Node2&#45;&gt;Node1</title>
<path fill="none" stroke="midnightblue" d="M150.38,-64.1C189.24,-51.21 250.27,-30.97 284.68,-19.56"/>
<polygon fill="midnightblue" stroke="midnightblue" points="148.92,-60.9 140.53,-67.37 151.12,-67.54 148.92,-60.9"/>
</g>
<!-- Node3 -->
<g id="node3" class="node">
<title>Node3</title>
<g id="a_node3"><a xlink:title="STL class.">
<polygon fill="none" stroke="#bfbfbf" points="419,-201.5 419,-220.5 484,-220.5 484,-201.5 419,-201.5"/>
<text text-anchor="middle" x="451.5" y="-208.5" font-family="Helvetica,sans-Serif" font-size="10.00">std::string</text>
</a>
</g>
</g>
<!-- Node3&#45;&gt;Node1 -->
<g id="edge2" class="edge">
<title>Node3&#45;&gt;Node1</title>
<path fill="none" stroke="#9a32cd" stroke-dasharray="5,2" d="M453.96,-191.32C456.81,-162.14 458.2,-105.14 432.5,-67 414.98,-41 382.2,-26.87 355.02,-19.3"/>
<polygon fill="#9a32cd" stroke="#9a32cd" points="450.48,-191.03 452.82,-201.36 457.43,-191.82 450.48,-191.03"/>
<text text-anchor="middle" x="484" y="-108" font-family="Helvetica,sans-Serif" font-size="10.00"> library_path_</text>
</g>
<!-- Node6 -->
<g id="node6" class="node">
<title>Node6</title>
<g id="a_node6"><a xlink:href="classG4DarkBremsstrahlung.html" target="_top" xlink:title=" ">
<polygon fill="none" stroke="black" points="245,-134.5 245,-153.5 376,-153.5 376,-134.5 245,-134.5"/>
<text text-anchor="middle" x="310.5" y="-141.5" font-family="Helvetica,sans-Serif" font-size="10.00">G4DarkBremsstrahlung</text>
</a>
</g>
</g>
<!-- Node3&#45;&gt;Node6 -->
<g id="edge11" class="edge">
<title>Node3&#45;&gt;Node6</title>
<path fill="none" stroke="#9a32cd" stroke-dasharray="5,2" d="M408.74,-202.38C391.25,-198.19 371.24,-191.97 354.5,-183 340.27,-175.37 326.64,-162.44 318.42,-153.81"/>
<polygon fill="#9a32cd" stroke="#9a32cd" points="408.17,-205.84 418.69,-204.62 409.7,-199.01 408.17,-205.84"/>
<text text-anchor="middle" x="396" y="-175" font-family="Helvetica,sans-Serif" font-size="10.00"> PROCESS_NAME</text>
</g>
<!-- Node4 -->
<g id="node4" class="node">
<title>Node4</title>
<g id="a_node4"><a xlink:title="STL class.">
<polygon fill="none" stroke="#bfbfbf" points="399.5,-268.5 399.5,-298.5 503.5,-298.5 503.5,-268.5 399.5,-268.5"/>
<text text-anchor="start" x="407.5" y="-286.5" font-family="Helvetica,sans-Serif" font-size="10.00">std::basic_string&lt;</text>
<text text-anchor="middle" x="451.5" y="-275.5" font-family="Helvetica,sans-Serif" font-size="10.00"> char &gt;</text>
</a>
</g>
</g>
<!-- Node4&#45;&gt;Node3 -->
<g id="edge3" class="edge">
<title>Node4&#45;&gt;Node3</title>
<path fill="none" stroke="midnightblue" d="M451.5,-258.09C451.5,-245.21 451.5,-230.2 451.5,-220.89"/>
<polygon fill="midnightblue" stroke="midnightblue" points="448,-258.23 451.5,-268.23 455,-258.23 448,-258.23"/>
</g>
<!-- Node5 -->
<g id="node5" class="node">
<title>Node5</title>
<g id="a_node5"><a xlink:title=" ">
<polygon fill="none" stroke="#bfbfbf" points="197.5,-67.5 197.5,-86.5 423.5,-86.5 423.5,-67.5 197.5,-67.5"/>
<text text-anchor="middle" x="310.5" y="-74.5" font-family="Helvetica,sans-Serif" font-size="10.00">std::unique_ptr&lt; G4DarkBremsstrahlung &gt;</text>
</a>
</g>
</g>
<!-- Node5&#45;&gt;Node1 -->
<g id="edge4" class="edge">
<title>Node5&#45;&gt;Node1</title>
<path fill="none" stroke="#9a32cd" stroke-dasharray="5,2" d="M310.5,-57.04C310.5,-44.67 310.5,-29.12 310.5,-19.63"/>
<polygon fill="#9a32cd" stroke="#9a32cd" points="307,-57.23 310.5,-67.23 314,-57.23 307,-57.23"/>
<text text-anchor="middle" x="344" y="-41" font-family="Helvetica,sans-Serif" font-size="10.00"> the_process_</text>
</g>
<!-- Node6&#45;&gt;Node5 -->
<g id="edge5" class="edge">
<title>Node6&#45;&gt;Node5</title>
<path fill="none" stroke="#9a32cd" stroke-dasharray="5,2" d="M310.5,-124.04C310.5,-111.67 310.5,-96.12 310.5,-86.63"/>
<polygon fill="#9a32cd" stroke="#9a32cd" points="307,-124.23 310.5,-134.23 314,-124.23 307,-124.23"/>
<text text-anchor="middle" x="319" y="-108" font-family="Helvetica,sans-Serif" font-size="10.00"> ptr</text>
</g>
<!-- Node7 -->
<g id="node7" class="node">
<title>Node7</title>
<g id="a_node7"><a xlink:title=" ">
<polygon fill="none" stroke="#bfbfbf" points="0,-201.5 0,-220.5 115,-220.5 115,-201.5 0,-201.5"/>
<text text-anchor="middle" x="57.5" y="-208.5" font-family="Helvetica,sans-Serif" font-size="10.00">G4VDiscreteProcess</text>
</a>
</g>
</g>
<!-- Node7&#45;&gt;Node6 -->
<g id="edge6" class="edge">
<title>Node7&#45;&gt;Node6</title>
<path fill="none" stroke="midnightblue" d="M94.52,-198.45C120.43,-190.54 155.92,-180.07 187.5,-172 214.19,-165.18 244.4,-158.53 268.21,-153.54"/>
<polygon fill="midnightblue" stroke="midnightblue" points="93.27,-195.17 84.74,-201.45 95.33,-201.86 93.27,-195.17"/>
</g>
<!-- Node8 -->
<g id="node8" class="node">
<title>Node8</title>
<g id="a_node8"><a xlink:href="classg4db_1_1ElementXsecCache.html" target="_top" xlink:title="The cache of already computed cross sections.">
<polygon fill="none" stroke="black" points="133.5,-201.5 133.5,-220.5 273.5,-220.5 273.5,-201.5 133.5,-201.5"/>
<text text-anchor="middle" x="203.5" y="-208.5" font-family="Helvetica,sans-Serif" font-size="10.00">g4db::ElementXsecCache</text>
</a>
</g>
</g>
<!-- Node8&#45;&gt;Node6 -->
<g id="edge7" class="edge">
<title>Node8&#45;&gt;Node6</title>
<path fill="none" stroke="#9a32cd" stroke-dasharray="5,2" d="M193.26,-191.98C190.81,-185.13 190.02,-177.64 194.5,-172 201.31,-163.42 222.37,-157.31 244.71,-153.11"/>
<polygon fill="#9a32cd" stroke="#9a32cd" points="190.2,-193.69 197.62,-201.25 196.53,-190.71 190.2,-193.69"/>
<text text-anchor="middle" x="250" y="-175" font-family="Helvetica,sans-Serif" font-size="10.00"> element_xsec_cache_</text>
</g>
<!-- Node9 -->
<g id="node9" class="node">
<title>Node9</title>
<g id="a_node9"><a xlink:title=" ">
<polygon fill="none" stroke="#bfbfbf" points="77,-274 77,-293 238,-293 238,-274 77,-274"/>
<text text-anchor="middle" x="157.5" y="-281" font-family="Helvetica,sans-Serif" font-size="10.00">std::map&lt; key_t, G4double &gt;</text>
</a>
</g>
</g>
<!-- Node9&#45;&gt;Node8 -->
<g id="edge8" class="edge">
<title>Node9&#45;&gt;Node8</title>
<path fill="none" stroke="#9a32cd" stroke-dasharray="5,2" d="M161.07,-263.86C163.21,-255.75 166.52,-246.43 171.5,-239 176.36,-231.76 183.69,-225.37 190.11,-220.63"/>
<polygon fill="#9a32cd" stroke="#9a32cd" points="157.59,-263.35 158.82,-273.87 164.42,-264.88 157.59,-263.35"/>
<text text-anchor="middle" x="200.5" y="-242" font-family="Helvetica,sans-Serif" font-size="10.00"> the_cache_</text>
</g>
<!-- Node10 -->
<g id="node10" class="node">
<title>Node10</title>
<g id="a_node10"><a xlink:title=" ">
<polygon fill="none" stroke="#bfbfbf" points="256,-268.5 256,-298.5 381,-298.5 381,-268.5 256,-268.5"/>
<text text-anchor="start" x="264" y="-286.5" font-family="Helvetica,sans-Serif" font-size="10.00">std::shared_ptr&lt; g4db</text>
<text text-anchor="middle" x="318.5" y="-275.5" font-family="Helvetica,sans-Serif" font-size="10.00">::PrototypeModel &gt;</text>
</a>
</g>
</g>
<!-- Node10&#45;&gt;Node6 -->
<g id="edge12" class="edge">
<title>Node10&#45;&gt;Node6</title>
<path fill="none" stroke="#9a32cd" stroke-dasharray="5,2" d="M317.09,-258.25C315.27,-227.03 312.21,-174.37 311.01,-153.7"/>
<polygon fill="#9a32cd" stroke="#9a32cd" points="313.6,-258.52 317.67,-268.3 320.59,-258.12 313.6,-258.52"/>
<text text-anchor="middle" x="335.5" y="-208.5" font-family="Helvetica,sans-Serif" font-size="10.00"> model_</text>
</g>
<!-- Node10&#45;&gt;Node8 -->
<g id="edge9" class="edge">
<title>Node10&#45;&gt;Node8</title>
<path fill="none" stroke="#9a32cd" stroke-dasharray="5,2" d="M286.85,-263.1C264.1,-249.15 234.53,-231.02 217.42,-220.53"/>
<polygon fill="#9a32cd" stroke="#9a32cd" points="285.15,-266.16 295.5,-268.4 288.81,-260.19 285.15,-266.16"/>
<text text-anchor="middle" x="284.5" y="-242" font-family="Helvetica,sans-Serif" font-size="10.00"> model_</text>
</g>
<!-- Node11 -->
<g id="node11" class="node">
<title>Node11</title>
<g id="a_node11"><a xlink:href="classg4db_1_1PrototypeModel.html" target="_top" xlink:title="Abstract class representing a model for dark brem.">
<polygon fill="none" stroke="black" points="256.5,-346.5 256.5,-365.5 380.5,-365.5 380.5,-346.5 256.5,-346.5"/>
<text text-anchor="middle" x="318.5" y="-353.5" font-family="Helvetica,sans-Serif" font-size="10.00">g4db::PrototypeModel</text>
</a>
</g>
</g>
<!-- Node11&#45;&gt;Node10 -->
<g id="edge10" class="edge">
<title>Node11&#45;&gt;Node10</title>
<path fill="none" stroke="#9a32cd" stroke-dasharray="5,2" d="M318.5,-336.24C318.5,-324.41 318.5,-309.38 318.5,-298.58"/>
<polygon fill="#9a32cd" stroke="#9a32cd" points="315,-336.36 318.5,-346.36 322,-336.36 315,-336.36"/>
<text text-anchor="middle" x="327" y="-320" font-family="Helvetica,sans-Serif" font-size="10.00"> ptr</text>
</g>
</g>
</svg>
