<?xml version="1.0" encoding="UTF-8" standalone="no"?>
<!DOCTYPE svg PUBLIC "-//W3C//DTD SVG 1.1//EN"
 "http://www.w3.org/Graphics/SVG/1.1/DTD/svg11.dtd">
<!-- Generated by graphviz version 2.43.0 (0)
 -->
<!-- Title: APrimePhysics Pages: 1 -->
<svg width="466pt" height="163pt"
 viewBox="0.00 0.00 466.00 163.00" xmlns="http://www.w3.org/2000/svg" xmlns:xlink="http://www.w3.org/1999/xlink">
<g id="graph0" class="graph" transform="scale(1 1) rotate(0) translate(4 159)">
<title>APrimePhysics</title>
<!-- Node1 -->
<g id="node1" class="node">
<title>Node1</title>
<g id="a_node1"><a xlink:title="basic physics constructor which simply creates the A&#39; and the dark brem">
<polygon fill="#bfbfbf" stroke="black" points="136.5,-0.5 136.5,-19.5 225.5,-19.5 225.5,-0.5 136.5,-0.5"/>
<text text-anchor="middle" x="181" y="-7.5" font-family="Helvetica,sans-Serif" font-size="10.00">APrimePhysics</text>
</a>
</g>
</g>
<!-- Node2 -->
<g id="node2" class="node">
<title>Node2</title>
<g id="a_node2"><a xlink:title=" ">
<polygon fill="none" stroke="#bfbfbf" points="0,-67.5 0,-86.5 130,-86.5 130,-67.5 0,-67.5"/>
<text text-anchor="middle" x="65" y="-74.5" font-family="Helvetica,sans-Serif" font-size="10.00">G4VPhysicsConstructor</text>
</a>
</g>
</g>
<!-- Node2&#45;&gt;Node1 -->
<g id="edge1" class="edge">
<title>Node2&#45;&gt;Node1</title>
<path fill="none" stroke="midnightblue" d="M89.47,-62.29C112.46,-49.4 146.16,-30.52 165.6,-19.63"/>
<polygon fill="midnightblue" stroke="midnightblue" points="87.66,-59.29 80.64,-67.23 91.08,-65.4 87.66,-59.29"/>
</g>
<!-- Node3 -->
<g id="node3" class="node">
<title>Node3</title>
<g id="a_node3"><a xlink:title=" ">
<polygon fill="none" stroke="#bfbfbf" points="148.5,-67.5 148.5,-86.5 213.5,-86.5 213.5,-67.5 148.5,-67.5"/>
<text text-anchor="middle" x="181" y="-74.5" font-family="Helvetica,sans-Serif" font-size="10.00">std::string</text>
</a>
</g>
</g>
<!-- Node3&#45;&gt;Node1 -->
<g id="edge2" class="edge">
<title>Node3&#45;&gt;Node1</title>
<path fill="none" stroke="#9a32cd" stroke-dasharray="5,2" d="M181,-57.04C181,-44.67 181,-29.12 181,-19.63"/>
<polygon fill="#9a32cd" stroke="#9a32cd" points="177.5,-57.23 181,-67.23 184.5,-57.23 177.5,-57.23"/>
<text text-anchor="middle" x="214.5" y="-41" font-family="Helvetica,sans-Serif" font-size="10.00"> library_path_</text>
</g>
<!-- Node4 -->
<g id="node4" class="node">
<title>Node4</title>
<g id="a_node4"><a xlink:title=" ">
<polygon fill="none" stroke="#bfbfbf" points="129,-124.5 129,-154.5 233,-154.5 233,-124.5 129,-124.5"/>
<text text-anchor="start" x="137" y="-142.5" font-family="Helvetica,sans-Serif" font-size="10.00">std::basic_string&lt;</text>
<text text-anchor="middle" x="181" y="-131.5" font-family="Helvetica,sans-Serif" font-size="10.00"> Char &gt;</text>
</a>
</g>
</g>
<!-- Node4&#45;&gt;Node3 -->
<g id="edge3" class="edge">
<title>Node4&#45;&gt;Node3</title>
<path fill="none" stroke="midnightblue" d="M181,-114.35C181,-104.51 181,-93.78 181,-86.54"/>
<polygon fill="midnightblue" stroke="midnightblue" points="177.5,-114.47 181,-124.47 184.5,-114.47 177.5,-114.47"/>
</g>
<!-- Node5 -->
<g id="node5" class="node">
<title>Node5</title>
<g id="a_node5"><a xlink:title=" ">
<polygon fill="none" stroke="#bfbfbf" points="232,-67.5 232,-86.5 458,-86.5 458,-67.5 232,-67.5"/>
<text text-anchor="middle" x="345" y="-74.5" font-family="Helvetica,sans-Serif" font-size="10.00">std::unique_ptr&lt; G4DarkBremsstrahlung &gt;</text>
</a>
</g>
</g>
<!-- Node5&#45;&gt;Node1 -->
<g id="edge4" class="edge">
<title>Node5&#45;&gt;Node1</title>
<path fill="none" stroke="#9a32cd" stroke-dasharray="5,2" d="M314.89,-63.48C296.72,-55.98 273.08,-46.31 252,-38 236.05,-31.71 217.99,-24.85 204.08,-19.61"/>
<polygon fill="#9a32cd" stroke="#9a32cd" points="313.8,-66.81 324.37,-67.4 316.47,-60.35 313.8,-66.81"/>
<text text-anchor="middle" x="310.5" y="-41" font-family="Helvetica,sans-Serif" font-size="10.00"> the_process_</text>
</g>
</g>
</svg>
