<?xml version="1.0" encoding="UTF-8" standalone="no"?>
<!DOCTYPE svg PUBLIC "-//W3C//DTD SVG 1.1//EN"
 "http://www.w3.org/Graphics/SVG/1.1/DTD/svg11.dtd">
<!-- Generated by graphviz version 2.43.0 (0)
 -->
<!-- Title: g4db::example::OutgoingKinematics Pages: 1 -->
<svg width="302pt" height="106pt"
 viewBox="0.00 0.00 301.50 106.00" xmlns="http://www.w3.org/2000/svg" xmlns:xlink="http://www.w3.org/1999/xlink">
<g id="graph0" class="graph" transform="scale(1 1) rotate(0) translate(4 102)">
<title>g4db::example::OutgoingKinematics</title>
<!-- Node1 -->
<g id="node1" class="node">
<title>Node1</title>
<g id="a_node1"><a xlink:title="The event information we care about for studying the model.">
<polygon fill="#bfbfbf" stroke="black" points="53,-0.5 53,-19.5 247,-19.5 247,-0.5 53,-0.5"/>
<text text-anchor="middle" x="150" y="-7.5" font-family="Helvetica,sans-Serif" font-size="10.00">g4db::example::OutgoingKinematics</text>
</a>
</g>
</g>
<!-- Node2 -->
<g id="node2" class="node">
<title>Node2</title>
<g id="a_node2"><a xlink:title=" ">
<polygon fill="none" stroke="#bfbfbf" points="0,-78.5 0,-97.5 144,-97.5 144,-78.5 0,-78.5"/>
<text text-anchor="middle" x="72" y="-85.5" font-family="Helvetica,sans-Serif" font-size="10.00">G4VUserEventInformation</text>
</a>
</g>
</g>
<!-- Node2&#45;&gt;Node1 -->
<g id="edge1" class="edge">
<title>Node2&#45;&gt;Node1</title>
<path fill="none" stroke="midnightblue" d="M88.55,-70.88C104.62,-55.22 128.4,-32.04 141.16,-19.62"/>
<polygon fill="midnightblue" stroke="midnightblue" points="85.67,-68.8 80.95,-78.28 90.55,-73.81 85.67,-68.8"/>
</g>
<!-- Node3 -->
<g id="node3" class="node">
<title>Node3</title>
<g id="a_node3"><a xlink:title=" ">
<polygon fill="none" stroke="#bfbfbf" points="162.5,-78.5 162.5,-97.5 293.5,-97.5 293.5,-78.5 162.5,-78.5"/>
<text text-anchor="middle" x="228" y="-85.5" font-family="Helvetica,sans-Serif" font-size="10.00">std::array&lt; double, 4 &gt;</text>
</a>
</g>
</g>
<!-- Node3&#45;&gt;Node1 -->
<g id="edge2" class="edge">
<title>Node3&#45;&gt;Node1</title>
<path fill="none" stroke="#9a32cd" stroke-dasharray="5,2" d="M211.45,-70.88C195.38,-55.22 171.6,-32.04 158.84,-19.62"/>
<polygon fill="#9a32cd" stroke="#9a32cd" points="209.45,-73.81 219.05,-78.28 214.33,-68.8 209.45,-73.81"/>
<text text-anchor="middle" x="218" y="-52" font-family="Helvetica,sans-Serif" font-size="10.00"> recoil_</text>
<text text-anchor="middle" x="218" y="-41" font-family="Helvetica,sans-Serif" font-size="10.00">aprime_</text>
</g>
</g>
</svg>
