<?xml version="1.0" encoding="UTF-8" standalone="no"?>
<!DOCTYPE svg PUBLIC "-//W3C//DTD SVG 1.1//EN"
 "http://www.w3.org/Graphics/SVG/1.1/DTD/svg11.dtd">
<!-- Generated by graphviz version 2.43.0 (0)
 -->
<!-- Title: G4DarkBremsstrahlung Pages: 1 -->
<svg width="858pt" height="157pt"
 viewBox="0.00 0.00 858.00 156.50" xmlns="http://www.w3.org/2000/svg" xmlns:xlink="http://www.w3.org/1999/xlink">
<g id="graph0" class="graph" transform="scale(1 1) rotate(0) translate(4 152.5)">
<title>G4DarkBremsstrahlung</title>
<!-- Node1 -->
<g id="node1" class="node">
<title>Node1</title>
<g id="a_node1"><a xlink:title=" ">
<polygon fill="#bfbfbf" stroke="black" points="719,-71 719,-90 850,-90 850,-71 719,-71"/>
<text text-anchor="middle" x="784.5" y="-78" font-family="Helvetica,sans-Serif" font-size="10.00">G4DarkBremsstrahlung</text>
</a>
</g>
</g>
<!-- Node2 -->
<g id="node2" class="node">
<title>Node2</title>
<g id="a_node2"><a xlink:title=" ">
<polygon fill="none" stroke="#bfbfbf" points="444.5,-129 444.5,-148 559.5,-148 559.5,-129 444.5,-129"/>
<text text-anchor="middle" x="502" y="-136" font-family="Helvetica,sans-Serif" font-size="10.00">G4VDiscreteProcess</text>
</a>
</g>
</g>
<!-- Node2&#45;&gt;Node1 -->
<g id="edge1" class="edge">
<title>Node2&#45;&gt;Node1</title>
<path fill="none" stroke="midnightblue" d="M569.94,-131.35C608.57,-126.48 657.9,-118.99 701,-108.5 720.84,-103.67 742.7,-96.15 758.93,-90.12"/>
<polygon fill="midnightblue" stroke="midnightblue" points="569.34,-127.89 559.85,-132.59 570.2,-134.84 569.34,-127.89"/>
</g>
<!-- Node3 -->
<g id="node3" class="node">
<title>Node3</title>
<g id="a_node3"><a xlink:href="classg4db_1_1ElementXsecCache.html" target="_top" xlink:title="The cache of already computed cross sections.">
<polygon fill="none" stroke="black" points="432,-91 432,-110 572,-110 572,-91 432,-91"/>
<text text-anchor="middle" x="502" y="-98" font-family="Helvetica,sans-Serif" font-size="10.00">g4db::ElementXsecCache</text>
</a>
</g>
</g>
<!-- Node3&#45;&gt;Node1 -->
<g id="edge2" class="edge">
<title>Node3&#45;&gt;Node1</title>
<path fill="none" stroke="#9a32cd" stroke-dasharray="5,2" d="M582.51,-94.83C625.63,-91.76 678.23,-88.01 718.81,-85.11"/>
<polygon fill="#9a32cd" stroke="#9a32cd" points="582.06,-91.35 572.34,-95.56 582.56,-98.34 582.06,-91.35"/>
<text text-anchor="middle" x="645.5" y="-96.5" font-family="Helvetica,sans-Serif" font-size="10.00"> element_xsec_cache_</text>
</g>
<!-- Node4 -->
<g id="node4" class="node">
<title>Node4</title>
<g id="a_node4"><a xlink:title=" ">
<polygon fill="none" stroke="#bfbfbf" points="177,-119 177,-138 338,-138 338,-119 177,-119"/>
<text text-anchor="middle" x="257.5" y="-126" font-family="Helvetica,sans-Serif" font-size="10.00">std::map&lt; key_t, G4double &gt;</text>
</a>
</g>
</g>
<!-- Node4&#45;&gt;Node3 -->
<g id="edge3" class="edge">
<title>Node4&#45;&gt;Node3</title>
<path fill="none" stroke="#9a32cd" stroke-dasharray="5,2" d="M348.29,-118.13C375.88,-114.95 405.81,-111.49 431.8,-108.49"/>
<polygon fill="#9a32cd" stroke="#9a32cd" points="347.77,-114.67 338.24,-119.29 348.57,-121.62 347.77,-114.67"/>
<text text-anchor="middle" x="385" y="-119.5" font-family="Helvetica,sans-Serif" font-size="10.00"> the_cache_</text>
</g>
<!-- Node5 -->
<g id="node5" class="node">
<title>Node5</title>
<g id="a_node5"><a xlink:title=" ">
<polygon fill="none" stroke="#bfbfbf" points="195,-59.5 195,-89.5 320,-89.5 320,-59.5 195,-59.5"/>
<text text-anchor="start" x="203" y="-77.5" font-family="Helvetica,sans-Serif" font-size="10.00">std::shared_ptr&lt; g4db</text>
<text text-anchor="middle" x="257.5" y="-66.5" font-family="Helvetica,sans-Serif" font-size="10.00">::PrototypeModel &gt;</text>
</a>
</g>
</g>
<!-- Node5&#45;&gt;Node1 -->
<g id="edge8" class="edge">
<title>Node5&#45;&gt;Node1</title>
<path fill="none" stroke="#9a32cd" stroke-dasharray="5,2" d="M330.66,-72.46C361.83,-71.68 398.71,-70.88 432,-70.5 494.22,-69.78 509.8,-69.03 572,-70.5 621.24,-71.66 676.88,-74.35 718.73,-76.64"/>
<polygon fill="#9a32cd" stroke="#9a32cd" points="330.23,-68.97 320.32,-72.73 330.41,-75.97 330.23,-68.97"/>
<text text-anchor="middle" x="502" y="-73.5" font-family="Helvetica,sans-Serif" font-size="10.00"> model_</text>
</g>
<!-- Node5&#45;&gt;Node3 -->
<g id="edge4" class="edge">
<title>Node5&#45;&gt;Node3</title>
<path fill="none" stroke="#9a32cd" stroke-dasharray="5,2" d="M330.22,-82.19C362.34,-85.63 400.05,-89.68 431.85,-93.09"/>
<polygon fill="#9a32cd" stroke="#9a32cd" points="330.32,-78.68 320.01,-81.09 329.58,-85.64 330.32,-78.68"/>
<text text-anchor="middle" x="385" y="-93.5" font-family="Helvetica,sans-Serif" font-size="10.00"> model_</text>
</g>
<!-- Node6 -->
<g id="node6" class="node">
<title>Node6</title>
<g id="a_node6"><a xlink:href="classg4db_1_1PrototypeModel.html" target="_top" xlink:title="Abstract class representing a model for dark brem.">
<polygon fill="none" stroke="black" points="0,-65 0,-84 124,-84 124,-65 0,-65"/>
<text text-anchor="middle" x="62" y="-72" font-family="Helvetica,sans-Serif" font-size="10.00">g4db::PrototypeModel</text>
</a>
</g>
</g>
<!-- Node6&#45;&gt;Node5 -->
<g id="edge5" class="edge">
<title>Node6&#45;&gt;Node5</title>
<path fill="none" stroke="#9a32cd" stroke-dasharray="5,2" d="M134.41,-74.5C154.19,-74.5 175.49,-74.5 194.68,-74.5"/>
<polygon fill="#9a32cd" stroke="#9a32cd" points="134.22,-71 124.22,-74.5 134.22,-78 134.22,-71"/>
<text text-anchor="middle" x="150.5" y="-77.5" font-family="Helvetica,sans-Serif" font-size="10.00"> ptr</text>
</g>
<!-- Node7 -->
<g id="node7" class="node">
<title>Node7</title>
<g id="a_node7"><a xlink:title="STL class.">
<polygon fill="none" stroke="#bfbfbf" points="469.5,-6 469.5,-25 534.5,-25 534.5,-6 469.5,-6"/>
<text text-anchor="middle" x="502" y="-13" font-family="Helvetica,sans-Serif" font-size="10.00">std::string</text>
</a>
</g>
</g>
<!-- Node7&#45;&gt;Node1 -->
<g id="edge6" class="edge">
<title>Node7&#45;&gt;Node1</title>
<path fill="none" stroke="#9a32cd" stroke-dasharray="5,2" d="M544.7,-15.33C585.42,-16.22 648.71,-20.45 701,-36.5 726.76,-44.41 753.8,-60.56 769.63,-70.94"/>
<polygon fill="#9a32cd" stroke="#9a32cd" points="544.66,-11.83 534.6,-15.16 544.55,-18.82 544.66,-11.83"/>
<text text-anchor="middle" x="645.5" y="-39.5" font-family="Helvetica,sans-Serif" font-size="10.00"> PROCESS_NAME</text>
</g>
<!-- Node8 -->
<g id="node8" class="node">
<title>Node8</title>
<g id="a_node8"><a xlink:title="STL class.">
<polygon fill="none" stroke="#bfbfbf" points="205.5,-0.5 205.5,-30.5 309.5,-30.5 309.5,-0.5 205.5,-0.5"/>
<text text-anchor="start" x="213.5" y="-18.5" font-family="Helvetica,sans-Serif" font-size="10.00">std::basic_string&lt;</text>
<text text-anchor="middle" x="257.5" y="-7.5" font-family="Helvetica,sans-Serif" font-size="10.00"> char &gt;</text>
</a>
</g>
</g>
<!-- Node8&#45;&gt;Node7 -->
<g id="edge7" class="edge">
<title>Node8&#45;&gt;Node7</title>
<path fill="none" stroke="midnightblue" d="M319.82,-15.5C367.38,-15.5 431.39,-15.5 469.21,-15.5"/>
<polygon fill="midnightblue" stroke="midnightblue" points="319.63,-12 309.63,-15.5 319.63,-19 319.63,-12"/>
</g>
</g>
</svg>
