<?xml version="1.0" encoding="UTF-8" standalone="no"?>
<!DOCTYPE svg PUBLIC "-//W3C//DTD SVG 1.1//EN"
 "http://www.w3.org/Graphics/SVG/1.1/DTD/svg11.dtd">
<!-- Generated by graphviz version 2.43.0 (0)
 -->
<!-- Title: g4db::example::PersistDarkBremProducts Pages: 1 -->
<svg width="247pt" height="356pt"
 viewBox="0.00 0.00 247.00 356.00" xmlns="http://www.w3.org/2000/svg" xmlns:xlink="http://www.w3.org/1999/xlink">
<g id="graph0" class="graph" transform="scale(1 1) rotate(0) translate(4 352)">
<title>g4db::example::PersistDarkBremProducts</title>
<!-- Node1 -->
<g id="node1" class="node">
<title>Node1</title>
<g id="a_node1"><a xlink:title="event action used to store the OutgoingKinematics if a dark brem occurred">
<polygon fill="#bfbfbf" stroke="black" points="0,-0.5 0,-30.5 152,-30.5 152,-0.5 0,-0.5"/>
<text text-anchor="start" x="8" y="-18.5" font-family="Helvetica,sans-Serif" font-size="10.00">g4db::example::PersistDark</text>
<text text-anchor="middle" x="76" y="-7.5" font-family="Helvetica,sans-Serif" font-size="10.00">BremProducts</text>
</a>
</g>
</g>
<!-- Node2 -->
<g id="node2" class="node">
<title>Node2</title>
<g id="a_node2"><a xlink:title=" ">
<polygon fill="none" stroke="#bfbfbf" points="4.5,-78.5 4.5,-97.5 115.5,-97.5 115.5,-78.5 4.5,-78.5"/>
<text text-anchor="middle" x="60" y="-85.5" font-family="Helvetica,sans-Serif" font-size="10.00">G4UserEventAction</text>
</a>
</g>
</g>
<!-- Node2&#45;&gt;Node1 -->
<g id="edge1" class="edge">
<title>Node2&#45;&gt;Node1</title>
<path fill="none" stroke="midnightblue" d="M64.18,-68.6C66.87,-56.72 70.33,-41.49 72.81,-30.58"/>
<polygon fill="midnightblue" stroke="midnightblue" points="60.76,-67.83 61.96,-78.36 67.59,-69.38 60.76,-67.83"/>
</g>
<!-- Node3 -->
<g id="node3" class="node">
<title>Node3</title>
<g id="a_node3"><a xlink:title="STL class.">
<polygon fill="none" stroke="#bfbfbf" points="134,-78.5 134,-97.5 216,-97.5 216,-78.5 134,-78.5"/>
<text text-anchor="middle" x="175" y="-85.5" font-family="Helvetica,sans-Serif" font-size="10.00">std::ofstream</text>
</a>
</g>
</g>
<!-- Node3&#45;&gt;Node1 -->
<g id="edge2" class="edge">
<title>Node3&#45;&gt;Node1</title>
<path fill="none" stroke="#9a32cd" stroke-dasharray="5,2" d="M154.59,-72.47C137.35,-60.19 112.82,-42.72 95.77,-30.58"/>
<polygon fill="#9a32cd" stroke="#9a32cd" points="152.68,-75.41 162.86,-78.36 156.75,-69.7 152.68,-75.41"/>
<text text-anchor="middle" x="146.5" y="-52" font-family="Helvetica,sans-Serif" font-size="10.00"> out_</text>
</g>
<!-- Node4 -->
<g id="node4" class="node">
<title>Node4</title>
<g id="a_node4"><a xlink:title="STL class.">
<polygon fill="none" stroke="#bfbfbf" points="118.5,-135.5 118.5,-165.5 231.5,-165.5 231.5,-135.5 118.5,-135.5"/>
<text text-anchor="start" x="126.5" y="-153.5" font-family="Helvetica,sans-Serif" font-size="10.00">std::basic_ofstream</text>
<text text-anchor="middle" x="175" y="-142.5" font-family="Helvetica,sans-Serif" font-size="10.00">&lt; char &gt;</text>
</a>
</g>
</g>
<!-- Node4&#45;&gt;Node3 -->
<g id="edge3" class="edge">
<title>Node4&#45;&gt;Node3</title>
<path fill="none" stroke="midnightblue" d="M175,-125.35C175,-115.51 175,-104.78 175,-97.54"/>
<polygon fill="midnightblue" stroke="midnightblue" points="171.5,-125.47 175,-135.47 178.5,-125.47 171.5,-125.47"/>
</g>
<!-- Node5 -->
<g id="node5" class="node">
<title>Node5</title>
<g id="a_node5"><a xlink:title="STL class.">
<polygon fill="none" stroke="#bfbfbf" points="120.5,-203.5 120.5,-233.5 229.5,-233.5 229.5,-203.5 120.5,-203.5"/>
<text text-anchor="start" x="128.5" y="-221.5" font-family="Helvetica,sans-Serif" font-size="10.00">std::basic_ostream</text>
<text text-anchor="middle" x="175" y="-210.5" font-family="Helvetica,sans-Serif" font-size="10.00">&lt; Char &gt;</text>
</a>
</g>
</g>
<!-- Node5&#45;&gt;Node4 -->
<g id="edge4" class="edge">
<title>Node5&#45;&gt;Node4</title>
<path fill="none" stroke="midnightblue" d="M175,-193.03C175,-183.86 175,-173.74 175,-165.79"/>
<polygon fill="midnightblue" stroke="midnightblue" points="171.5,-193.18 175,-203.18 178.5,-193.18 171.5,-193.18"/>
</g>
<!-- Node6 -->
<g id="node6" class="node">
<title>Node6</title>
<g id="a_node6"><a xlink:title="STL class.">
<polygon fill="none" stroke="#bfbfbf" points="111,-271.5 111,-290.5 239,-290.5 239,-271.5 111,-271.5"/>
<text text-anchor="middle" x="175" y="-278.5" font-family="Helvetica,sans-Serif" font-size="10.00">std::basic_ios&lt; Char &gt;</text>
</a>
</g>
</g>
<!-- Node6&#45;&gt;Node5 -->
<g id="edge5" class="edge">
<title>Node6&#45;&gt;Node5</title>
<path fill="none" stroke="midnightblue" d="M175,-261.22C175,-252.36 175,-241.96 175,-233.76"/>
<polygon fill="midnightblue" stroke="midnightblue" points="171.5,-261.33 175,-271.33 178.5,-261.33 171.5,-261.33"/>
</g>
<!-- Node7 -->
<g id="node7" class="node">
<title>Node7</title>
<g id="a_node7"><a xlink:title="STL class.">
<polygon fill="none" stroke="#bfbfbf" points="135,-328.5 135,-347.5 215,-347.5 215,-328.5 135,-328.5"/>
<text text-anchor="middle" x="175" y="-335.5" font-family="Helvetica,sans-Serif" font-size="10.00">std::ios_base</text>
</a>
</g>
</g>
<!-- Node7&#45;&gt;Node6 -->
<g id="edge6" class="edge">
<title>Node7&#45;&gt;Node6</title>
<path fill="none" stroke="midnightblue" d="M175,-318.12C175,-308.82 175,-298.06 175,-290.71"/>
<polygon fill="midnightblue" stroke="midnightblue" points="171.5,-318.41 175,-328.41 178.5,-318.41 171.5,-318.41"/>
</g>
</g>
</svg>
