<?xml version="1.0" encoding="UTF-8" standalone="no"?>
<!DOCTYPE svg PUBLIC "-//W3C//DTD SVG 1.1//EN"
 "http://www.w3.org/Graphics/SVG/1.1/DTD/svg11.dtd">
<!-- Generated by graphviz version 2.43.0 (0)
 -->
<!-- Title: g4db::G4DarkBreMModel Pages: 1 -->
<svg width="939pt" height="165pt"
 viewBox="0.00 0.00 939.00 164.50" xmlns="http://www.w3.org/2000/svg" xmlns:xlink="http://www.w3.org/1999/xlink">
<g id="graph0" class="graph" transform="scale(1 1) rotate(0) translate(4 160.5)">
<title>g4db::G4DarkBreMModel</title>
<!-- Node1 -->
<g id="node1" class="node">
<title>Node1</title>
<g id="a_node1"><a xlink:title=" ">
<polygon fill="#bfbfbf" stroke="black" points="792,-79 792,-98 931,-98 931,-79 792,-79"/>
<text text-anchor="middle" x="861.5" y="-86" font-family="Helvetica,sans-Serif" font-size="10.00">g4db::G4DarkBreMModel</text>
</a>
</g>
</g>
<!-- Node2 -->
<g id="node2" class="node">
<title>Node2</title>
<g id="a_node2"><a xlink:href="classg4db_1_1PrototypeModel.html" target="_top" xlink:title="Abstract class representing a model for dark brem.">
<polygon fill="none" stroke="black" points="489,-137 489,-156 613,-156 613,-137 489,-137"/>
<text text-anchor="middle" x="551" y="-144" font-family="Helvetica,sans-Serif" font-size="10.00">g4db::PrototypeModel</text>
</a>
</g>
</g>
<!-- Node2&#45;&gt;Node1 -->
<g id="edge1" class="edge">
<title>Node2&#45;&gt;Node1</title>
<path fill="none" stroke="midnightblue" d="M623.2,-145.35C667.23,-143.27 724.58,-138.08 774,-125.5 798.69,-119.21 825.41,-106.85 842.52,-98.15"/>
<polygon fill="midnightblue" stroke="midnightblue" points="623.01,-141.86 613.17,-145.78 623.31,-148.85 623.01,-141.86"/>
</g>
<!-- Node3 -->
<g id="node3" class="node">
<title>Node3</title>
<g id="a_node3"><a xlink:title="STL class.">
<polygon fill="none" stroke="#bfbfbf" points="518.5,-99 518.5,-118 583.5,-118 583.5,-99 518.5,-99"/>
<text text-anchor="middle" x="551" y="-106" font-family="Helvetica,sans-Serif" font-size="10.00">std::string</text>
</a>
</g>
</g>
<!-- Node3&#45;&gt;Node1 -->
<g id="edge2" class="edge">
<title>Node3&#45;&gt;Node1</title>
<path fill="none" stroke="#9a32cd" stroke-dasharray="5,2" d="M593.85,-105.79C644.67,-102.49 731.12,-96.89 791.77,-92.96"/>
<polygon fill="#9a32cd" stroke="#9a32cd" points="593.32,-102.31 583.57,-106.45 593.77,-109.3 593.32,-102.31"/>
<text text-anchor="middle" x="725.5" y="-113.5" font-family="Helvetica,sans-Serif" font-size="10.00"> method_name_</text>
<text text-anchor="middle" x="725.5" y="-102.5" font-family="Helvetica,sans-Serif" font-size="10.00">library_path_</text>
</g>
<!-- Node4 -->
<g id="node4" class="node">
<title>Node4</title>
<g id="a_node4"><a xlink:title="STL class.">
<polygon fill="none" stroke="#bfbfbf" points="242.5,-95.5 242.5,-125.5 346.5,-125.5 346.5,-95.5 242.5,-95.5"/>
<text text-anchor="start" x="250.5" y="-113.5" font-family="Helvetica,sans-Serif" font-size="10.00">std::basic_string&lt;</text>
<text text-anchor="middle" x="294.5" y="-102.5" font-family="Helvetica,sans-Serif" font-size="10.00"> char &gt;</text>
</a>
</g>
</g>
<!-- Node4&#45;&gt;Node3 -->
<g id="edge3" class="edge">
<title>Node4&#45;&gt;Node3</title>
<path fill="none" stroke="midnightblue" d="M356.91,-110.02C407.75,-109.62 477.93,-109.07 518.18,-108.75"/>
<polygon fill="midnightblue" stroke="midnightblue" points="356.67,-106.52 346.7,-110.1 356.72,-113.52 356.67,-106.52"/>
</g>
<!-- Node5 -->
<g id="node5" class="node">
<title>Node5</title>
<g id="a_node5"><a xlink:title=" ">
<polygon fill="none" stroke="#bfbfbf" points="443,-49.5 443,-79.5 659,-79.5 659,-49.5 443,-49.5"/>
<text text-anchor="start" x="451" y="-67.5" font-family="Helvetica,sans-Serif" font-size="10.00">std::map&lt; double, std</text>
<text text-anchor="middle" x="551" y="-56.5" font-family="Helvetica,sans-Serif" font-size="10.00">::vector&lt; g4db::OutgoingKinematics &gt; &gt;</text>
</a>
</g>
</g>
<!-- Node5&#45;&gt;Node1 -->
<g id="edge4" class="edge">
<title>Node5&#45;&gt;Node1</title>
<path fill="none" stroke="#9a32cd" stroke-dasharray="5,2" d="M669.45,-70.76C703.23,-72.87 740.1,-75.47 774,-78.5 779.72,-79.01 785.65,-79.59 791.6,-80.21"/>
<polygon fill="#9a32cd" stroke="#9a32cd" points="669.27,-67.24 659.07,-70.12 668.84,-74.23 669.27,-67.24"/>
<text text-anchor="middle" x="725.5" y="-81.5" font-family="Helvetica,sans-Serif" font-size="10.00"> madGraphData_</text>
</g>
<!-- Node6 -->
<g id="node6" class="node">
<title>Node6</title>
<g id="a_node6"><a xlink:title=" ">
<polygon fill="none" stroke="#bfbfbf" points="231,-46.5 231,-76.5 358,-76.5 358,-46.5 231,-46.5"/>
<text text-anchor="start" x="239" y="-64.5" font-family="Helvetica,sans-Serif" font-size="10.00">std::vector&lt; g4db::</text>
<text text-anchor="middle" x="294.5" y="-53.5" font-family="Helvetica,sans-Serif" font-size="10.00">OutgoingKinematics &gt;</text>
</a>
</g>
</g>
<!-- Node6&#45;&gt;Node5 -->
<g id="edge5" class="edge">
<title>Node6&#45;&gt;Node5</title>
<path fill="none" stroke="#9a32cd" stroke-dasharray="5,2" d="M368.21,-62.36C391.5,-62.63 417.79,-62.94 443,-63.24"/>
<polygon fill="#9a32cd" stroke="#9a32cd" points="368.12,-58.86 358.08,-62.24 368.04,-65.86 368.12,-58.86"/>
<text text-anchor="middle" x="400.5" y="-66.5" font-family="Helvetica,sans-Serif" font-size="10.00"> elements</text>
</g>
<!-- Node7 -->
<g id="node7" class="node">
<title>Node7</title>
<g id="a_node7"><a xlink:href="structg4db_1_1OutgoingKinematics.html" target="_top" xlink:title="Data frame to store necessary information from LHE files.">
<polygon fill="none" stroke="black" points="0,-52 0,-71 146,-71 146,-52 0,-52"/>
<text text-anchor="middle" x="73" y="-59" font-family="Helvetica,sans-Serif" font-size="10.00">g4db::OutgoingKinematics</text>
</a>
</g>
</g>
<!-- Node7&#45;&gt;Node6 -->
<g id="edge6" class="edge">
<title>Node7&#45;&gt;Node6</title>
<path fill="none" stroke="#9a32cd" stroke-dasharray="5,2" d="M156.26,-61.5C180.96,-61.5 207.65,-61.5 230.86,-61.5"/>
<polygon fill="#9a32cd" stroke="#9a32cd" points="156.18,-58 146.18,-61.5 156.18,-65 156.18,-58"/>
<text text-anchor="middle" x="188.5" y="-64.5" font-family="Helvetica,sans-Serif" font-size="10.00"> elements</text>
</g>
<!-- Node8 -->
<g id="node8" class="node">
<title>Node8</title>
<g id="a_node8"><a xlink:title=" ">
<polygon fill="none" stroke="#bfbfbf" points="474,-0.5 474,-30.5 628,-30.5 628,-0.5 474,-0.5"/>
<text text-anchor="start" x="482" y="-18.5" font-family="Helvetica,sans-Serif" font-size="10.00">std::map&lt; double, unsigned</text>
<text text-anchor="middle" x="551" y="-7.5" font-family="Helvetica,sans-Serif" font-size="10.00"> int &gt;</text>
</a>
</g>
</g>
<!-- Node8&#45;&gt;Node1 -->
<g id="edge7" class="edge">
<title>Node8&#45;&gt;Node1</title>
<path fill="none" stroke="#9a32cd" stroke-dasharray="5,2" d="M638.31,-27.9C679.73,-34.75 729.84,-44.35 774,-56.5 796.23,-62.62 820.82,-71.98 838.08,-79"/>
<polygon fill="#9a32cd" stroke="#9a32cd" points="638.69,-24.42 628.25,-26.26 637.56,-31.33 638.69,-24.42"/>
<text text-anchor="middle" x="725.5" y="-59.5" font-family="Helvetica,sans-Serif" font-size="10.00"> currentDataPoints_</text>
</g>
</g>
</svg>
