<?xml version="1.0" encoding="UTF-8" standalone="no"?>
<!DOCTYPE svg PUBLIC "-//W3C//DTD SVG 1.1//EN"
 "http://www.w3.org/Graphics/SVG/1.1/DTD/svg11.dtd">
<!-- Generated by graphviz version 2.43.0 (0)
 -->
<!-- Title: g4db::G4DarkBreMModel Pages: 1 -->
<svg width="1001pt" height="176pt"
 viewBox="0.00 0.00 1001.00 175.50" xmlns="http://www.w3.org/2000/svg" xmlns:xlink="http://www.w3.org/1999/xlink">
<g id="graph0" class="graph" transform="scale(1 1) rotate(0) translate(4 171.5)">
<title>g4db::G4DarkBreMModel</title>
<!-- Node1 -->
<g id="node1" class="node">
<title>Node1</title>
<g id="a_node1"><a xlink:title=" ">
<polygon fill="#bfbfbf" stroke="black" points="854,-75 854,-94 993,-94 993,-75 854,-75"/>
<text text-anchor="middle" x="923.5" y="-82" font-family="Helvetica,sans-Serif" font-size="10.00">g4db::G4DarkBreMModel</text>
</a>
</g>
</g>
<!-- Node2 -->
<g id="node2" class="node">
<title>Node2</title>
<g id="a_node2"><a xlink:href="classg4db_1_1PrototypeModel.html" target="_top" xlink:title="Abstract class representing a model for dark brem.">
<polygon fill="none" stroke="black" points="565.5,-148 565.5,-167 689.5,-167 689.5,-148 565.5,-148"/>
<text text-anchor="middle" x="627.5" y="-155" font-family="Helvetica,sans-Serif" font-size="10.00">g4db::PrototypeModel</text>
</a>
</g>
</g>
<!-- Node2&#45;&gt;Node1 -->
<g id="edge1" class="edge">
<title>Node2&#45;&gt;Node1</title>
<path fill="none" stroke="midnightblue" d="M692.16,-146.05C733.46,-138.12 788.28,-126.64 836,-113.5 856.61,-107.82 879.54,-100.07 896.61,-94.01"/>
<polygon fill="midnightblue" stroke="midnightblue" points="691.4,-142.63 682.23,-147.94 692.71,-149.51 691.4,-142.63"/>
</g>
<!-- Node3 -->
<g id="node3" class="node">
<title>Node3</title>
<g id="a_node3"><a xlink:title=" ">
<polygon fill="none" stroke="#bfbfbf" points="534,-88 534,-129 721,-129 721,-88 534,-88"/>
<text text-anchor="start" x="542" y="-117" font-family="Helvetica,sans-Serif" font-size="10.00">std::map&lt; double, std</text>
<text text-anchor="start" x="542" y="-106" font-family="Helvetica,sans-Serif" font-size="10.00">::vector&lt; g4db::G4DarkBreMModel</text>
<text text-anchor="middle" x="627.5" y="-95" font-family="Helvetica,sans-Serif" font-size="10.00">::OutgoingKinematics &gt; &gt;</text>
</a>
</g>
</g>
<!-- Node3&#45;&gt;Node1 -->
<g id="edge2" class="edge">
<title>Node3&#45;&gt;Node1</title>
<path fill="none" stroke="#9a32cd" stroke-dasharray="5,2" d="M731.3,-100.11C771.81,-96.8 817.25,-93.09 853.66,-90.12"/>
<polygon fill="#9a32cd" stroke="#9a32cd" points="730.8,-96.64 721.12,-100.94 731.37,-103.61 730.8,-96.64"/>
<text text-anchor="middle" x="787.5" y="-101.5" font-family="Helvetica,sans-Serif" font-size="10.00"> madGraphData_</text>
</g>
<!-- Node4 -->
<g id="node4" class="node">
<title>Node4</title>
<g id="a_node4"><a xlink:title=" ">
<polygon fill="none" stroke="#bfbfbf" points="224,-93.5 224,-123.5 449,-123.5 449,-93.5 224,-93.5"/>
<text text-anchor="start" x="232" y="-111.5" font-family="Helvetica,sans-Serif" font-size="10.00">std::vector&lt; g4db::</text>
<text text-anchor="middle" x="336.5" y="-100.5" font-family="Helvetica,sans-Serif" font-size="10.00">G4DarkBreMModel::OutgoingKinematics &gt;</text>
</a>
</g>
</g>
<!-- Node4&#45;&gt;Node3 -->
<g id="edge3" class="edge">
<title>Node4&#45;&gt;Node3</title>
<path fill="none" stroke="#9a32cd" stroke-dasharray="5,2" d="M459.46,-108.5C484.34,-108.5 510.13,-108.5 533.79,-108.5"/>
<polygon fill="#9a32cd" stroke="#9a32cd" points="459.23,-105 449.23,-108.5 459.23,-112 459.23,-105"/>
<text text-anchor="middle" x="491.5" y="-111.5" font-family="Helvetica,sans-Serif" font-size="10.00"> elements</text>
</g>
<!-- Node5 -->
<g id="node5" class="node">
<title>Node5</title>
<g id="a_node5"><a xlink:href="structg4db_1_1G4DarkBreMModel_1_1OutgoingKinematics.html" target="_top" xlink:title=" ">
<polygon fill="none" stroke="black" points="0,-93.5 0,-123.5 139,-123.5 139,-93.5 0,-93.5"/>
<text text-anchor="start" x="8" y="-111.5" font-family="Helvetica,sans-Serif" font-size="10.00">g4db::G4DarkBreMModel</text>
<text text-anchor="middle" x="69.5" y="-100.5" font-family="Helvetica,sans-Serif" font-size="10.00">::OutgoingKinematics</text>
</a>
</g>
</g>
<!-- Node5&#45;&gt;Node4 -->
<g id="edge4" class="edge">
<title>Node5&#45;&gt;Node4</title>
<path fill="none" stroke="#9a32cd" stroke-dasharray="5,2" d="M149.28,-108.5C172.67,-108.5 198.74,-108.5 223.8,-108.5"/>
<polygon fill="#9a32cd" stroke="#9a32cd" points="149.09,-105 139.09,-108.5 149.09,-112 149.09,-105"/>
<text text-anchor="middle" x="181.5" y="-111.5" font-family="Helvetica,sans-Serif" font-size="10.00"> elements</text>
</g>
<!-- Node6 -->
<g id="node6" class="node">
<title>Node6</title>
<g id="a_node6"><a xlink:title="STL class.">
<polygon fill="none" stroke="#bfbfbf" points="595,-50 595,-69 660,-69 660,-50 595,-50"/>
<text text-anchor="middle" x="627.5" y="-57" font-family="Helvetica,sans-Serif" font-size="10.00">std::string</text>
</a>
</g>
</g>
<!-- Node6&#45;&gt;Node1 -->
<g id="edge5" class="edge">
<title>Node6&#45;&gt;Node1</title>
<path fill="none" stroke="#9a32cd" stroke-dasharray="5,2" d="M670.42,-58.42C712.45,-57.87 778.95,-58.47 836,-65.5 852.63,-67.55 870.78,-71.3 886.14,-74.93"/>
<polygon fill="#9a32cd" stroke="#9a32cd" points="670.22,-54.92 660.28,-58.58 670.33,-61.92 670.22,-54.92"/>
<text text-anchor="middle" x="787.5" y="-79.5" font-family="Helvetica,sans-Serif" font-size="10.00"> method_name_</text>
<text text-anchor="middle" x="787.5" y="-68.5" font-family="Helvetica,sans-Serif" font-size="10.00">library_path_</text>
</g>
<!-- Node7 -->
<g id="node7" class="node">
<title>Node7</title>
<g id="a_node7"><a xlink:title="STL class.">
<polygon fill="none" stroke="#bfbfbf" points="284.5,-44.5 284.5,-74.5 388.5,-74.5 388.5,-44.5 284.5,-44.5"/>
<text text-anchor="start" x="292.5" y="-62.5" font-family="Helvetica,sans-Serif" font-size="10.00">std::basic_string&lt;</text>
<text text-anchor="middle" x="336.5" y="-51.5" font-family="Helvetica,sans-Serif" font-size="10.00"> char &gt;</text>
</a>
</g>
</g>
<!-- Node7&#45;&gt;Node6 -->
<g id="edge6" class="edge">
<title>Node7&#45;&gt;Node6</title>
<path fill="none" stroke="midnightblue" d="M398.61,-59.5C458.59,-59.5 547.72,-59.5 594.76,-59.5"/>
<polygon fill="midnightblue" stroke="midnightblue" points="398.5,-56 388.5,-59.5 398.5,-63 398.5,-56"/>
</g>
<!-- Node8 -->
<g id="node8" class="node">
<title>Node8</title>
<g id="a_node8"><a xlink:title=" ">
<polygon fill="none" stroke="#bfbfbf" points="550.5,-0.5 550.5,-30.5 704.5,-30.5 704.5,-0.5 550.5,-0.5"/>
<text text-anchor="start" x="558.5" y="-18.5" font-family="Helvetica,sans-Serif" font-size="10.00">std::map&lt; double, unsigned</text>
<text text-anchor="middle" x="627.5" y="-7.5" font-family="Helvetica,sans-Serif" font-size="10.00"> int &gt;</text>
</a>
</g>
</g>
<!-- Node8&#45;&gt;Node1 -->
<g id="edge7" class="edge">
<title>Node8&#45;&gt;Node1</title>
<path fill="none" stroke="#9a32cd" stroke-dasharray="5,2" d="M714.51,-21.8C752.32,-26.02 796.92,-33.01 836,-44.5 861.4,-51.97 888.84,-65.73 905.85,-74.99"/>
<polygon fill="#9a32cd" stroke="#9a32cd" points="714.86,-18.31 704.55,-20.73 714.12,-25.27 714.86,-18.31"/>
<text text-anchor="middle" x="787.5" y="-47.5" font-family="Helvetica,sans-Serif" font-size="10.00"> currentDataPoints_</text>
</g>
</g>
</svg>
