<?xml version="1.0" encoding="UTF-8" standalone="no"?>
<!DOCTYPE svg PUBLIC "-//W3C//DTD SVG 1.1//EN"
 "http://www.w3.org/Graphics/SVG/1.1/DTD/svg11.dtd">
<!-- Generated by graphviz version 2.43.0 (0)
 -->
<!-- Title: G4DarkBremsstrahlung Pages: 1 -->
<svg width="681pt" height="157pt"
 viewBox="0.00 0.00 681.00 156.50" xmlns="http://www.w3.org/2000/svg" xmlns:xlink="http://www.w3.org/1999/xlink">
<g id="graph0" class="graph" transform="scale(1 1) rotate(0) translate(4 152.5)">
<title>G4DarkBremsstrahlung</title>
<!-- Node1 -->
<g id="node1" class="node">
<title>Node1</title>
<g id="a_node1"><a xlink:title="Class that represents the dark brem process.">
<polygon fill="#bfbfbf" stroke="black" points="542,-71 542,-90 673,-90 673,-71 542,-71"/>
<text text-anchor="middle" x="607.5" y="-78" font-family="Helvetica,sans-Serif" font-size="10.00">G4DarkBremsstrahlung</text>
</a>
</g>
</g>
<!-- Node2 -->
<g id="node2" class="node">
<title>Node2</title>
<g id="a_node2"><a xlink:title=" ">
<polygon fill="none" stroke="#bfbfbf" points="267.5,-129 267.5,-148 382.5,-148 382.5,-129 267.5,-129"/>
<text text-anchor="middle" x="325" y="-136" font-family="Helvetica,sans-Serif" font-size="10.00">G4VDiscreteProcess</text>
</a>
</g>
</g>
<!-- Node2&#45;&gt;Node1 -->
<g id="edge1" class="edge">
<title>Node2&#45;&gt;Node1</title>
<path fill="none" stroke="midnightblue" d="M392.94,-131.35C431.57,-126.48 480.9,-118.99 524,-108.5 543.84,-103.67 565.7,-96.15 581.93,-90.12"/>
<polygon fill="midnightblue" stroke="midnightblue" points="392.34,-127.89 382.85,-132.59 393.2,-134.84 392.34,-127.89"/>
</g>
<!-- Node3 -->
<g id="node3" class="node">
<title>Node3</title>
<g id="a_node3"><a xlink:href="classg4db_1_1ElementXsecCache.html" target="_top" xlink:title="The cache of already computed cross sections.">
<polygon fill="none" stroke="black" points="255,-91 255,-110 395,-110 395,-91 255,-91"/>
<text text-anchor="middle" x="325" y="-98" font-family="Helvetica,sans-Serif" font-size="10.00">g4db::ElementXsecCache</text>
</a>
</g>
</g>
<!-- Node3&#45;&gt;Node1 -->
<g id="edge2" class="edge">
<title>Node3&#45;&gt;Node1</title>
<path fill="none" stroke="#9a32cd" stroke-dasharray="5,2" d="M405.51,-94.83C448.63,-91.76 501.23,-88.01 541.81,-85.11"/>
<polygon fill="#9a32cd" stroke="#9a32cd" points="405.06,-91.35 395.34,-95.56 405.56,-98.34 405.06,-91.35"/>
<text text-anchor="middle" x="468.5" y="-96.5" font-family="Helvetica,sans-Serif" font-size="10.00"> element_xsec_cache_</text>
</g>
<!-- Node4 -->
<g id="node4" class="node">
<title>Node4</title>
<g id="a_node4"><a xlink:title=" ">
<polygon fill="none" stroke="#bfbfbf" points="0,-119 0,-138 161,-138 161,-119 0,-119"/>
<text text-anchor="middle" x="80.5" y="-126" font-family="Helvetica,sans-Serif" font-size="10.00">std::map&lt; key_t, G4double &gt;</text>
</a>
</g>
</g>
<!-- Node4&#45;&gt;Node3 -->
<g id="edge3" class="edge">
<title>Node4&#45;&gt;Node3</title>
<path fill="none" stroke="#9a32cd" stroke-dasharray="5,2" d="M171.29,-118.13C198.88,-114.95 228.81,-111.49 254.8,-108.49"/>
<polygon fill="#9a32cd" stroke="#9a32cd" points="170.77,-114.67 161.24,-119.29 171.57,-121.62 170.77,-114.67"/>
<text text-anchor="middle" x="208" y="-119.5" font-family="Helvetica,sans-Serif" font-size="10.00"> the_cache_</text>
</g>
<!-- Node5 -->
<g id="node5" class="node">
<title>Node5</title>
<g id="a_node5"><a xlink:title=" ">
<polygon fill="none" stroke="#bfbfbf" points="18,-59.5 18,-89.5 143,-89.5 143,-59.5 18,-59.5"/>
<text text-anchor="start" x="26" y="-77.5" font-family="Helvetica,sans-Serif" font-size="10.00">std::shared_ptr&lt; g4db</text>
<text text-anchor="middle" x="80.5" y="-66.5" font-family="Helvetica,sans-Serif" font-size="10.00">::PrototypeModel &gt;</text>
</a>
</g>
</g>
<!-- Node5&#45;&gt;Node1 -->
<g id="edge7" class="edge">
<title>Node5&#45;&gt;Node1</title>
<path fill="none" stroke="#9a32cd" stroke-dasharray="5,2" d="M153.66,-72.46C184.83,-71.68 221.71,-70.88 255,-70.5 317.22,-69.78 332.8,-69.03 395,-70.5 444.24,-71.66 499.88,-74.35 541.73,-76.64"/>
<polygon fill="#9a32cd" stroke="#9a32cd" points="153.23,-68.97 143.32,-72.73 153.41,-75.97 153.23,-68.97"/>
<text text-anchor="middle" x="325" y="-73.5" font-family="Helvetica,sans-Serif" font-size="10.00"> model_</text>
</g>
<!-- Node5&#45;&gt;Node3 -->
<g id="edge4" class="edge">
<title>Node5&#45;&gt;Node3</title>
<path fill="none" stroke="#9a32cd" stroke-dasharray="5,2" d="M153.22,-82.19C185.34,-85.63 223.05,-89.68 254.85,-93.09"/>
<polygon fill="#9a32cd" stroke="#9a32cd" points="153.32,-78.68 143.01,-81.09 152.58,-85.64 153.32,-78.68"/>
<text text-anchor="middle" x="208" y="-93.5" font-family="Helvetica,sans-Serif" font-size="10.00"> model_</text>
</g>
<!-- Node6 -->
<g id="node6" class="node">
<title>Node6</title>
<g id="a_node6"><a xlink:title=" ">
<polygon fill="none" stroke="#bfbfbf" points="292.5,-6 292.5,-25 357.5,-25 357.5,-6 292.5,-6"/>
<text text-anchor="middle" x="325" y="-13" font-family="Helvetica,sans-Serif" font-size="10.00">std::string</text>
</a>
</g>
</g>
<!-- Node6&#45;&gt;Node1 -->
<g id="edge5" class="edge">
<title>Node6&#45;&gt;Node1</title>
<path fill="none" stroke="#9a32cd" stroke-dasharray="5,2" d="M367.7,-15.33C408.42,-16.22 471.71,-20.45 524,-36.5 549.76,-44.41 576.8,-60.56 592.63,-70.94"/>
<polygon fill="#9a32cd" stroke="#9a32cd" points="367.66,-11.83 357.6,-15.16 367.55,-18.82 367.66,-11.83"/>
<text text-anchor="middle" x="468.5" y="-39.5" font-family="Helvetica,sans-Serif" font-size="10.00"> PROCESS_NAME</text>
</g>
<!-- Node7 -->
<g id="node7" class="node">
<title>Node7</title>
<g id="a_node7"><a xlink:title=" ">
<polygon fill="none" stroke="#bfbfbf" points="28.5,-0.5 28.5,-30.5 132.5,-30.5 132.5,-0.5 28.5,-0.5"/>
<text text-anchor="start" x="36.5" y="-18.5" font-family="Helvetica,sans-Serif" font-size="10.00">std::basic_string&lt;</text>
<text text-anchor="middle" x="80.5" y="-7.5" font-family="Helvetica,sans-Serif" font-size="10.00"> Char &gt;</text>
</a>
</g>
</g>
<!-- Node7&#45;&gt;Node6 -->
<g id="edge6" class="edge">
<title>Node7&#45;&gt;Node6</title>
<path fill="none" stroke="midnightblue" d="M142.82,-15.5C190.38,-15.5 254.39,-15.5 292.21,-15.5"/>
<polygon fill="midnightblue" stroke="midnightblue" points="142.63,-12 132.63,-15.5 142.63,-19 142.63,-12"/>
</g>
</g>
</svg>
