<?xml version="1.0" encoding="UTF-8" standalone="no"?>
<!DOCTYPE svg PUBLIC "-//W3C//DTD SVG 1.1//EN"
 "http://www.w3.org/Graphics/SVG/1.1/DTD/svg11.dtd">
<!-- Generated by graphviz version 2.43.0 (0)
 -->
<!-- Title: g4db::G4DarkBreMModel Pages: 1 -->
<svg width="235pt" height="174pt"
 viewBox="0.00 0.00 235.00 174.00" xmlns="http://www.w3.org/2000/svg" xmlns:xlink="http://www.w3.org/1999/xlink">
<g id="graph0" class="graph" transform="scale(1 1) rotate(0) translate(4 170)">
<title>g4db::G4DarkBreMModel</title>
<!-- Node1 -->
<g id="node1" class="node">
<title>Node1</title>
<g id="a_node1"><a xlink:title="Geant4 implementation of the model for a particle undergoing a dark brem where we use an imported ver...">
<polygon fill="#bfbfbf" stroke="black" points="8.5,-0.5 8.5,-19.5 147.5,-19.5 147.5,-0.5 8.5,-0.5"/>
<text text-anchor="middle" x="78" y="-7.5" font-family="Helvetica,sans-Serif" font-size="10.00">g4db::G4DarkBreMModel</text>
</a>
</g>
</g>
<!-- Node2 -->
<g id="node2" class="node">
<title>Node2</title>
<g id="a_node2"><a xlink:href="classg4db_1_1PrototypeModel.html" target="_top" xlink:title=" ">
<polygon fill="none" stroke="black" points="0,-78.5 0,-97.5 124,-97.5 124,-78.5 0,-78.5"/>
<text text-anchor="middle" x="62" y="-85.5" font-family="Helvetica,sans-Serif" font-size="10.00">g4db::PrototypeModel</text>
</a>
</g>
</g>
<!-- Node2&#45;&gt;Node1 -->
<g id="edge1" class="edge">
<title>Node2&#45;&gt;Node1</title>
<path fill="none" stroke="midnightblue" d="M65.95,-68.22C69.22,-52.7 73.71,-31.36 76.19,-19.62"/>
<polygon fill="midnightblue" stroke="midnightblue" points="62.47,-67.78 63.84,-78.28 69.32,-69.22 62.47,-67.78"/>
</g>
<!-- Node3 -->
<g id="node3" class="node">
<title>Node3</title>
<g id="a_node3"><a xlink:title=" ">
<polygon fill="none" stroke="#bfbfbf" points="142.5,-78.5 142.5,-97.5 207.5,-97.5 207.5,-78.5 142.5,-78.5"/>
<text text-anchor="middle" x="175" y="-85.5" font-family="Helvetica,sans-Serif" font-size="10.00">std::string</text>
</a>
</g>
</g>
<!-- Node3&#45;&gt;Node1 -->
<g id="edge2" class="edge">
<title>Node3&#45;&gt;Node1</title>
<path fill="none" stroke="#9a32cd" stroke-dasharray="5,2" d="M155.78,-71.94C135.8,-56.28 105.22,-32.33 89,-19.62"/>
<polygon fill="#9a32cd" stroke="#9a32cd" points="153.84,-74.87 163.87,-78.28 158.16,-69.36 153.84,-74.87"/>
<text text-anchor="middle" x="176" y="-52" font-family="Helvetica,sans-Serif" font-size="10.00"> library_path_</text>
<text text-anchor="middle" x="176" y="-41" font-family="Helvetica,sans-Serif" font-size="10.00">method_name_</text>
</g>
<!-- Node4 -->
<g id="node4" class="node">
<title>Node4</title>
<g id="a_node4"><a xlink:title=" ">
<polygon fill="none" stroke="#bfbfbf" points="123,-135.5 123,-165.5 227,-165.5 227,-135.5 123,-135.5"/>
<text text-anchor="start" x="131" y="-153.5" font-family="Helvetica,sans-Serif" font-size="10.00">std::basic_string&lt;</text>
<text text-anchor="middle" x="175" y="-142.5" font-family="Helvetica,sans-Serif" font-size="10.00"> Char &gt;</text>
</a>
</g>
</g>
<!-- Node4&#45;&gt;Node3 -->
<g id="edge3" class="edge">
<title>Node4&#45;&gt;Node3</title>
<path fill="none" stroke="midnightblue" d="M175,-125.35C175,-115.51 175,-104.78 175,-97.54"/>
<polygon fill="midnightblue" stroke="midnightblue" points="171.5,-125.47 175,-135.47 178.5,-125.47 171.5,-125.47"/>
</g>
</g>
</svg>
