<?xml version="1.0" encoding="UTF-8" standalone="no"?>
<!DOCTYPE svg PUBLIC "-//W3C//DTD SVG 1.1//EN"
 "http://www.w3.org/Graphics/SVG/1.1/DTD/svg11.dtd">
<!-- Generated by graphviz version 2.43.0 (0)
 -->
<!-- Title: G4DarkBremsstrahlung Pages: 1 -->
<svg width="384pt" height="163pt"
 viewBox="0.00 0.00 383.50 163.00" xmlns="http://www.w3.org/2000/svg" xmlns:xlink="http://www.w3.org/1999/xlink">
<g id="graph0" class="graph" transform="scale(1 1) rotate(0) translate(4 159)">
<title>G4DarkBremsstrahlung</title>
<!-- Node1 -->
<g id="node1" class="node">
<title>Node1</title>
<g id="a_node1"><a xlink:title="Class that represents the dark brem process.">
<polygon fill="#bfbfbf" stroke="black" points="100,-0.5 100,-19.5 231,-19.5 231,-0.5 100,-0.5"/>
<text text-anchor="middle" x="165.5" y="-7.5" font-family="Helvetica,sans-Serif" font-size="10.00">G4DarkBremsstrahlung</text>
</a>
</g>
</g>
<!-- Node2 -->
<g id="node2" class="node">
<title>Node2</title>
<g id="a_node2"><a xlink:title=" ">
<polygon fill="none" stroke="#bfbfbf" points="0,-67.5 0,-86.5 115,-86.5 115,-67.5 0,-67.5"/>
<text text-anchor="middle" x="57.5" y="-74.5" font-family="Helvetica,sans-Serif" font-size="10.00">G4VDiscreteProcess</text>
</a>
</g>
</g>
<!-- Node2&#45;&gt;Node1 -->
<g id="edge1" class="edge">
<title>Node2&#45;&gt;Node1</title>
<path fill="none" stroke="midnightblue" d="M80.86,-61.94C102.25,-49.07 133.22,-30.43 151.17,-19.63"/>
<polygon fill="midnightblue" stroke="midnightblue" points="78.83,-59.08 72.07,-67.23 82.44,-65.08 78.83,-59.08"/>
</g>
<!-- Node3 -->
<g id="node3" class="node">
<title>Node3</title>
<g id="a_node3"><a xlink:title=" ">
<polygon fill="none" stroke="#bfbfbf" points="133,-67.5 133,-86.5 198,-86.5 198,-67.5 133,-67.5"/>
<text text-anchor="middle" x="165.5" y="-74.5" font-family="Helvetica,sans-Serif" font-size="10.00">std::string</text>
</a>
</g>
</g>
<!-- Node3&#45;&gt;Node1 -->
<g id="edge2" class="edge">
<title>Node3&#45;&gt;Node1</title>
<path fill="none" stroke="#9a32cd" stroke-dasharray="5,2" d="M165.5,-57.04C165.5,-44.67 165.5,-29.12 165.5,-19.63"/>
<polygon fill="#9a32cd" stroke="#9a32cd" points="162,-57.23 165.5,-67.23 169,-57.23 162,-57.23"/>
<text text-anchor="middle" x="207" y="-41" font-family="Helvetica,sans-Serif" font-size="10.00"> PROCESS_NAME</text>
</g>
<!-- Node4 -->
<g id="node4" class="node">
<title>Node4</title>
<g id="a_node4"><a xlink:title=" ">
<polygon fill="none" stroke="#bfbfbf" points="113.5,-124.5 113.5,-154.5 217.5,-154.5 217.5,-124.5 113.5,-124.5"/>
<text text-anchor="start" x="121.5" y="-142.5" font-family="Helvetica,sans-Serif" font-size="10.00">std::basic_string&lt;</text>
<text text-anchor="middle" x="165.5" y="-131.5" font-family="Helvetica,sans-Serif" font-size="10.00"> Char &gt;</text>
</a>
</g>
</g>
<!-- Node4&#45;&gt;Node3 -->
<g id="edge3" class="edge">
<title>Node4&#45;&gt;Node3</title>
<path fill="none" stroke="midnightblue" d="M165.5,-114.35C165.5,-104.51 165.5,-93.78 165.5,-86.54"/>
<polygon fill="midnightblue" stroke="midnightblue" points="162,-114.47 165.5,-124.47 169,-114.47 162,-114.47"/>
</g>
<!-- Node5 -->
<g id="node5" class="node">
<title>Node5</title>
<g id="a_node5"><a xlink:href="classg4db_1_1ElementXsecCache.html" target="_top" xlink:title="The cache of already computed cross sections.">
<polygon fill="none" stroke="black" points="216.5,-67.5 216.5,-86.5 356.5,-86.5 356.5,-67.5 216.5,-67.5"/>
<text text-anchor="middle" x="286.5" y="-74.5" font-family="Helvetica,sans-Serif" font-size="10.00">g4db::ElementXsecCache</text>
</a>
</g>
</g>
<!-- Node5&#45;&gt;Node1 -->
<g id="edge4" class="edge">
<title>Node5&#45;&gt;Node1</title>
<path fill="none" stroke="#9a32cd" stroke-dasharray="5,2" d="M274.71,-59.12C268.8,-51.73 261.07,-43.5 252.5,-38 239.46,-29.62 223.65,-23.7 209.11,-19.59"/>
<polygon fill="#9a32cd" stroke="#9a32cd" points="271.97,-61.3 280.77,-67.21 277.58,-57.1 271.97,-61.3"/>
<text text-anchor="middle" x="320" y="-41" font-family="Helvetica,sans-Serif" font-size="10.00"> element_xsec_cache_</text>
</g>
</g>
</svg>
