<?xml version="1.0" encoding="UTF-8" standalone="no"?>
<!DOCTYPE svg PUBLIC "-//W3C//DTD SVG 1.1//EN"
 "http://www.w3.org/Graphics/SVG/1.1/DTD/svg11.dtd">
<!-- Generated by graphviz version 2.43.0 (0)
 -->
<!-- Title: PersistDarkBremProducts Pages: 1 -->
<svg width="243pt" height="345pt"
 viewBox="0.00 0.00 242.50 345.00" xmlns="http://www.w3.org/2000/svg" xmlns:xlink="http://www.w3.org/1999/xlink">
<g id="graph0" class="graph" transform="scale(1 1) rotate(0) translate(4 341)">
<title>PersistDarkBremProducts</title>
<!-- Node1 -->
<g id="node1" class="node">
<title>Node1</title>
<g id="a_node1"><a xlink:title="event action used to store the OutgoingKinematics if a dark brem occurred">
<polygon fill="#bfbfbf" stroke="black" points="1,-0.5 1,-19.5 142,-19.5 142,-0.5 1,-0.5"/>
<text text-anchor="middle" x="71.5" y="-7.5" font-family="Helvetica,sans-Serif" font-size="10.00">PersistDarkBremProducts</text>
</a>
</g>
</g>
<!-- Node2 -->
<g id="node2" class="node">
<title>Node2</title>
<g id="a_node2"><a xlink:title=" ">
<polygon fill="none" stroke="#bfbfbf" points="0,-67.5 0,-86.5 111,-86.5 111,-67.5 0,-67.5"/>
<text text-anchor="middle" x="55.5" y="-74.5" font-family="Helvetica,sans-Serif" font-size="10.00">G4UserEventAction</text>
</a>
</g>
</g>
<!-- Node2&#45;&gt;Node1 -->
<g id="edge1" class="edge">
<title>Node2&#45;&gt;Node1</title>
<path fill="none" stroke="midnightblue" d="M60.07,-57.41C63.13,-44.99 67.02,-29.22 69.38,-19.63"/>
<polygon fill="midnightblue" stroke="midnightblue" points="56.65,-56.69 57.66,-67.23 63.45,-58.36 56.65,-56.69"/>
</g>
<!-- Node3 -->
<g id="node3" class="node">
<title>Node3</title>
<g id="a_node3"><a xlink:title="STL class.">
<polygon fill="none" stroke="#bfbfbf" points="129.5,-67.5 129.5,-86.5 211.5,-86.5 211.5,-67.5 129.5,-67.5"/>
<text text-anchor="middle" x="170.5" y="-74.5" font-family="Helvetica,sans-Serif" font-size="10.00">std::ofstream</text>
</a>
</g>
</g>
<!-- Node3&#45;&gt;Node1 -->
<g id="edge2" class="edge">
<title>Node3&#45;&gt;Node1</title>
<path fill="none" stroke="#9a32cd" stroke-dasharray="5,2" d="M148.56,-61.59C128.97,-48.74 100.94,-30.33 84.64,-19.63"/>
<polygon fill="#9a32cd" stroke="#9a32cd" points="146.87,-64.67 157.15,-67.23 150.71,-58.82 146.87,-64.67"/>
<text text-anchor="middle" x="139" y="-41" font-family="Helvetica,sans-Serif" font-size="10.00"> out_</text>
</g>
<!-- Node4 -->
<g id="node4" class="node">
<title>Node4</title>
<g id="a_node4"><a xlink:title="STL class.">
<polygon fill="none" stroke="#bfbfbf" points="114,-124.5 114,-154.5 227,-154.5 227,-124.5 114,-124.5"/>
<text text-anchor="start" x="122" y="-142.5" font-family="Helvetica,sans-Serif" font-size="10.00">std::basic_ofstream</text>
<text text-anchor="middle" x="170.5" y="-131.5" font-family="Helvetica,sans-Serif" font-size="10.00">&lt; char &gt;</text>
</a>
</g>
</g>
<!-- Node4&#45;&gt;Node3 -->
<g id="edge3" class="edge">
<title>Node4&#45;&gt;Node3</title>
<path fill="none" stroke="midnightblue" d="M170.5,-114.35C170.5,-104.51 170.5,-93.78 170.5,-86.54"/>
<polygon fill="midnightblue" stroke="midnightblue" points="167,-114.47 170.5,-124.47 174,-114.47 167,-114.47"/>
</g>
<!-- Node5 -->
<g id="node5" class="node">
<title>Node5</title>
<g id="a_node5"><a xlink:title="STL class.">
<polygon fill="none" stroke="#bfbfbf" points="116,-192.5 116,-222.5 225,-222.5 225,-192.5 116,-192.5"/>
<text text-anchor="start" x="124" y="-210.5" font-family="Helvetica,sans-Serif" font-size="10.00">std::basic_ostream</text>
<text text-anchor="middle" x="170.5" y="-199.5" font-family="Helvetica,sans-Serif" font-size="10.00">&lt; Char &gt;</text>
</a>
</g>
</g>
<!-- Node5&#45;&gt;Node4 -->
<g id="edge4" class="edge">
<title>Node5&#45;&gt;Node4</title>
<path fill="none" stroke="midnightblue" d="M170.5,-182.03C170.5,-172.86 170.5,-162.74 170.5,-154.79"/>
<polygon fill="midnightblue" stroke="midnightblue" points="167,-182.18 170.5,-192.18 174,-182.18 167,-182.18"/>
</g>
<!-- Node6 -->
<g id="node6" class="node">
<title>Node6</title>
<g id="a_node6"><a xlink:title="STL class.">
<polygon fill="none" stroke="#bfbfbf" points="106.5,-260.5 106.5,-279.5 234.5,-279.5 234.5,-260.5 106.5,-260.5"/>
<text text-anchor="middle" x="170.5" y="-267.5" font-family="Helvetica,sans-Serif" font-size="10.00">std::basic_ios&lt; Char &gt;</text>
</a>
</g>
</g>
<!-- Node6&#45;&gt;Node5 -->
<g id="edge5" class="edge">
<title>Node6&#45;&gt;Node5</title>
<path fill="none" stroke="midnightblue" d="M170.5,-250.22C170.5,-241.36 170.5,-230.96 170.5,-222.76"/>
<polygon fill="midnightblue" stroke="midnightblue" points="167,-250.33 170.5,-260.33 174,-250.33 167,-250.33"/>
</g>
<!-- Node7 -->
<g id="node7" class="node">
<title>Node7</title>
<g id="a_node7"><a xlink:title="STL class.">
<polygon fill="none" stroke="#bfbfbf" points="130.5,-317.5 130.5,-336.5 210.5,-336.5 210.5,-317.5 130.5,-317.5"/>
<text text-anchor="middle" x="170.5" y="-324.5" font-family="Helvetica,sans-Serif" font-size="10.00">std::ios_base</text>
</a>
</g>
</g>
<!-- Node7&#45;&gt;Node6 -->
<g id="edge6" class="edge">
<title>Node7&#45;&gt;Node6</title>
<path fill="none" stroke="midnightblue" d="M170.5,-307.12C170.5,-297.82 170.5,-287.06 170.5,-279.71"/>
<polygon fill="midnightblue" stroke="midnightblue" points="167,-307.41 170.5,-317.41 174,-307.41 167,-307.41"/>
</g>
</g>
</svg>
