<?xml version="1.0" encoding="UTF-8" standalone="no"?>
<!DOCTYPE svg PUBLIC "-//W3C//DTD SVG 1.1//EN"
 "http://www.w3.org/Graphics/SVG/1.1/DTD/svg11.dtd">
<!-- Generated by graphviz version 2.43.0 (0)
 -->
<!-- Title: g4db::ElementXsecCache Pages: 1 -->
<svg width="312pt" height="106pt"
 viewBox="0.00 0.00 312.00 106.00" xmlns="http://www.w3.org/2000/svg" xmlns:xlink="http://www.w3.org/1999/xlink">
<g id="graph0" class="graph" transform="scale(1 1) rotate(0) translate(4 102)">
<title>g4db::ElementXsecCache</title>
<!-- Node1 -->
<g id="node1" class="node">
<title>Node1</title>
<g id="a_node1"><a xlink:title="The cache of already computed cross sections.">
<polygon fill="#bfbfbf" stroke="black" points="90.5,-0.5 90.5,-19.5 230.5,-19.5 230.5,-0.5 90.5,-0.5"/>
<text text-anchor="middle" x="160.5" y="-7.5" font-family="Helvetica,sans-Serif" font-size="10.00">g4db::ElementXsecCache</text>
</a>
</g>
</g>
<!-- Node2 -->
<g id="node2" class="node">
<title>Node2</title>
<g id="a_node2"><a xlink:title=" ">
<polygon fill="none" stroke="#bfbfbf" points="0,-73 0,-92 161,-92 161,-73 0,-73"/>
<text text-anchor="middle" x="80.5" y="-80" font-family="Helvetica,sans-Serif" font-size="10.00">std::map&lt; key_t, G4double &gt;</text>
</a>
</g>
</g>
<!-- Node2&#45;&gt;Node1 -->
<g id="edge1" class="edge">
<title>Node2&#45;&gt;Node1</title>
<path fill="none" stroke="#9a32cd" stroke-dasharray="5,2" d="M97.99,-66.08C114.12,-51.87 137.49,-31.27 150.61,-19.72"/>
<polygon fill="#9a32cd" stroke="#9a32cd" points="95.5,-63.62 90.31,-72.86 100.13,-68.87 95.5,-63.62"/>
<text text-anchor="middle" x="157.5" y="-41" font-family="Helvetica,sans-Serif" font-size="10.00"> the_cache_</text>
</g>
<!-- Node3 -->
<g id="node3" class="node">
<title>Node3</title>
<g id="a_node3"><a xlink:title=" ">
<polygon fill="none" stroke="#bfbfbf" points="179,-67.5 179,-97.5 304,-97.5 304,-67.5 179,-67.5"/>
<text text-anchor="start" x="187" y="-85.5" font-family="Helvetica,sans-Serif" font-size="10.00">std::shared_ptr&lt; g4db</text>
<text text-anchor="middle" x="241.5" y="-74.5" font-family="Helvetica,sans-Serif" font-size="10.00">::PrototypeModel &gt;</text>
</a>
</g>
</g>
<!-- Node3&#45;&gt;Node1 -->
<g id="edge2" class="edge">
<title>Node3&#45;&gt;Node1</title>
<path fill="none" stroke="#9a32cd" stroke-dasharray="5,2" d="M217.38,-60.51C201.82,-46.96 182.37,-30.03 170.72,-19.89"/>
<polygon fill="#9a32cd" stroke="#9a32cd" points="215.27,-63.31 225.11,-67.23 219.86,-58.03 215.27,-63.31"/>
<text text-anchor="middle" x="222.5" y="-41" font-family="Helvetica,sans-Serif" font-size="10.00"> model_</text>
</g>
</g>
</svg>
