<?xml version="1.0" encoding="UTF-8" standalone="no"?>
<!DOCTYPE svg PUBLIC "-//W3C//DTD SVG 1.1//EN"
 "http://www.w3.org/Graphics/SVG/1.1/DTD/svg11.dtd">
<!-- Generated by graphviz version 2.43.0 (0)
 -->
<!-- Title: include/G4DarkBreM/G4APrime.h Pages: 1 -->
<svg width="786pt" height="95pt"
 viewBox="0.00 0.00 785.50 95.00" xmlns="http://www.w3.org/2000/svg" xmlns:xlink="http://www.w3.org/1999/xlink">
<g id="graph0" class="graph" transform="scale(1 1) rotate(0) translate(4 91)">
<title>include/G4DarkBreM/G4APrime.h</title>
<!-- Node1 -->
<g id="node1" class="node">
<title>Node1</title>
<g id="a_node1"><a xlink:title="Class creating the A&#39; particle in Geant.">
<polygon fill="#bfbfbf" stroke="black" points="427.5,-56.5 427.5,-86.5 544.5,-86.5 544.5,-56.5 427.5,-56.5"/>
<text text-anchor="start" x="435.5" y="-74.5" font-family="Helvetica,sans-Serif" font-size="10.00">include/G4DarkBreM</text>
<text text-anchor="middle" x="486" y="-63.5" font-family="Helvetica,sans-Serif" font-size="10.00">/G4APrime.h</text>
</a>
</g>
</g>
<!-- Node2 -->
<g id="node2" class="node">
<title>Node2</title>
<g id="a_node2"><a xlink:href="G4APrime_8cxx.html" target="_top" xlink:title="Class creating the A&#39; particle in Geant.">
<polygon fill="none" stroke="black" points="0,-0.5 0,-19.5 168,-19.5 168,-0.5 0,-0.5"/>
<text text-anchor="middle" x="84" y="-7.5" font-family="Helvetica,sans-Serif" font-size="10.00">src/G4DarkBreM/G4APrime.cxx</text>
</a>
</g>
</g>
<!-- Node1&#45;&gt;Node2 -->
<g id="edge1" class="edge">
<title>Node1&#45;&gt;Node2</title>
<path fill="none" stroke="midnightblue" d="M416.94,-60.28C339.26,-48.78 214.45,-30.31 141.74,-19.55"/>
<polygon fill="midnightblue" stroke="midnightblue" points="416.71,-63.78 427.12,-61.78 417.74,-56.86 416.71,-63.78"/>
</g>
<!-- Node3 -->
<g id="node3" class="node">
<title>Node3</title>
<g id="a_node3"><a xlink:href="G4DarkBremsstrahlung_8cxx.html" target="_top" xlink:title="Class providing the Dark Bremsstrahlung process class.">
<polygon fill="none" stroke="black" points="185.5,-0.5 185.5,-19.5 418.5,-19.5 418.5,-0.5 185.5,-0.5"/>
<text text-anchor="middle" x="302" y="-7.5" font-family="Helvetica,sans-Serif" font-size="10.00">src/G4DarkBreM/G4DarkBremsstrahlung.cxx</text>
</a>
</g>
</g>
<!-- Node1&#45;&gt;Node3 -->
<g id="edge2" class="edge">
<title>Node1&#45;&gt;Node3</title>
<path fill="none" stroke="midnightblue" d="M432.56,-53.22C398.4,-42.17 355.59,-28.33 328.51,-19.57"/>
<polygon fill="midnightblue" stroke="midnightblue" points="431.8,-56.65 442.39,-56.4 433.96,-49.99 431.8,-56.65"/>
</g>
<!-- Node4 -->
<g id="node4" class="node">
<title>Node4</title>
<g id="a_node4"><a xlink:href="scample_8cxx.html" target="_top" xlink:title="definition of g4db&#45;scample executable">
<polygon fill="none" stroke="black" points="436.5,-0.5 436.5,-19.5 535.5,-19.5 535.5,-0.5 436.5,-0.5"/>
<text text-anchor="middle" x="486" y="-7.5" font-family="Helvetica,sans-Serif" font-size="10.00">app/scample.cxx</text>
</a>
</g>
</g>
<!-- Node1&#45;&gt;Node4 -->
<g id="edge3" class="edge">
<title>Node1&#45;&gt;Node4</title>
<path fill="none" stroke="midnightblue" d="M486,-46.29C486,-36.86 486,-26.65 486,-19.66"/>
<polygon fill="midnightblue" stroke="midnightblue" points="482.5,-46.4 486,-56.4 489.5,-46.4 482.5,-46.4"/>
</g>
<!-- Node5 -->
<g id="node5" class="node">
<title>Node5</title>
<g id="a_node5"><a xlink:href="simulate_8cxx.html" target="_top" xlink:title="definition of g4db&#45;simulate executable">
<polygon fill="none" stroke="black" points="553.5,-0.5 553.5,-19.5 654.5,-19.5 654.5,-0.5 553.5,-0.5"/>
<text text-anchor="middle" x="604" y="-7.5" font-family="Helvetica,sans-Serif" font-size="10.00">app/simulate.cxx</text>
</a>
</g>
</g>
<!-- Node1&#45;&gt;Node5 -->
<g id="edge4" class="edge">
<title>Node1&#45;&gt;Node5</title>
<path fill="none" stroke="midnightblue" d="M523.09,-51.8C544.42,-41.04 570.19,-28.05 586.83,-19.66"/>
<polygon fill="midnightblue" stroke="midnightblue" points="521.32,-48.77 513.96,-56.4 524.47,-55.02 521.32,-48.77"/>
</g>
<!-- Node6 -->
<g id="node6" class="node">
<title>Node6</title>
<g id="a_node6"><a xlink:href="xsec__calc_8cxx.html" target="_top" xlink:title="definition of g4db&#45;xsec&#45;calc executable">
<polygon fill="none" stroke="black" points="672.5,-0.5 672.5,-19.5 777.5,-19.5 777.5,-0.5 672.5,-0.5"/>
<text text-anchor="middle" x="725" y="-7.5" font-family="Helvetica,sans-Serif" font-size="10.00">app/xsec_calc.cxx</text>
</a>
</g>
</g>
<!-- Node1&#45;&gt;Node6 -->
<g id="edge5" class="edge">
<title>Node1&#45;&gt;Node6</title>
<path fill="none" stroke="midnightblue" d="M552.31,-53.99C597.26,-42.8 654.84,-28.47 690.83,-19.51"/>
<polygon fill="midnightblue" stroke="midnightblue" points="551.2,-50.66 542.34,-56.47 552.89,-57.46 551.2,-50.66"/>
</g>
</g>
</svg>
