<?xml version="1.0" encoding="UTF-8" standalone="no"?>
<!DOCTYPE svg PUBLIC "-//W3C//DTD SVG 1.1//EN"
 "http://www.w3.org/Graphics/SVG/1.1/DTD/svg11.dtd">
<!-- Generated by graphviz version 2.43.0 (0)
 -->
<!-- Title: include/G4DarkBreM/G4APrime.h Pages: 1 -->
<svg width="274pt" height="95pt"
 viewBox="0.00 0.00 273.50 95.00" xmlns="http://www.w3.org/2000/svg" xmlns:xlink="http://www.w3.org/1999/xlink">
<g id="graph0" class="graph" transform="scale(1 1) rotate(0) translate(4 91)">
<title>include/G4DarkBreM/G4APrime.h</title>
<!-- Node1 -->
<g id="node1" class="node">
<title>Node1</title>
<g id="a_node1"><a xlink:title="Class creating the A&#39; particle in Geant.">
<polygon fill="#bfbfbf" stroke="black" points="76.5,-56.5 76.5,-86.5 193.5,-86.5 193.5,-56.5 76.5,-56.5"/>
<text text-anchor="start" x="84.5" y="-74.5" font-family="Helvetica,sans-Serif" font-size="10.00">include/G4DarkBreM</text>
<text text-anchor="middle" x="135" y="-63.5" font-family="Helvetica,sans-Serif" font-size="10.00">/G4APrime.h</text>
</a>
</g>
</g>
<!-- Node2 -->
<g id="node2" class="node">
<title>Node2</title>
<g id="a_node2"><a xlink:title=" ">
<polygon fill="none" stroke="#bfbfbf" points="0,-0.5 0,-19.5 128,-19.5 128,-0.5 0,-0.5"/>
<text text-anchor="middle" x="64" y="-7.5" font-family="Helvetica,sans-Serif" font-size="10.00">G4ParticleDefinition.hh</text>
</a>
</g>
</g>
<!-- Node1&#45;&gt;Node2 -->
<g id="edge1" class="edge">
<title>Node1&#45;&gt;Node2</title>
<path fill="none" stroke="midnightblue" d="M118.17,-56.4C107.33,-47.31 93.22,-35.49 82.13,-26.19"/>
<polygon fill="midnightblue" stroke="midnightblue" points="84.24,-23.4 74.33,-19.66 79.75,-28.76 84.24,-23.4"/>
</g>
<!-- Node3 -->
<g id="node3" class="node">
<title>Node3</title>
<g id="a_node3"><a xlink:title=" ">
<polygon fill="none" stroke="#bfbfbf" points="146.5,-0.5 146.5,-19.5 265.5,-19.5 265.5,-0.5 146.5,-0.5"/>
<text text-anchor="middle" x="206" y="-7.5" font-family="Helvetica,sans-Serif" font-size="10.00">G4SystemOfUnits.hh</text>
</a>
</g>
</g>
<!-- Node1&#45;&gt;Node3 -->
<g id="edge2" class="edge">
<title>Node1&#45;&gt;Node3</title>
<path fill="none" stroke="midnightblue" d="M151.83,-56.4C162.67,-47.31 176.78,-35.49 187.87,-26.19"/>
<polygon fill="midnightblue" stroke="midnightblue" points="190.25,-28.76 195.67,-19.66 185.76,-23.4 190.25,-28.76"/>
</g>
</g>
</svg>
