<?xml version="1.0" encoding="UTF-8" standalone="no"?>
<!DOCTYPE svg PUBLIC "-//W3C//DTD SVG 1.1//EN"
 "http://www.w3.org/Graphics/SVG/1.1/DTD/svg11.dtd">
<!-- Generated by graphviz version 2.43.0 (0)
 -->
<!-- Title: include/G4DarkBreM/G4DarkBremsstrahlung.h Pages: 1 -->
<svg width="483pt" height="95pt"
 viewBox="0.00 0.00 483.00 95.00" xmlns="http://www.w3.org/2000/svg" xmlns:xlink="http://www.w3.org/1999/xlink">
<g id="graph0" class="graph" transform="scale(1 1) rotate(0) translate(4 91)">
<title>include/G4DarkBreM/G4DarkBremsstrahlung.h</title>
<!-- Node1 -->
<g id="node1" class="node">
<title>Node1</title>
<g id="a_node1"><a xlink:title="Class providing the Dark Bremsstrahlung process class.">
<polygon fill="#bfbfbf" stroke="black" points="230,-56.5 230,-86.5 373,-86.5 373,-56.5 230,-56.5"/>
<text text-anchor="start" x="238" y="-74.5" font-family="Helvetica,sans-Serif" font-size="10.00">include/G4DarkBreM</text>
<text text-anchor="middle" x="301.5" y="-63.5" font-family="Helvetica,sans-Serif" font-size="10.00">/G4DarkBremsstrahlung.h</text>
</a>
</g>
</g>
<!-- Node2 -->
<g id="node2" class="node">
<title>Node2</title>
<g id="a_node2"><a xlink:href="G4DarkBremsstrahlung_8cxx.html" target="_top" xlink:title="Class providing the Dark Bremsstrahlung process class.">
<polygon fill="none" stroke="black" points="0,-0.5 0,-19.5 233,-19.5 233,-0.5 0,-0.5"/>
<text text-anchor="middle" x="116.5" y="-7.5" font-family="Helvetica,sans-Serif" font-size="10.00">src/G4DarkBreM/G4DarkBremsstrahlung.cxx</text>
</a>
</g>
</g>
<!-- Node1&#45;&gt;Node2 -->
<g id="edge1" class="edge">
<title>Node1&#45;&gt;Node2</title>
<path fill="none" stroke="midnightblue" d="M247.77,-53.22C213.42,-42.17 170.38,-28.33 143.15,-19.57"/>
<polygon fill="midnightblue" stroke="midnightblue" points="247.07,-56.67 257.66,-56.4 249.21,-50.01 247.07,-56.67"/>
</g>
<!-- Node3 -->
<g id="node3" class="node">
<title>Node3</title>
<g id="a_node3"><a xlink:href="simulate_8cxx.html" target="_top" xlink:title="definition of g4db&#45;simulate executable">
<polygon fill="none" stroke="black" points="251,-0.5 251,-19.5 352,-19.5 352,-0.5 251,-0.5"/>
<text text-anchor="middle" x="301.5" y="-7.5" font-family="Helvetica,sans-Serif" font-size="10.00">app/simulate.cxx</text>
</a>
</g>
</g>
<!-- Node1&#45;&gt;Node3 -->
<g id="edge2" class="edge">
<title>Node1&#45;&gt;Node3</title>
<path fill="none" stroke="midnightblue" d="M301.5,-46.29C301.5,-36.86 301.5,-26.65 301.5,-19.66"/>
<polygon fill="midnightblue" stroke="midnightblue" points="298,-46.4 301.5,-56.4 305,-46.4 298,-46.4"/>
</g>
<!-- Node4 -->
<g id="node4" class="node">
<title>Node4</title>
<g id="a_node4"><a xlink:href="xsec__calc_8cxx.html" target="_top" xlink:title="definition of g4db&#45;xsec&#45;calc executable">
<polygon fill="none" stroke="black" points="370,-0.5 370,-19.5 475,-19.5 475,-0.5 370,-0.5"/>
<text text-anchor="middle" x="422.5" y="-7.5" font-family="Helvetica,sans-Serif" font-size="10.00">app/xsec_calc.cxx</text>
</a>
</g>
</g>
<!-- Node1&#45;&gt;Node4 -->
<g id="edge3" class="edge">
<title>Node1&#45;&gt;Node4</title>
<path fill="none" stroke="midnightblue" d="M339.24,-51.94C361.17,-41.16 387.76,-28.08 404.89,-19.66"/>
<polygon fill="midnightblue" stroke="midnightblue" points="337.6,-48.85 330.18,-56.4 340.69,-55.13 337.6,-48.85"/>
</g>
</g>
</svg>
