<?xml version="1.0" encoding="UTF-8" standalone="no"?>
<!DOCTYPE svg PUBLIC "-//W3C//DTD SVG 1.1//EN"
 "http://www.w3.org/Graphics/SVG/1.1/DTD/svg11.dtd">
<!-- Generated by graphviz version 2.43.0 (0)
 -->
<!-- Title: src/G4DarkBreM/G4DarkBremsstrahlung.cxx Pages: 1 -->
<svg width="1328pt" height="252pt"
 viewBox="0.00 0.00 1327.50 252.00" xmlns="http://www.w3.org/2000/svg" xmlns:xlink="http://www.w3.org/1999/xlink">
<g id="graph0" class="graph" transform="scale(1 1) rotate(0) translate(4 248)">
<title>src/G4DarkBreM/G4DarkBremsstrahlung.cxx</title>
<!-- Node1 -->
<g id="node1" class="node">
<title>Node1</title>
<g id="a_node1"><a xlink:title="Class providing the Dark Bremsstrahlung process class.">
<polygon fill="#bfbfbf" stroke="black" points="552.5,-224.5 552.5,-243.5 785.5,-243.5 785.5,-224.5 552.5,-224.5"/>
<text text-anchor="middle" x="669" y="-231.5" font-family="Helvetica,sans-Serif" font-size="10.00">src/G4DarkBreM/G4DarkBremsstrahlung.cxx</text>
</a>
</g>
</g>
<!-- Node2 -->
<g id="node2" class="node">
<title>Node2</title>
<g id="a_node2"><a xlink:href="G4DarkBremsstrahlung_8h.html" target="_top" xlink:title="Class providing the Dark Bremsstrahlung process class.">
<polygon fill="none" stroke="black" points="55.5,-168.5 55.5,-187.5 260.5,-187.5 260.5,-168.5 55.5,-168.5"/>
<text text-anchor="middle" x="158" y="-175.5" font-family="Helvetica,sans-Serif" font-size="10.00">G4DarkBreM/G4DarkBremsstrahlung.h</text>
</a>
</g>
</g>
<!-- Node1&#45;&gt;Node2 -->
<g id="edge1" class="edge">
<title>Node1&#45;&gt;Node2</title>
<path fill="none" stroke="midnightblue" d="M588.31,-224.47C495.96,-214.71 345.06,-198.77 248.71,-188.59"/>
<polygon fill="midnightblue" stroke="midnightblue" points="249,-185.1 238.69,-187.53 248.26,-192.06 249,-185.1"/>
</g>
<!-- Node10 -->
<g id="node10" class="node">
<title>Node10</title>
<g id="a_node10"><a xlink:title=" ">
<polygon fill="none" stroke="#bfbfbf" points="278.5,-168.5 278.5,-187.5 363.5,-187.5 363.5,-168.5 278.5,-168.5"/>
<text text-anchor="middle" x="321" y="-175.5" font-family="Helvetica,sans-Serif" font-size="10.00">G4Electron.hh</text>
</a>
</g>
</g>
<!-- Node1&#45;&gt;Node10 -->
<g id="edge10" class="edge">
<title>Node1&#45;&gt;Node10</title>
<path fill="none" stroke="midnightblue" d="M610.05,-224.5C552.24,-216.06 461.33,-202.54 373.43,-188.21"/>
<polygon fill="midnightblue" stroke="midnightblue" points="374,-184.75 363.56,-186.59 372.87,-191.66 374,-184.75"/>
</g>
<!-- Node11 -->
<g id="node11" class="node">
<title>Node11</title>
<g id="a_node11"><a xlink:title=" ">
<polygon fill="none" stroke="#bfbfbf" points="381.5,-168.5 381.5,-187.5 482.5,-187.5 482.5,-168.5 381.5,-168.5"/>
<text text-anchor="middle" x="432" y="-175.5" font-family="Helvetica,sans-Serif" font-size="10.00">G4MuonMinus.hh</text>
</a>
</g>
</g>
<!-- Node1&#45;&gt;Node11 -->
<g id="edge11" class="edge">
<title>Node1&#45;&gt;Node11</title>
<path fill="none" stroke="midnightblue" d="M631.45,-224.44C590.19,-215.04 523.86,-199.93 479.13,-189.74"/>
<polygon fill="midnightblue" stroke="midnightblue" points="479.91,-186.33 469.38,-187.52 478.35,-193.15 479.91,-186.33"/>
</g>
<!-- Node12 -->
<g id="node12" class="node">
<title>Node12</title>
<g id="a_node12"><a xlink:title=" ">
<polygon fill="none" stroke="#bfbfbf" points="501,-168.5 501,-187.5 593,-187.5 593,-168.5 501,-168.5"/>
<text text-anchor="middle" x="547" y="-175.5" font-family="Helvetica,sans-Serif" font-size="10.00">G4MuonPlus.hh</text>
</a>
</g>
</g>
<!-- Node1&#45;&gt;Node12 -->
<g id="edge12" class="edge">
<title>Node1&#45;&gt;Node12</title>
<path fill="none" stroke="midnightblue" d="M649.67,-224.44C629.68,-215.6 598.26,-201.69 575.44,-191.59"/>
<polygon fill="midnightblue" stroke="midnightblue" points="576.8,-188.36 566.24,-187.52 573.97,-194.76 576.8,-188.36"/>
</g>
<!-- Node13 -->
<g id="node13" class="node">
<title>Node13</title>
<g id="a_node13"><a xlink:title=" ">
<polygon fill="none" stroke="#bfbfbf" points="611.5,-168.5 611.5,-187.5 726.5,-187.5 726.5,-168.5 611.5,-168.5"/>
<text text-anchor="middle" x="669" y="-175.5" font-family="Helvetica,sans-Serif" font-size="10.00">G4EventManager.hh</text>
</a>
</g>
</g>
<!-- Node1&#45;&gt;Node13 -->
<g id="edge13" class="edge">
<title>Node1&#45;&gt;Node13</title>
<path fill="none" stroke="midnightblue" d="M669,-224.08C669,-217.01 669,-206.86 669,-197.99"/>
<polygon fill="midnightblue" stroke="midnightblue" points="672.5,-197.75 669,-187.75 665.5,-197.75 672.5,-197.75"/>
</g>
<!-- Node14 -->
<g id="node14" class="node">
<title>Node14</title>
<g id="a_node14"><a xlink:title=" ">
<polygon fill="none" stroke="#bfbfbf" points="745,-168.5 745,-187.5 853,-187.5 853,-168.5 745,-168.5"/>
<text text-anchor="middle" x="799" y="-175.5" font-family="Helvetica,sans-Serif" font-size="10.00">G4ProcessTable.hh</text>
</a>
</g>
</g>
<!-- Node1&#45;&gt;Node14 -->
<g id="edge14" class="edge">
<title>Node1&#45;&gt;Node14</title>
<path fill="none" stroke="midnightblue" d="M689.6,-224.44C710.99,-215.56 744.68,-201.56 769.02,-191.45"/>
<polygon fill="midnightblue" stroke="midnightblue" points="770.61,-194.58 778.5,-187.52 767.92,-188.12 770.61,-194.58"/>
</g>
<!-- Node15 -->
<g id="node15" class="node">
<title>Node15</title>
<g id="a_node15"><a xlink:title=" ">
<polygon fill="none" stroke="#bfbfbf" points="871.5,-168.5 871.5,-187.5 976.5,-187.5 976.5,-168.5 871.5,-168.5"/>
<text text-anchor="middle" x="924" y="-175.5" font-family="Helvetica,sans-Serif" font-size="10.00">G4ProcessType.hh</text>
</a>
</g>
</g>
<!-- Node1&#45;&gt;Node15 -->
<g id="edge15" class="edge">
<title>Node1&#45;&gt;Node15</title>
<path fill="none" stroke="midnightblue" d="M709.41,-224.44C753.98,-215 825.77,-199.8 873.89,-189.61"/>
<polygon fill="midnightblue" stroke="midnightblue" points="874.73,-193.01 883.78,-187.52 873.28,-186.16 874.73,-193.01"/>
</g>
<!-- Node16 -->
<g id="node16" class="node">
<title>Node16</title>
<g id="a_node16"><a xlink:title=" ">
<polygon fill="none" stroke="#bfbfbf" points="995,-168.5 995,-187.5 1101,-187.5 1101,-168.5 995,-168.5"/>
<text text-anchor="middle" x="1048" y="-175.5" font-family="Helvetica,sans-Serif" font-size="10.00">G4RunManager.hh</text>
</a>
</g>
</g>
<!-- Node1&#45;&gt;Node16 -->
<g id="edge16" class="edge">
<title>Node1&#45;&gt;Node16</title>
<path fill="none" stroke="midnightblue" d="M728.99,-224.46C790.38,-215.73 888.84,-201.71 984.57,-188.06"/>
<polygon fill="midnightblue" stroke="midnightblue" points="985.32,-191.49 994.72,-186.61 984.33,-184.56 985.32,-191.49"/>
</g>
<!-- Node17 -->
<g id="node17" class="node">
<title>Node17</title>
<g id="a_node17"><a xlink:href="G4APrime_8h.html" target="_top" xlink:title="Class creating the A&#39; particle in Geant.">
<polygon fill="none" stroke="black" points="1119,-168.5 1119,-187.5 1259,-187.5 1259,-168.5 1119,-168.5"/>
<text text-anchor="middle" x="1189" y="-175.5" font-family="Helvetica,sans-Serif" font-size="10.00">G4DarkBreM/G4APrime.h</text>
</a>
</g>
</g>
<!-- Node1&#45;&gt;Node17 -->
<g id="edge17" class="edge">
<title>Node1&#45;&gt;Node17</title>
<path fill="none" stroke="midnightblue" d="M755.64,-224.46C842.33,-215.85 979.8,-202.01 1108.74,-188.13"/>
<polygon fill="midnightblue" stroke="midnightblue" points="1109.23,-191.59 1118.79,-187.04 1108.48,-184.63 1109.23,-191.59"/>
</g>
<!-- Node3 -->
<g id="node3" class="node">
<title>Node3</title>
<g id="a_node3"><a xlink:title=" ">
<polygon fill="none" stroke="#bfbfbf" points="0,-112.5 0,-131.5 130,-131.5 130,-112.5 0,-112.5"/>
<text text-anchor="middle" x="65" y="-119.5" font-family="Helvetica,sans-Serif" font-size="10.00">G4VDiscreteProcess.hh</text>
</a>
</g>
</g>
<!-- Node2&#45;&gt;Node3 -->
<g id="edge2" class="edge">
<title>Node2&#45;&gt;Node3</title>
<path fill="none" stroke="midnightblue" d="M143.06,-168.32C128.41,-159.82 105.87,-146.73 88.76,-136.8"/>
<polygon fill="midnightblue" stroke="midnightblue" points="90.31,-133.65 79.9,-131.65 86.8,-139.7 90.31,-133.65"/>
</g>
<!-- Node4 -->
<g id="node4" class="node">
<title>Node4</title>
<g id="a_node4"><a xlink:href="PrototypeModel_8h.html" target="_top" xlink:title="Class providing a prototype model for dark brem.">
<polygon fill="none" stroke="black" points="74,-56.5 74,-75.5 242,-75.5 242,-56.5 74,-56.5"/>
<text text-anchor="middle" x="158" y="-63.5" font-family="Helvetica,sans-Serif" font-size="10.00">G4DarkBreM/PrototypeModel.h</text>
</a>
</g>
</g>
<!-- Node2&#45;&gt;Node4 -->
<g id="edge3" class="edge">
<title>Node2&#45;&gt;Node4</title>
<path fill="none" stroke="midnightblue" d="M158,-168.37C158,-150.62 158,-109.67 158,-85.6"/>
<polygon fill="midnightblue" stroke="midnightblue" points="161.5,-85.59 158,-75.59 154.5,-85.59 161.5,-85.59"/>
</g>
<!-- Node8 -->
<g id="node8" class="node">
<title>Node8</title>
<g id="a_node8"><a xlink:href="ElementXsecCache_8h_source.html" target="_top" xlink:title=" ">
<polygon fill="none" stroke="black" points="185.5,-112.5 185.5,-131.5 370.5,-131.5 370.5,-112.5 185.5,-112.5"/>
<text text-anchor="middle" x="278" y="-119.5" font-family="Helvetica,sans-Serif" font-size="10.00">G4DarkBreM/ElementXsecCache.h</text>
</a>
</g>
</g>
<!-- Node2&#45;&gt;Node8 -->
<g id="edge7" class="edge">
<title>Node2&#45;&gt;Node8</title>
<path fill="none" stroke="midnightblue" d="M177.01,-168.44C196.59,-159.64 227.31,-145.81 249.73,-135.72"/>
<polygon fill="midnightblue" stroke="midnightblue" points="251.39,-138.81 259.07,-131.52 248.52,-132.43 251.39,-138.81"/>
</g>
<!-- Node5 -->
<g id="node5" class="node">
<title>Node5</title>
<g id="a_node5"><a xlink:title=" ">
<polygon fill="none" stroke="#bfbfbf" points="35.5,-0.5 35.5,-19.5 106.5,-19.5 106.5,-0.5 35.5,-0.5"/>
<text text-anchor="middle" x="71" y="-7.5" font-family="Helvetica,sans-Serif" font-size="10.00">G4Track.hh</text>
</a>
</g>
</g>
<!-- Node4&#45;&gt;Node5 -->
<g id="edge4" class="edge">
<title>Node4&#45;&gt;Node5</title>
<path fill="none" stroke="midnightblue" d="M144.02,-56.32C130.45,-47.9 109.62,-34.97 93.68,-25.07"/>
<polygon fill="midnightblue" stroke="midnightblue" points="95.29,-21.95 84.94,-19.65 91.59,-27.9 95.29,-21.95"/>
</g>
<!-- Node6 -->
<g id="node6" class="node">
<title>Node6</title>
<g id="a_node6"><a xlink:title=" ">
<polygon fill="none" stroke="#bfbfbf" points="124.5,-0.5 124.5,-19.5 191.5,-19.5 191.5,-0.5 124.5,-0.5"/>
<text text-anchor="middle" x="158" y="-7.5" font-family="Helvetica,sans-Serif" font-size="10.00">G4Step.hh</text>
</a>
</g>
</g>
<!-- Node4&#45;&gt;Node6 -->
<g id="edge5" class="edge">
<title>Node4&#45;&gt;Node6</title>
<path fill="none" stroke="midnightblue" d="M158,-56.08C158,-49.01 158,-38.86 158,-29.99"/>
<polygon fill="midnightblue" stroke="midnightblue" points="161.5,-29.75 158,-19.75 154.5,-29.75 161.5,-29.75"/>
</g>
<!-- Node7 -->
<g id="node7" class="node">
<title>Node7</title>
<g id="a_node7"><a xlink:title=" ">
<polygon fill="none" stroke="#bfbfbf" points="210,-0.5 210,-19.5 328,-19.5 328,-0.5 210,-0.5"/>
<text text-anchor="middle" x="269" y="-7.5" font-family="Helvetica,sans-Serif" font-size="10.00">G4ParticleChange.hh</text>
</a>
</g>
</g>
<!-- Node4&#45;&gt;Node7 -->
<g id="edge6" class="edge">
<title>Node4&#45;&gt;Node7</title>
<path fill="none" stroke="midnightblue" d="M175.83,-56.32C193.72,-47.62 221.48,-34.12 242.05,-24.11"/>
<polygon fill="midnightblue" stroke="midnightblue" points="243.75,-27.18 251.21,-19.65 240.69,-20.88 243.75,-27.18"/>
</g>
<!-- Node8&#45;&gt;Node4 -->
<g id="edge9" class="edge">
<title>Node8&#45;&gt;Node4</title>
<path fill="none" stroke="midnightblue" d="M258.99,-112.44C239.41,-103.64 208.69,-89.81 186.27,-79.72"/>
<polygon fill="midnightblue" stroke="midnightblue" points="187.48,-76.43 176.93,-75.52 184.61,-82.81 187.48,-76.43"/>
</g>
<!-- Node9 -->
<g id="node9" class="node">
<title>Node9</title>
<g id="a_node9"><a xlink:title=" ">
<polygon fill="none" stroke="#bfbfbf" points="260,-56.5 260,-75.5 318,-75.5 318,-56.5 260,-56.5"/>
<text text-anchor="middle" x="289" y="-63.5" font-family="Helvetica,sans-Serif" font-size="10.00">memory</text>
</a>
</g>
</g>
<!-- Node8&#45;&gt;Node9 -->
<g id="edge8" class="edge">
<title>Node8&#45;&gt;Node9</title>
<path fill="none" stroke="midnightblue" d="M279.82,-112.08C281.27,-104.93 283.37,-94.64 285.19,-85.69"/>
<polygon fill="midnightblue" stroke="midnightblue" points="288.65,-86.25 287.22,-75.75 281.79,-84.85 288.65,-86.25"/>
</g>
<!-- Node18 -->
<g id="node18" class="node">
<title>Node18</title>
<g id="a_node18"><a xlink:title=" ">
<polygon fill="none" stroke="#bfbfbf" points="1054,-112.5 1054,-131.5 1182,-131.5 1182,-112.5 1054,-112.5"/>
<text text-anchor="middle" x="1118" y="-119.5" font-family="Helvetica,sans-Serif" font-size="10.00">G4ParticleDefinition.hh</text>
</a>
</g>
</g>
<!-- Node17&#45;&gt;Node18 -->
<g id="edge18" class="edge">
<title>Node17&#45;&gt;Node18</title>
<path fill="none" stroke="midnightblue" d="M1177.59,-168.32C1166.89,-160.18 1150.66,-147.84 1137.84,-138.09"/>
<polygon fill="midnightblue" stroke="midnightblue" points="1139.69,-135.1 1129.61,-131.83 1135.46,-140.67 1139.69,-135.1"/>
</g>
<!-- Node19 -->
<g id="node19" class="node">
<title>Node19</title>
<g id="a_node19"><a xlink:title=" ">
<polygon fill="none" stroke="#bfbfbf" points="1200.5,-112.5 1200.5,-131.5 1319.5,-131.5 1319.5,-112.5 1200.5,-112.5"/>
<text text-anchor="middle" x="1260" y="-119.5" font-family="Helvetica,sans-Serif" font-size="10.00">G4SystemOfUnits.hh</text>
</a>
</g>
</g>
<!-- Node17&#45;&gt;Node19 -->
<g id="edge19" class="edge">
<title>Node17&#45;&gt;Node19</title>
<path fill="none" stroke="midnightblue" d="M1200.41,-168.32C1211.11,-160.18 1227.34,-147.84 1240.16,-138.09"/>
<polygon fill="midnightblue" stroke="midnightblue" points="1242.54,-140.67 1248.39,-131.83 1238.31,-135.1 1242.54,-140.67"/>
</g>
</g>
</svg>
