<?xml version="1.0" encoding="UTF-8" standalone="no"?>
<!DOCTYPE svg PUBLIC "-//W3C//DTD SVG 1.1//EN"
 "http://www.w3.org/Graphics/SVG/1.1/DTD/svg11.dtd">
<!-- Generated by graphviz version 2.43.0 (0)
 -->
<!-- Title: include/G4DarkBreM/G4DarkBremsstrahlung.h Pages: 1 -->
<svg width="396pt" height="207pt"
 viewBox="0.00 0.00 396.00 207.00" xmlns="http://www.w3.org/2000/svg" xmlns:xlink="http://www.w3.org/1999/xlink">
<g id="graph0" class="graph" transform="scale(1 1) rotate(0) translate(4 203)">
<title>include/G4DarkBreM/G4DarkBremsstrahlung.h</title>
<!-- Node1 -->
<g id="node1" class="node">
<title>Node1</title>
<g id="a_node1"><a xlink:title="Class providing the Dark Bremsstrahlung process class.">
<polygon fill="#bfbfbf" stroke="black" points="86.5,-168.5 86.5,-198.5 229.5,-198.5 229.5,-168.5 86.5,-168.5"/>
<text text-anchor="start" x="94.5" y="-186.5" font-family="Helvetica,sans-Serif" font-size="10.00">include/G4DarkBreM</text>
<text text-anchor="middle" x="158" y="-175.5" font-family="Helvetica,sans-Serif" font-size="10.00">/G4DarkBremsstrahlung.h</text>
</a>
</g>
</g>
<!-- Node2 -->
<g id="node2" class="node">
<title>Node2</title>
<g id="a_node2"><a xlink:title=" ">
<polygon fill="none" stroke="#bfbfbf" points="0,-112.5 0,-131.5 130,-131.5 130,-112.5 0,-112.5"/>
<text text-anchor="middle" x="65" y="-119.5" font-family="Helvetica,sans-Serif" font-size="10.00">G4VDiscreteProcess.hh</text>
</a>
</g>
</g>
<!-- Node1&#45;&gt;Node2 -->
<g id="edge1" class="edge">
<title>Node1&#45;&gt;Node2</title>
<path fill="none" stroke="midnightblue" d="M135.96,-168.4C121.19,-158.95 101.82,-146.56 87.05,-137.11"/>
<polygon fill="midnightblue" stroke="midnightblue" points="88.84,-134.1 78.53,-131.66 85.07,-140 88.84,-134.1"/>
</g>
<!-- Node3 -->
<g id="node3" class="node">
<title>Node3</title>
<g id="a_node3"><a xlink:href="PrototypeModel_8h.html" target="_top" xlink:title="Class providing a prototype model for dark brem.">
<polygon fill="none" stroke="black" points="134,-56.5 134,-75.5 302,-75.5 302,-56.5 134,-56.5"/>
<text text-anchor="middle" x="218" y="-63.5" font-family="Helvetica,sans-Serif" font-size="10.00">G4DarkBreM/PrototypeModel.h</text>
</a>
</g>
</g>
<!-- Node1&#45;&gt;Node3 -->
<g id="edge2" class="edge">
<title>Node1&#45;&gt;Node3</title>
<path fill="none" stroke="midnightblue" d="M159.81,-168.25C162.15,-153.46 167.14,-130.01 177,-112 183,-101.04 192.2,-90.61 200.37,-82.55"/>
<polygon fill="midnightblue" stroke="midnightblue" points="202.86,-85.02 207.74,-75.62 198.06,-79.92 202.86,-85.02"/>
</g>
<!-- Node7 -->
<g id="node7" class="node">
<title>Node7</title>
<g id="a_node7"><a xlink:href="ElementXsecCache_8h_source.html" target="_top" xlink:title=" ">
<polygon fill="none" stroke="black" points="185.5,-112.5 185.5,-131.5 370.5,-131.5 370.5,-112.5 185.5,-112.5"/>
<text text-anchor="middle" x="278" y="-119.5" font-family="Helvetica,sans-Serif" font-size="10.00">G4DarkBreM/ElementXsecCache.h</text>
</a>
</g>
</g>
<!-- Node1&#45;&gt;Node7 -->
<g id="edge6" class="edge">
<title>Node1&#45;&gt;Node7</title>
<path fill="none" stroke="midnightblue" d="M186.44,-168.4C206.12,-158.64 232.14,-145.74 251.41,-136.18"/>
<polygon fill="midnightblue" stroke="midnightblue" points="253.13,-139.24 260.54,-131.66 250.02,-132.96 253.13,-139.24"/>
</g>
<!-- Node4 -->
<g id="node4" class="node">
<title>Node4</title>
<g id="a_node4"><a xlink:title=" ">
<polygon fill="none" stroke="#bfbfbf" points="95.5,-0.5 95.5,-19.5 166.5,-19.5 166.5,-0.5 95.5,-0.5"/>
<text text-anchor="middle" x="131" y="-7.5" font-family="Helvetica,sans-Serif" font-size="10.00">G4Track.hh</text>
</a>
</g>
</g>
<!-- Node3&#45;&gt;Node4 -->
<g id="edge3" class="edge">
<title>Node3&#45;&gt;Node4</title>
<path fill="none" stroke="midnightblue" d="M204.02,-56.32C190.45,-47.9 169.62,-34.97 153.68,-25.07"/>
<polygon fill="midnightblue" stroke="midnightblue" points="155.29,-21.95 144.94,-19.65 151.59,-27.9 155.29,-21.95"/>
</g>
<!-- Node5 -->
<g id="node5" class="node">
<title>Node5</title>
<g id="a_node5"><a xlink:title=" ">
<polygon fill="none" stroke="#bfbfbf" points="184.5,-0.5 184.5,-19.5 251.5,-19.5 251.5,-0.5 184.5,-0.5"/>
<text text-anchor="middle" x="218" y="-7.5" font-family="Helvetica,sans-Serif" font-size="10.00">G4Step.hh</text>
</a>
</g>
</g>
<!-- Node3&#45;&gt;Node5 -->
<g id="edge4" class="edge">
<title>Node3&#45;&gt;Node5</title>
<path fill="none" stroke="midnightblue" d="M218,-56.08C218,-49.01 218,-38.86 218,-29.99"/>
<polygon fill="midnightblue" stroke="midnightblue" points="221.5,-29.75 218,-19.75 214.5,-29.75 221.5,-29.75"/>
</g>
<!-- Node6 -->
<g id="node6" class="node">
<title>Node6</title>
<g id="a_node6"><a xlink:title=" ">
<polygon fill="none" stroke="#bfbfbf" points="270,-0.5 270,-19.5 388,-19.5 388,-0.5 270,-0.5"/>
<text text-anchor="middle" x="329" y="-7.5" font-family="Helvetica,sans-Serif" font-size="10.00">G4ParticleChange.hh</text>
</a>
</g>
</g>
<!-- Node3&#45;&gt;Node6 -->
<g id="edge5" class="edge">
<title>Node3&#45;&gt;Node6</title>
<path fill="none" stroke="midnightblue" d="M235.83,-56.32C253.72,-47.62 281.48,-34.12 302.05,-24.11"/>
<polygon fill="midnightblue" stroke="midnightblue" points="303.75,-27.18 311.21,-19.65 300.69,-20.88 303.75,-27.18"/>
</g>
<!-- Node7&#45;&gt;Node3 -->
<g id="edge7" class="edge">
<title>Node7&#45;&gt;Node3</title>
<path fill="none" stroke="midnightblue" d="M268.36,-112.32C259.49,-104.34 246.13,-92.31 235.39,-82.65"/>
<polygon fill="midnightblue" stroke="midnightblue" points="237.59,-79.92 227.82,-75.83 232.91,-85.13 237.59,-79.92"/>
</g>
</g>
</svg>
