<?xml version="1.0" encoding="UTF-8" standalone="no"?>
<!DOCTYPE svg PUBLIC "-//W3C//DTD SVG 1.1//EN"
 "http://www.w3.org/Graphics/SVG/1.1/DTD/svg11.dtd">
<!-- Generated by graphviz version 2.43.0 (0)
 -->
<!-- Title: include/G4DarkBreM/ParseLibrary.h Pages: 1 -->
<svg width="427pt" height="95pt"
 viewBox="0.00 0.00 427.00 95.00" xmlns="http://www.w3.org/2000/svg" xmlns:xlink="http://www.w3.org/1999/xlink">
<g id="graph0" class="graph" transform="scale(1 1) rotate(0) translate(4 91)">
<title>include/G4DarkBreM/ParseLibrary.h</title>
<!-- Node1 -->
<g id="node1" class="node">
<title>Node1</title>
<g id="a_node1"><a xlink:title=" ">
<polygon fill="#bfbfbf" stroke="black" points="83.5,-56.5 83.5,-86.5 200.5,-86.5 200.5,-56.5 83.5,-56.5"/>
<text text-anchor="start" x="91.5" y="-74.5" font-family="Helvetica,sans-Serif" font-size="10.00">include/G4DarkBreM</text>
<text text-anchor="middle" x="142" y="-63.5" font-family="Helvetica,sans-Serif" font-size="10.00">/ParseLibrary.h</text>
</a>
</g>
</g>
<!-- Node2 -->
<g id="node2" class="node">
<title>Node2</title>
<g id="a_node2"><a xlink:title=" ">
<polygon fill="none" stroke="#bfbfbf" points="0,-0.5 0,-19.5 44,-19.5 44,-0.5 0,-0.5"/>
<text text-anchor="middle" x="22" y="-7.5" font-family="Helvetica,sans-Serif" font-size="10.00">string</text>
</a>
</g>
</g>
<!-- Node1&#45;&gt;Node2 -->
<g id="edge1" class="edge">
<title>Node1&#45;&gt;Node2</title>
<path fill="none" stroke="midnightblue" d="M113.56,-56.4C93.88,-46.64 67.86,-33.74 48.59,-24.18"/>
<polygon fill="midnightblue" stroke="midnightblue" points="49.98,-20.96 39.46,-19.66 46.87,-27.24 49.98,-20.96"/>
</g>
<!-- Node3 -->
<g id="node3" class="node">
<title>Node3</title>
<g id="a_node3"><a xlink:title=" ">
<polygon fill="none" stroke="#bfbfbf" points="62,-0.5 62,-19.5 100,-19.5 100,-0.5 62,-0.5"/>
<text text-anchor="middle" x="81" y="-7.5" font-family="Helvetica,sans-Serif" font-size="10.00">map</text>
</a>
</g>
</g>
<!-- Node1&#45;&gt;Node3 -->
<g id="edge2" class="edge">
<title>Node1&#45;&gt;Node3</title>
<path fill="none" stroke="midnightblue" d="M127.54,-56.4C118.41,-47.49 106.58,-35.95 97.14,-26.74"/>
<polygon fill="midnightblue" stroke="midnightblue" points="99.48,-24.13 89.88,-19.66 94.59,-29.15 99.48,-24.13"/>
</g>
<!-- Node4 -->
<g id="node4" class="node">
<title>Node4</title>
<g id="a_node4"><a xlink:title=" ">
<polygon fill="none" stroke="#bfbfbf" points="118.5,-0.5 118.5,-19.5 165.5,-19.5 165.5,-0.5 118.5,-0.5"/>
<text text-anchor="middle" x="142" y="-7.5" font-family="Helvetica,sans-Serif" font-size="10.00">vector</text>
</a>
</g>
</g>
<!-- Node1&#45;&gt;Node4 -->
<g id="edge3" class="edge">
<title>Node1&#45;&gt;Node4</title>
<path fill="none" stroke="midnightblue" d="M142,-56.4C142,-48.47 142,-38.46 142,-29.86"/>
<polygon fill="midnightblue" stroke="midnightblue" points="145.5,-29.66 142,-19.66 138.5,-29.66 145.5,-29.66"/>
</g>
<!-- Node5 -->
<g id="node5" class="node">
<title>Node5</title>
<g id="a_node5"><a xlink:title=" ">
<polygon fill="none" stroke="#bfbfbf" points="183.5,-0.5 183.5,-19.5 240.5,-19.5 240.5,-0.5 183.5,-0.5"/>
<text text-anchor="middle" x="212" y="-7.5" font-family="Helvetica,sans-Serif" font-size="10.00">ostream</text>
</a>
</g>
</g>
<!-- Node1&#45;&gt;Node5 -->
<g id="edge4" class="edge">
<title>Node1&#45;&gt;Node5</title>
<path fill="none" stroke="midnightblue" d="M158.59,-56.4C169.29,-47.31 183.19,-35.49 194.13,-26.19"/>
<polygon fill="midnightblue" stroke="midnightblue" points="196.46,-28.8 201.81,-19.66 191.93,-23.47 196.46,-28.8"/>
</g>
<!-- Node6 -->
<g id="node6" class="node">
<title>Node6</title>
<g id="a_node6"><a xlink:title=" ">
<polygon fill="none" stroke="#bfbfbf" points="259,-0.5 259,-19.5 419,-19.5 419,-0.5 259,-0.5"/>
<text text-anchor="middle" x="339" y="-7.5" font-family="Helvetica,sans-Serif" font-size="10.00">CLHEP/Vector/LorentzVector.h</text>
</a>
</g>
</g>
<!-- Node1&#45;&gt;Node6 -->
<g id="edge5" class="edge">
<title>Node1&#45;&gt;Node6</title>
<path fill="none" stroke="midnightblue" d="M188.69,-56.4C222.88,-46.07 268.71,-32.23 300.74,-22.56"/>
<polygon fill="midnightblue" stroke="midnightblue" points="302.06,-25.81 310.62,-19.57 300.04,-19.11 302.06,-25.81"/>
</g>
</g>
</svg>
