<?xml version="1.0" encoding="UTF-8" standalone="no"?>
<!DOCTYPE svg PUBLIC "-//W3C//DTD SVG 1.1//EN"
 "http://www.w3.org/Graphics/SVG/1.1/DTD/svg11.dtd">
<!-- Generated by graphviz version 2.43.0 (0)
 -->
<!-- Title: include/G4DarkBreM/PrototypeModel.h Pages: 1 -->
<svg width="319pt" height="229pt"
 viewBox="0.00 0.00 319.00 229.00" xmlns="http://www.w3.org/2000/svg" xmlns:xlink="http://www.w3.org/1999/xlink">
<g id="graph0" class="graph" transform="scale(1 1) rotate(0) translate(4 225)">
<title>include/G4DarkBreM/PrototypeModel.h</title>
<!-- Node1 -->
<g id="node1" class="node">
<title>Node1</title>
<g id="a_node1"><a xlink:title="Class providing a prototype model for dark brem.">
<polygon fill="#bfbfbf" stroke="black" points="103,-190.5 103,-220.5 220,-220.5 220,-190.5 103,-190.5"/>
<text text-anchor="start" x="111" y="-208.5" font-family="Helvetica,sans-Serif" font-size="10.00">include/G4DarkBreM</text>
<text text-anchor="middle" x="161.5" y="-197.5" font-family="Helvetica,sans-Serif" font-size="10.00">/PrototypeModel.h</text>
</a>
</g>
</g>
<!-- Node2 -->
<g id="node2" class="node">
<title>Node2</title>
<g id="a_node2"><a xlink:href="ElementXsecCache_8h_source.html" target="_top" xlink:title=" ">
<polygon fill="none" stroke="black" points="11.5,-123.5 11.5,-153.5 133.5,-153.5 133.5,-123.5 11.5,-123.5"/>
<text text-anchor="start" x="19.5" y="-141.5" font-family="Helvetica,sans-Serif" font-size="10.00">include/G4DarkBreM</text>
<text text-anchor="middle" x="72.5" y="-130.5" font-family="Helvetica,sans-Serif" font-size="10.00">/ElementXsecCache.h</text>
</a>
</g>
</g>
<!-- Node1&#45;&gt;Node2 -->
<g id="edge1" class="edge">
<title>Node1&#45;&gt;Node2</title>
<path fill="none" stroke="midnightblue" d="M134.05,-184.45C120.36,-174.45 104.13,-162.6 91.77,-153.58"/>
<polygon fill="midnightblue" stroke="midnightblue" points="132.05,-187.32 142.19,-190.4 136.18,-181.67 132.05,-187.32"/>
</g>
<!-- Node3 -->
<g id="node3" class="node">
<title>Node3</title>
<g id="a_node3"><a xlink:href="G4DarkBremsstrahlung_8h.html" target="_top" xlink:title="Class providing the Dark Bremsstrahlung process class.">
<polygon fill="none" stroke="black" points="45,-56.5 45,-86.5 188,-86.5 188,-56.5 45,-56.5"/>
<text text-anchor="start" x="53" y="-74.5" font-family="Helvetica,sans-Serif" font-size="10.00">include/G4DarkBreM</text>
<text text-anchor="middle" x="116.5" y="-63.5" font-family="Helvetica,sans-Serif" font-size="10.00">/G4DarkBremsstrahlung.h</text>
</a>
</g>
</g>
<!-- Node1&#45;&gt;Node3 -->
<g id="edge5" class="edge">
<title>Node1&#45;&gt;Node3</title>
<path fill="none" stroke="midnightblue" d="M157.51,-180.44C154.38,-163.97 149.41,-141.79 142.5,-123 137.8,-110.23 130.62,-96.55 124.99,-86.66"/>
<polygon fill="midnightblue" stroke="midnightblue" points="154.07,-181.13 159.29,-190.35 160.96,-179.89 154.07,-181.13"/>
</g>
<!-- Node5 -->
<g id="node5" class="node">
<title>Node5</title>
<g id="a_node5"><a xlink:href="G4DarkBreMModel_8h_source.html" target="_top" xlink:title=" ">
<polygon fill="none" stroke="black" points="190,-123.5 190,-153.5 311,-153.5 311,-123.5 190,-123.5"/>
<text text-anchor="start" x="198" y="-141.5" font-family="Helvetica,sans-Serif" font-size="10.00">include/G4DarkBreM</text>
<text text-anchor="middle" x="250.5" y="-130.5" font-family="Helvetica,sans-Serif" font-size="10.00">/G4DarkBreMModel.h</text>
</a>
</g>
</g>
<!-- Node1&#45;&gt;Node5 -->
<g id="edge4" class="edge">
<title>Node1&#45;&gt;Node5</title>
<path fill="none" stroke="midnightblue" d="M188.95,-184.45C202.64,-174.45 218.87,-162.6 231.23,-153.58"/>
<polygon fill="midnightblue" stroke="midnightblue" points="186.82,-181.67 180.81,-190.4 190.95,-187.32 186.82,-181.67"/>
</g>
<!-- Node2&#45;&gt;Node3 -->
<g id="edge2" class="edge">
<title>Node2&#45;&gt;Node3</title>
<path fill="none" stroke="midnightblue" d="M87.82,-114.87C94.19,-105.46 101.38,-94.83 106.97,-86.58"/>
<polygon fill="midnightblue" stroke="midnightblue" points="84.75,-113.15 82.05,-123.4 90.55,-117.08 84.75,-113.15"/>
</g>
<!-- Node4 -->
<g id="node4" class="node">
<title>Node4</title>
<g id="a_node4"><a xlink:href="G4DarkBremsstrahlung_8cxx.html" target="_top" xlink:title="Class providing the Dark Bremsstrahlung process class.">
<polygon fill="none" stroke="black" points="0,-0.5 0,-19.5 233,-19.5 233,-0.5 0,-0.5"/>
<text text-anchor="middle" x="116.5" y="-7.5" font-family="Helvetica,sans-Serif" font-size="10.00">src/G4DarkBreM/G4DarkBremsstrahlung.cxx</text>
</a>
</g>
</g>
<!-- Node3&#45;&gt;Node4 -->
<g id="edge3" class="edge">
<title>Node3&#45;&gt;Node4</title>
<path fill="none" stroke="midnightblue" d="M116.5,-46.29C116.5,-36.86 116.5,-26.65 116.5,-19.66"/>
<polygon fill="midnightblue" stroke="midnightblue" points="113,-46.4 116.5,-56.4 120,-46.4 113,-46.4"/>
</g>
</g>
</svg>
