<?xml version="1.0" encoding="UTF-8" standalone="no"?>
<!DOCTYPE svg PUBLIC "-//W3C//DTD SVG 1.1//EN"
 "http://www.w3.org/Graphics/SVG/1.1/DTD/svg11.dtd">
<!-- Generated by graphviz version 2.43.0 (0)
 -->
<!-- Title: include/G4DarkBreM/PrototypeModel.h Pages: 1 -->
<svg width="600pt" height="229pt"
 viewBox="0.00 0.00 600.00 229.00" xmlns="http://www.w3.org/2000/svg" xmlns:xlink="http://www.w3.org/1999/xlink">
<g id="graph0" class="graph" transform="scale(1 1) rotate(0) translate(4 225)">
<title>include/G4DarkBreM/PrototypeModel.h</title>
<!-- Node1 -->
<g id="node1" class="node">
<title>Node1</title>
<g id="a_node1"><a xlink:title="Class providing a prototype model for dark brem.">
<polygon fill="#bfbfbf" stroke="black" points="317,-190.5 317,-220.5 434,-220.5 434,-190.5 317,-190.5"/>
<text text-anchor="start" x="325" y="-208.5" font-family="Helvetica,sans-Serif" font-size="10.00">include/G4DarkBreM</text>
<text text-anchor="middle" x="375.5" y="-197.5" font-family="Helvetica,sans-Serif" font-size="10.00">/PrototypeModel.h</text>
</a>
</g>
</g>
<!-- Node2 -->
<g id="node2" class="node">
<title>Node2</title>
<g id="a_node2"><a xlink:href="ElementXsecCache_8h_source.html" target="_top" xlink:title=" ">
<polygon fill="none" stroke="black" points="225.5,-123.5 225.5,-153.5 347.5,-153.5 347.5,-123.5 225.5,-123.5"/>
<text text-anchor="start" x="233.5" y="-141.5" font-family="Helvetica,sans-Serif" font-size="10.00">include/G4DarkBreM</text>
<text text-anchor="middle" x="286.5" y="-130.5" font-family="Helvetica,sans-Serif" font-size="10.00">/ElementXsecCache.h</text>
</a>
</g>
</g>
<!-- Node1&#45;&gt;Node2 -->
<g id="edge1" class="edge">
<title>Node1&#45;&gt;Node2</title>
<path fill="none" stroke="midnightblue" d="M348.05,-184.45C334.36,-174.45 318.13,-162.6 305.77,-153.58"/>
<polygon fill="midnightblue" stroke="midnightblue" points="346.05,-187.32 356.19,-190.4 350.18,-181.67 346.05,-187.32"/>
</g>
<!-- Node3 -->
<g id="node3" class="node">
<title>Node3</title>
<g id="a_node3"><a xlink:href="G4DarkBremsstrahlung_8h.html" target="_top" xlink:title="Class providing the Dark Bremsstrahlung process class.">
<polygon fill="none" stroke="black" points="215,-56.5 215,-86.5 358,-86.5 358,-56.5 215,-56.5"/>
<text text-anchor="start" x="223" y="-74.5" font-family="Helvetica,sans-Serif" font-size="10.00">include/G4DarkBreM</text>
<text text-anchor="middle" x="286.5" y="-63.5" font-family="Helvetica,sans-Serif" font-size="10.00">/G4DarkBremsstrahlung.h</text>
</a>
</g>
</g>
<!-- Node1&#45;&gt;Node3 -->
<g id="edge10" class="edge">
<title>Node1&#45;&gt;Node3</title>
<path fill="none" stroke="midnightblue" d="M374.29,-179.99C372.42,-162.81 367.8,-139.96 356.5,-123 346.2,-107.53 329.46,-95.2 314.93,-86.6"/>
<polygon fill="midnightblue" stroke="midnightblue" points="370.83,-180.68 375.16,-190.35 377.81,-180.09 370.83,-180.68"/>
</g>
<!-- Node7 -->
<g id="node7" class="node">
<title>Node7</title>
<g id="a_node7"><a xlink:href="G4DarkBreMModel_8h_source.html" target="_top" xlink:title=" ">
<polygon fill="none" stroke="black" points="376,-56.5 376,-86.5 497,-86.5 497,-56.5 376,-56.5"/>
<text text-anchor="start" x="384" y="-74.5" font-family="Helvetica,sans-Serif" font-size="10.00">include/G4DarkBreM</text>
<text text-anchor="middle" x="436.5" y="-63.5" font-family="Helvetica,sans-Serif" font-size="10.00">/G4DarkBreMModel.h</text>
</a>
</g>
</g>
<!-- Node1&#45;&gt;Node7 -->
<g id="edge6" class="edge">
<title>Node1&#45;&gt;Node7</title>
<path fill="none" stroke="midnightblue" d="M386.31,-181.12C398.98,-153.68 419.59,-109.09 430.02,-86.52"/>
<polygon fill="midnightblue" stroke="midnightblue" points="383.05,-179.83 382.03,-190.37 389.4,-182.76 383.05,-179.83"/>
</g>
<!-- Node2&#45;&gt;Node3 -->
<g id="edge2" class="edge">
<title>Node2&#45;&gt;Node3</title>
<path fill="none" stroke="midnightblue" d="M286.5,-113.11C286.5,-104.15 286.5,-94.32 286.5,-86.58"/>
<polygon fill="midnightblue" stroke="midnightblue" points="283,-113.4 286.5,-123.4 290,-113.4 283,-113.4"/>
</g>
<!-- Node4 -->
<g id="node4" class="node">
<title>Node4</title>
<g id="a_node4"><a xlink:href="G4DarkBremsstrahlung_8cxx.html" target="_top" xlink:title="Class providing the Dark Bremsstrahlung process class.">
<polygon fill="none" stroke="black" points="0,-0.5 0,-19.5 233,-19.5 233,-0.5 0,-0.5"/>
<text text-anchor="middle" x="116.5" y="-7.5" font-family="Helvetica,sans-Serif" font-size="10.00">src/G4DarkBreM/G4DarkBremsstrahlung.cxx</text>
</a>
</g>
</g>
<!-- Node3&#45;&gt;Node4 -->
<g id="edge3" class="edge">
<title>Node3&#45;&gt;Node4</title>
<path fill="none" stroke="midnightblue" d="M236.75,-53.09C205.36,-42.1 166.17,-28.39 141.24,-19.66"/>
<polygon fill="midnightblue" stroke="midnightblue" points="235.62,-56.4 246.21,-56.4 237.93,-49.79 235.62,-56.4"/>
</g>
<!-- Node5 -->
<g id="node5" class="node">
<title>Node5</title>
<g id="a_node5"><a xlink:href="simulate_8cxx.html" target="_top" xlink:title="definition of g4db&#45;simulate executable">
<polygon fill="none" stroke="black" points="251,-0.5 251,-19.5 352,-19.5 352,-0.5 251,-0.5"/>
<text text-anchor="middle" x="301.5" y="-7.5" font-family="Helvetica,sans-Serif" font-size="10.00">app/simulate.cxx</text>
</a>
</g>
</g>
<!-- Node3&#45;&gt;Node5 -->
<g id="edge4" class="edge">
<title>Node3&#45;&gt;Node5</title>
<path fill="none" stroke="midnightblue" d="M292.53,-46.59C294.93,-37.08 297.53,-26.73 299.32,-19.66"/>
<polygon fill="midnightblue" stroke="midnightblue" points="289.11,-45.85 290.05,-56.4 295.89,-47.56 289.11,-45.85"/>
</g>
<!-- Node6 -->
<g id="node6" class="node">
<title>Node6</title>
<g id="a_node6"><a xlink:href="xsec__calc_8cxx.html" target="_top" xlink:title="definition of g4db&#45;xsec&#45;calc executable">
<polygon fill="none" stroke="black" points="370,-0.5 370,-19.5 475,-19.5 475,-0.5 370,-0.5"/>
<text text-anchor="middle" x="422.5" y="-7.5" font-family="Helvetica,sans-Serif" font-size="10.00">app/xsec_calc.cxx</text>
</a>
</g>
</g>
<!-- Node3&#45;&gt;Node6 -->
<g id="edge5" class="edge">
<title>Node3&#45;&gt;Node6</title>
<path fill="none" stroke="midnightblue" d="M327.94,-52.37C352.76,-41.51 383.19,-28.2 402.71,-19.66"/>
<polygon fill="midnightblue" stroke="midnightblue" points="326.49,-49.18 318.73,-56.4 329.29,-55.6 326.49,-49.18"/>
</g>
<!-- Node7&#45;&gt;Node5 -->
<g id="edge8" class="edge">
<title>Node7&#45;&gt;Node5</title>
<path fill="none" stroke="midnightblue" d="M395.04,-52.23C370.46,-41.39 340.43,-28.16 321.14,-19.66"/>
<polygon fill="midnightblue" stroke="midnightblue" points="393.94,-55.57 404.51,-56.4 396.77,-49.16 393.94,-55.57"/>
</g>
<!-- Node7&#45;&gt;Node6 -->
<g id="edge9" class="edge">
<title>Node7&#45;&gt;Node6</title>
<path fill="none" stroke="midnightblue" d="M430.87,-46.59C428.64,-37.08 426.2,-26.73 424.54,-19.66"/>
<polygon fill="midnightblue" stroke="midnightblue" points="427.48,-47.47 433.18,-56.4 434.3,-45.86 427.48,-47.47"/>
</g>
<!-- Node8 -->
<g id="node8" class="node">
<title>Node8</title>
<g id="a_node8"><a xlink:href="scample_8cxx.html" target="_top" xlink:title="definition of g4db&#45;scample executable">
<polygon fill="none" stroke="black" points="493,-0.5 493,-19.5 592,-19.5 592,-0.5 493,-0.5"/>
<text text-anchor="middle" x="542.5" y="-7.5" font-family="Helvetica,sans-Serif" font-size="10.00">app/scample.cxx</text>
</a>
</g>
</g>
<!-- Node7&#45;&gt;Node8 -->
<g id="edge7" class="edge">
<title>Node7&#45;&gt;Node8</title>
<path fill="none" stroke="midnightblue" d="M470.6,-51.36C489.6,-40.69 512.33,-27.93 527.08,-19.66"/>
<polygon fill="midnightblue" stroke="midnightblue" points="468.63,-48.45 461.62,-56.4 472.05,-54.56 468.63,-48.45"/>
</g>
</g>
</svg>
