<?xml version="1.0" encoding="UTF-8" standalone="no"?>
<!DOCTYPE svg PUBLIC "-//W3C//DTD SVG 1.1//EN"
 "http://www.w3.org/Graphics/SVG/1.1/DTD/svg11.dtd">
<!-- Generated by graphviz version 2.43.0 (0)
 -->
<!-- Title: app/scale.cxx Pages: 1 -->
<svg width="1137pt" height="196pt"
 viewBox="0.00 0.00 1136.50 196.00" xmlns="http://www.w3.org/2000/svg" xmlns:xlink="http://www.w3.org/1999/xlink">
<g id="graph0" class="graph" transform="scale(1 1) rotate(0) translate(4 192)">
<title>app/scale.cxx</title>
<!-- Node1 -->
<g id="node1" class="node">
<title>Node1</title>
<g id="a_node1"><a xlink:title=" ">
<polygon fill="#bfbfbf" stroke="black" points="207.5,-168.5 207.5,-187.5 290.5,-187.5 290.5,-168.5 207.5,-168.5"/>
<text text-anchor="middle" x="249" y="-175.5" font-family="Helvetica,sans-Serif" font-size="10.00">app/scale.cxx</text>
</a>
</g>
</g>
<!-- Node2 -->
<g id="node2" class="node">
<title>Node2</title>
<g id="a_node2"><a xlink:title=" ">
<polygon fill="none" stroke="#bfbfbf" points="0,-112.5 0,-131.5 60,-131.5 60,-112.5 0,-112.5"/>
<text text-anchor="middle" x="30" y="-119.5" font-family="Helvetica,sans-Serif" font-size="10.00">iostream</text>
</a>
</g>
</g>
<!-- Node1&#45;&gt;Node2 -->
<g id="edge1" class="edge">
<title>Node1&#45;&gt;Node2</title>
<path fill="none" stroke="midnightblue" d="M214.3,-168.44C175.08,-158.77 111.33,-143.05 70.04,-132.87"/>
<polygon fill="midnightblue" stroke="midnightblue" points="70.85,-129.47 60.31,-130.47 69.18,-136.27 70.85,-129.47"/>
</g>
<!-- Node3 -->
<g id="node3" class="node">
<title>Node3</title>
<g id="a_node3"><a xlink:title=" ">
<polygon fill="none" stroke="#bfbfbf" points="78.5,-112.5 78.5,-131.5 133.5,-131.5 133.5,-112.5 78.5,-112.5"/>
<text text-anchor="middle" x="106" y="-119.5" font-family="Helvetica,sans-Serif" font-size="10.00">fstream</text>
</a>
</g>
</g>
<!-- Node1&#45;&gt;Node3 -->
<g id="edge2" class="edge">
<title>Node1&#45;&gt;Node3</title>
<path fill="none" stroke="midnightblue" d="M226.34,-168.44C202.6,-159.48 165.09,-145.31 138.26,-135.18"/>
<polygon fill="midnightblue" stroke="midnightblue" points="139.14,-131.77 128.55,-131.52 136.67,-138.32 139.14,-131.77"/>
</g>
<!-- Node4 -->
<g id="node4" class="node">
<title>Node4</title>
<g id="a_node4"><a xlink:title=" ">
<polygon fill="none" stroke="#bfbfbf" points="151.5,-112.5 151.5,-131.5 236.5,-131.5 236.5,-112.5 151.5,-112.5"/>
<text text-anchor="middle" x="194" y="-119.5" font-family="Helvetica,sans-Serif" font-size="10.00">G4Electron.hh</text>
</a>
</g>
</g>
<!-- Node1&#45;&gt;Node4 -->
<g id="edge3" class="edge">
<title>Node1&#45;&gt;Node4</title>
<path fill="none" stroke="midnightblue" d="M239.92,-168.08C231.83,-160.14 219.8,-148.34 210.09,-138.8"/>
<polygon fill="midnightblue" stroke="midnightblue" points="212.5,-136.26 202.91,-131.75 207.6,-141.25 212.5,-136.26"/>
</g>
<!-- Node5 -->
<g id="node5" class="node">
<title>Node5</title>
<g id="a_node5"><a xlink:title=" ">
<polygon fill="none" stroke="#bfbfbf" points="254.5,-112.5 254.5,-131.5 355.5,-131.5 355.5,-112.5 254.5,-112.5"/>
<text text-anchor="middle" x="305" y="-119.5" font-family="Helvetica,sans-Serif" font-size="10.00">G4MuonMinus.hh</text>
</a>
</g>
</g>
<!-- Node1&#45;&gt;Node5 -->
<g id="edge4" class="edge">
<title>Node1&#45;&gt;Node5</title>
<path fill="none" stroke="midnightblue" d="M258,-168.32C266.19,-160.42 278.51,-148.55 288.47,-138.94"/>
<polygon fill="midnightblue" stroke="midnightblue" points="291.07,-141.29 295.84,-131.83 286.21,-136.26 291.07,-141.29"/>
</g>
<!-- Node6 -->
<g id="node6" class="node">
<title>Node6</title>
<g id="a_node6"><a xlink:href="G4DarkBreMModel_8h_source.html" target="_top" xlink:title=" ">
<polygon fill="none" stroke="black" points="373.5,-112.5 373.5,-131.5 556.5,-131.5 556.5,-112.5 373.5,-112.5"/>
<text text-anchor="middle" x="465" y="-119.5" font-family="Helvetica,sans-Serif" font-size="10.00">G4DarkBreM/G4DarkBreMModel.h</text>
</a>
</g>
</g>
<!-- Node1&#45;&gt;Node6 -->
<g id="edge5" class="edge">
<title>Node1&#45;&gt;Node6</title>
<path fill="none" stroke="midnightblue" d="M283.23,-168.44C320.51,-159.12 380.27,-144.18 421.01,-134"/>
<polygon fill="midnightblue" stroke="midnightblue" points="422.08,-137.34 430.93,-131.52 420.38,-130.55 422.08,-137.34"/>
</g>
<!-- Node18 -->
<g id="node18" class="node">
<title>Node18</title>
<g id="a_node18"><a xlink:href="G4APrime_8h.html" target="_top" xlink:title="Class creating the A&#39; particle in Geant.">
<polygon fill="none" stroke="black" points="857,-112.5 857,-131.5 997,-131.5 997,-112.5 857,-112.5"/>
<text text-anchor="middle" x="927" y="-119.5" font-family="Helvetica,sans-Serif" font-size="10.00">G4DarkBreM/G4APrime.h</text>
</a>
</g>
</g>
<!-- Node1&#45;&gt;Node18 -->
<g id="edge18" class="edge">
<title>Node1&#45;&gt;Node18</title>
<path fill="none" stroke="midnightblue" d="M290.65,-173.68C400.87,-164.9 701.66,-140.95 846.69,-129.4"/>
<polygon fill="midnightblue" stroke="midnightblue" points="847.17,-132.87 856.86,-128.59 846.61,-125.89 847.17,-132.87"/>
</g>
<!-- Node7 -->
<g id="node7" class="node">
<title>Node7</title>
<g id="a_node7"><a xlink:title=" ">
<polygon fill="none" stroke="#bfbfbf" points="277,-56.5 277,-75.5 335,-75.5 335,-56.5 277,-56.5"/>
<text text-anchor="middle" x="306" y="-63.5" font-family="Helvetica,sans-Serif" font-size="10.00">memory</text>
</a>
</g>
</g>
<!-- Node6&#45;&gt;Node7 -->
<g id="edge6" class="edge">
<title>Node6&#45;&gt;Node7</title>
<path fill="none" stroke="midnightblue" d="M439.81,-112.44C413.06,-103.36 370.6,-88.94 340.69,-78.78"/>
<polygon fill="midnightblue" stroke="midnightblue" points="341.67,-75.42 331.08,-75.52 339.42,-82.05 341.67,-75.42"/>
</g>
<!-- Node8 -->
<g id="node8" class="node">
<title>Node8</title>
<g id="a_node8"><a xlink:title=" ">
<polygon fill="none" stroke="#bfbfbf" points="288,-0.5 288,-19.5 326,-19.5 326,-0.5 288,-0.5"/>
<text text-anchor="middle" x="307" y="-7.5" font-family="Helvetica,sans-Serif" font-size="10.00">map</text>
</a>
</g>
</g>
<!-- Node6&#45;&gt;Node8 -->
<g id="edge7" class="edge">
<title>Node6&#45;&gt;Node8</title>
<path fill="none" stroke="midnightblue" d="M446.27,-112.5C428.76,-104.2 402.21,-90.71 381,-76 359.62,-61.18 337.52,-41.01 323.1,-27.1"/>
<polygon fill="midnightblue" stroke="midnightblue" points="325.16,-24.21 315.56,-19.71 320.26,-29.21 325.16,-24.21"/>
</g>
<!-- Node9 -->
<g id="node9" class="node">
<title>Node9</title>
<g id="a_node9"><a xlink:href="ParseLibrary_8h.html" target="_top" xlink:title=" ">
<polygon fill="none" stroke="black" points="390.5,-56.5 390.5,-75.5 539.5,-75.5 539.5,-56.5 390.5,-56.5"/>
<text text-anchor="middle" x="465" y="-63.5" font-family="Helvetica,sans-Serif" font-size="10.00">G4DarkBreM/ParseLibrary.h</text>
</a>
</g>
</g>
<!-- Node6&#45;&gt;Node9 -->
<g id="edge8" class="edge">
<title>Node6&#45;&gt;Node9</title>
<path fill="none" stroke="midnightblue" d="M465,-112.08C465,-105.01 465,-94.86 465,-85.99"/>
<polygon fill="midnightblue" stroke="midnightblue" points="468.5,-85.75 465,-75.75 461.5,-85.75 468.5,-85.75"/>
</g>
<!-- Node14 -->
<g id="node14" class="node">
<title>Node14</title>
<g id="a_node14"><a xlink:href="PrototypeModel_8h.html" target="_top" xlink:title="Class providing a prototype model for dark brem.">
<polygon fill="none" stroke="black" points="677,-56.5 677,-75.5 845,-75.5 845,-56.5 677,-56.5"/>
<text text-anchor="middle" x="761" y="-63.5" font-family="Helvetica,sans-Serif" font-size="10.00">G4DarkBreM/PrototypeModel.h</text>
</a>
</g>
</g>
<!-- Node6&#45;&gt;Node14 -->
<g id="edge14" class="edge">
<title>Node6&#45;&gt;Node14</title>
<path fill="none" stroke="midnightblue" d="M511.9,-112.44C564.08,-102.92 648.37,-87.55 704.23,-77.36"/>
<polygon fill="midnightblue" stroke="midnightblue" points="705.11,-80.75 714.32,-75.52 703.85,-73.87 705.11,-80.75"/>
</g>
<!-- Node9&#45;&gt;Node8 -->
<g id="edge10" class="edge">
<title>Node9&#45;&gt;Node8</title>
<path fill="none" stroke="midnightblue" d="M439.96,-56.44C411.79,-46.81 366.07,-31.19 336.26,-21"/>
<polygon fill="midnightblue" stroke="midnightblue" points="337.03,-17.57 326.44,-17.64 334.77,-24.19 337.03,-17.57"/>
</g>
<!-- Node10 -->
<g id="node10" class="node">
<title>Node10</title>
<g id="a_node10"><a xlink:title=" ">
<polygon fill="none" stroke="#bfbfbf" points="344,-0.5 344,-19.5 388,-19.5 388,-0.5 344,-0.5"/>
<text text-anchor="middle" x="366" y="-7.5" font-family="Helvetica,sans-Serif" font-size="10.00">string</text>
</a>
</g>
</g>
<!-- Node9&#45;&gt;Node10 -->
<g id="edge9" class="edge">
<title>Node9&#45;&gt;Node10</title>
<path fill="none" stroke="midnightblue" d="M449.09,-56.32C433.36,-47.74 409.06,-34.49 390.79,-24.52"/>
<polygon fill="midnightblue" stroke="midnightblue" points="392.32,-21.37 381.87,-19.65 388.97,-27.52 392.32,-21.37"/>
</g>
<!-- Node11 -->
<g id="node11" class="node">
<title>Node11</title>
<g id="a_node11"><a xlink:title=" ">
<polygon fill="none" stroke="#bfbfbf" points="406.5,-0.5 406.5,-19.5 453.5,-19.5 453.5,-0.5 406.5,-0.5"/>
<text text-anchor="middle" x="430" y="-7.5" font-family="Helvetica,sans-Serif" font-size="10.00">vector</text>
</a>
</g>
</g>
<!-- Node9&#45;&gt;Node11 -->
<g id="edge11" class="edge">
<title>Node9&#45;&gt;Node11</title>
<path fill="none" stroke="midnightblue" d="M459.22,-56.08C454.33,-48.53 447.17,-37.49 441.17,-28.23"/>
<polygon fill="midnightblue" stroke="midnightblue" points="444.05,-26.24 435.67,-19.75 438.17,-30.05 444.05,-26.24"/>
</g>
<!-- Node12 -->
<g id="node12" class="node">
<title>Node12</title>
<g id="a_node12"><a xlink:title=" ">
<polygon fill="none" stroke="#bfbfbf" points="471.5,-0.5 471.5,-19.5 528.5,-19.5 528.5,-0.5 471.5,-0.5"/>
<text text-anchor="middle" x="500" y="-7.5" font-family="Helvetica,sans-Serif" font-size="10.00">ostream</text>
</a>
</g>
</g>
<!-- Node9&#45;&gt;Node12 -->
<g id="edge12" class="edge">
<title>Node9&#45;&gt;Node12</title>
<path fill="none" stroke="midnightblue" d="M470.78,-56.08C475.67,-48.53 482.83,-37.49 488.83,-28.23"/>
<polygon fill="midnightblue" stroke="midnightblue" points="491.83,-30.05 494.33,-19.75 485.95,-26.24 491.83,-30.05"/>
</g>
<!-- Node13 -->
<g id="node13" class="node">
<title>Node13</title>
<g id="a_node13"><a xlink:title=" ">
<polygon fill="none" stroke="#bfbfbf" points="547,-0.5 547,-19.5 707,-19.5 707,-0.5 547,-0.5"/>
<text text-anchor="middle" x="627" y="-7.5" font-family="Helvetica,sans-Serif" font-size="10.00">CLHEP/Vector/LorentzVector.h</text>
</a>
</g>
</g>
<!-- Node9&#45;&gt;Node13 -->
<g id="edge13" class="edge">
<title>Node9&#45;&gt;Node13</title>
<path fill="none" stroke="midnightblue" d="M490.67,-56.44C517.92,-47.36 561.18,-32.94 591.65,-22.78"/>
<polygon fill="midnightblue" stroke="midnightblue" points="593.07,-26 601.45,-19.52 590.86,-19.36 593.07,-26"/>
</g>
<!-- Node15 -->
<g id="node15" class="node">
<title>Node15</title>
<g id="a_node15"><a xlink:title=" ">
<polygon fill="none" stroke="#bfbfbf" points="725.5,-0.5 725.5,-19.5 796.5,-19.5 796.5,-0.5 725.5,-0.5"/>
<text text-anchor="middle" x="761" y="-7.5" font-family="Helvetica,sans-Serif" font-size="10.00">G4Track.hh</text>
</a>
</g>
</g>
<!-- Node14&#45;&gt;Node15 -->
<g id="edge15" class="edge">
<title>Node14&#45;&gt;Node15</title>
<path fill="none" stroke="midnightblue" d="M761,-56.08C761,-49.01 761,-38.86 761,-29.99"/>
<polygon fill="midnightblue" stroke="midnightblue" points="764.5,-29.75 761,-19.75 757.5,-29.75 764.5,-29.75"/>
</g>
<!-- Node16 -->
<g id="node16" class="node">
<title>Node16</title>
<g id="a_node16"><a xlink:title=" ">
<polygon fill="none" stroke="#bfbfbf" points="814.5,-0.5 814.5,-19.5 881.5,-19.5 881.5,-0.5 814.5,-0.5"/>
<text text-anchor="middle" x="848" y="-7.5" font-family="Helvetica,sans-Serif" font-size="10.00">G4Step.hh</text>
</a>
</g>
</g>
<!-- Node14&#45;&gt;Node16 -->
<g id="edge16" class="edge">
<title>Node14&#45;&gt;Node16</title>
<path fill="none" stroke="midnightblue" d="M774.98,-56.32C788.55,-47.9 809.38,-34.97 825.32,-25.07"/>
<polygon fill="midnightblue" stroke="midnightblue" points="827.41,-27.9 834.06,-19.65 823.71,-21.95 827.41,-27.9"/>
</g>
<!-- Node17 -->
<g id="node17" class="node">
<title>Node17</title>
<g id="a_node17"><a xlink:title=" ">
<polygon fill="none" stroke="#bfbfbf" points="900,-0.5 900,-19.5 1018,-19.5 1018,-0.5 900,-0.5"/>
<text text-anchor="middle" x="959" y="-7.5" font-family="Helvetica,sans-Serif" font-size="10.00">G4ParticleChange.hh</text>
</a>
</g>
</g>
<!-- Node14&#45;&gt;Node17 -->
<g id="edge17" class="edge">
<title>Node14&#45;&gt;Node17</title>
<path fill="none" stroke="midnightblue" d="M792.37,-56.44C826.26,-47.2 880.4,-32.44 917.72,-22.26"/>
<polygon fill="midnightblue" stroke="midnightblue" points="919.05,-25.52 927.77,-19.52 917.2,-18.77 919.05,-25.52"/>
</g>
<!-- Node19 -->
<g id="node19" class="node">
<title>Node19</title>
<g id="a_node19"><a xlink:title=" ">
<polygon fill="none" stroke="#bfbfbf" points="863,-56.5 863,-75.5 991,-75.5 991,-56.5 863,-56.5"/>
<text text-anchor="middle" x="927" y="-63.5" font-family="Helvetica,sans-Serif" font-size="10.00">G4ParticleDefinition.hh</text>
</a>
</g>
</g>
<!-- Node18&#45;&gt;Node19 -->
<g id="edge19" class="edge">
<title>Node18&#45;&gt;Node19</title>
<path fill="none" stroke="midnightblue" d="M927,-112.08C927,-105.01 927,-94.86 927,-85.99"/>
<polygon fill="midnightblue" stroke="midnightblue" points="930.5,-85.75 927,-75.75 923.5,-85.75 930.5,-85.75"/>
</g>
<!-- Node20 -->
<g id="node20" class="node">
<title>Node20</title>
<g id="a_node20"><a xlink:title=" ">
<polygon fill="none" stroke="#bfbfbf" points="1009.5,-56.5 1009.5,-75.5 1128.5,-75.5 1128.5,-56.5 1009.5,-56.5"/>
<text text-anchor="middle" x="1069" y="-63.5" font-family="Helvetica,sans-Serif" font-size="10.00">G4SystemOfUnits.hh</text>
</a>
</g>
</g>
<!-- Node18&#45;&gt;Node20 -->
<g id="edge20" class="edge">
<title>Node18&#45;&gt;Node20</title>
<path fill="none" stroke="midnightblue" d="M949.5,-112.44C973.08,-103.48 1010.32,-89.31 1036.96,-79.18"/>
<polygon fill="midnightblue" stroke="midnightblue" points="1038.5,-82.34 1046.6,-75.52 1036.01,-75.8 1038.5,-82.34"/>
</g>
</g>
</svg>
