<?xml version="1.0" encoding="UTF-8" standalone="no"?>
<!DOCTYPE svg PUBLIC "-//W3C//DTD SVG 1.1//EN"
 "http://www.w3.org/Graphics/SVG/1.1/DTD/svg11.dtd">
<!-- Generated by graphviz version 2.43.0 (0)
 -->
<!-- Title: app/simulate.cxx Pages: 1 -->
<svg width="2926pt" height="252pt"
 viewBox="0.00 0.00 2925.50 252.00" xmlns="http://www.w3.org/2000/svg" xmlns:xlink="http://www.w3.org/1999/xlink">
<g id="graph0" class="graph" transform="scale(1 1) rotate(0) translate(4 248)">
<title>app/simulate.cxx</title>
<!-- Node1 -->
<g id="node1" class="node">
<title>Node1</title>
<g id="a_node1"><a xlink:title=" ">
<polygon fill="#bfbfbf" stroke="black" points="1350,-224.5 1350,-243.5 1451,-243.5 1451,-224.5 1350,-224.5"/>
<text text-anchor="middle" x="1400.5" y="-231.5" font-family="Helvetica,sans-Serif" font-size="10.00">app/simulate.cxx</text>
</a>
</g>
</g>
<!-- Node2 -->
<g id="node2" class="node">
<title>Node2</title>
<g id="a_node2"><a xlink:title=" ">
<polygon fill="none" stroke="#bfbfbf" points="0,-168.5 0,-187.5 55,-187.5 55,-168.5 0,-168.5"/>
<text text-anchor="middle" x="27.5" y="-175.5" font-family="Helvetica,sans-Serif" font-size="10.00">fstream</text>
</a>
</g>
</g>
<!-- Node1&#45;&gt;Node2 -->
<g id="edge1" class="edge">
<title>Node1&#45;&gt;Node2</title>
<path fill="none" stroke="midnightblue" d="M1349.93,-232.68C1140.49,-231.16 339.75,-223.18 65.2,-187.73"/>
<polygon fill="midnightblue" stroke="midnightblue" points="65.64,-184.25 55.26,-186.4 64.71,-191.19 65.64,-184.25"/>
</g>
<!-- Node3 -->
<g id="node3" class="node">
<title>Node3</title>
<g id="a_node3"><a xlink:title=" ">
<polygon fill="none" stroke="#bfbfbf" points="73.5,-168.5 73.5,-187.5 133.5,-187.5 133.5,-168.5 73.5,-168.5"/>
<text text-anchor="middle" x="103.5" y="-175.5" font-family="Helvetica,sans-Serif" font-size="10.00">iostream</text>
</a>
</g>
</g>
<!-- Node1&#45;&gt;Node3 -->
<g id="edge2" class="edge">
<title>Node1&#45;&gt;Node3</title>
<path fill="none" stroke="midnightblue" d="M1349.81,-232.48C1148.19,-230.21 401.95,-219.89 143.72,-187.85"/>
<polygon fill="midnightblue" stroke="midnightblue" points="143.99,-184.35 133.63,-186.55 143.1,-191.3 143.99,-184.35"/>
</g>
<!-- Node4 -->
<g id="node4" class="node">
<title>Node4</title>
<g id="a_node4"><a xlink:title=" ">
<polygon fill="none" stroke="#bfbfbf" points="2303.5,-112.5 2303.5,-131.5 2361.5,-131.5 2361.5,-112.5 2303.5,-112.5"/>
<text text-anchor="middle" x="2332.5" y="-119.5" font-family="Helvetica,sans-Serif" font-size="10.00">memory</text>
</a>
</g>
</g>
<!-- Node1&#45;&gt;Node4 -->
<g id="edge3" class="edge">
<title>Node1&#45;&gt;Node4</title>
<path fill="none" stroke="midnightblue" d="M1451.27,-232.1C1638.1,-228.57 2278.32,-214.57 2312.5,-188 2326.32,-177.26 2330.84,-157.17 2332.2,-142.15"/>
<polygon fill="midnightblue" stroke="midnightblue" points="2335.71,-142.06 2332.72,-131.9 2328.71,-141.71 2335.71,-142.06"/>
</g>
<!-- Node5 -->
<g id="node5" class="node">
<title>Node5</title>
<g id="a_node5"><a xlink:title=" ">
<polygon fill="none" stroke="#bfbfbf" points="374.5,-168.5 374.5,-187.5 416.5,-187.5 416.5,-168.5 374.5,-168.5"/>
<text text-anchor="middle" x="395.5" y="-175.5" font-family="Helvetica,sans-Serif" font-size="10.00">array</text>
</a>
</g>
</g>
<!-- Node1&#45;&gt;Node5 -->
<g id="edge4" class="edge">
<title>Node1&#45;&gt;Node5</title>
<path fill="none" stroke="midnightblue" d="M1349.74,-232.3C1178.96,-229.69 625.28,-219.11 426.68,-187.7"/>
<polygon fill="midnightblue" stroke="midnightblue" points="427.09,-184.22 416.65,-186.05 425.95,-191.13 427.09,-184.22"/>
</g>
<!-- Node6 -->
<g id="node6" class="node">
<title>Node6</title>
<g id="a_node6"><a xlink:title=" ">
<polygon fill="none" stroke="#bfbfbf" points="435,-168.5 435,-187.5 494,-187.5 494,-168.5 435,-168.5"/>
<text text-anchor="middle" x="464.5" y="-175.5" font-family="Helvetica,sans-Serif" font-size="10.00">QBBC.hh</text>
</a>
</g>
</g>
<!-- Node1&#45;&gt;Node6 -->
<g id="edge5" class="edge">
<title>Node1&#45;&gt;Node6</title>
<path fill="none" stroke="midnightblue" d="M1349.56,-233.69C1213.51,-234.83 830.37,-233.54 504.39,-188.02"/>
<polygon fill="midnightblue" stroke="midnightblue" points="504.66,-184.53 494.27,-186.59 503.68,-191.46 504.66,-184.53"/>
</g>
<!-- Node7 -->
<g id="node7" class="node">
<title>Node7</title>
<g id="a_node7"><a xlink:title=" ">
<polygon fill="none" stroke="#bfbfbf" points="512,-168.5 512,-187.5 631,-187.5 631,-168.5 512,-168.5"/>
<text text-anchor="middle" x="571.5" y="-175.5" font-family="Helvetica,sans-Serif" font-size="10.00">G4PhysListFactory.hh</text>
</a>
</g>
</g>
<!-- Node1&#45;&gt;Node7 -->
<g id="edge6" class="edge">
<title>Node1&#45;&gt;Node7</title>
<path fill="none" stroke="midnightblue" d="M1349.71,-231.23C1228.9,-226.76 914.76,-213.56 641.42,-188.02"/>
<polygon fill="midnightblue" stroke="midnightblue" points="641.59,-184.52 631.31,-187.06 640.94,-191.49 641.59,-184.52"/>
</g>
<!-- Node8 -->
<g id="node8" class="node">
<title>Node8</title>
<g id="a_node8"><a xlink:title=" ">
<polygon fill="none" stroke="#bfbfbf" points="649.5,-168.5 649.5,-187.5 793.5,-187.5 793.5,-168.5 649.5,-168.5"/>
<text text-anchor="middle" x="721.5" y="-175.5" font-family="Helvetica,sans-Serif" font-size="10.00">G4VPhysicsConstructor.hh</text>
</a>
</g>
</g>
<!-- Node1&#45;&gt;Node8 -->
<g id="edge7" class="edge">
<title>Node1&#45;&gt;Node8</title>
<path fill="none" stroke="midnightblue" d="M1349.65,-229.79C1248.09,-223.23 1012.65,-207.38 804.13,-188.12"/>
<polygon fill="midnightblue" stroke="midnightblue" points="804.19,-184.61 793.91,-187.17 803.54,-191.58 804.19,-184.61"/>
</g>
<!-- Node9 -->
<g id="node9" class="node">
<title>Node9</title>
<g id="a_node9"><a xlink:title=" ">
<polygon fill="none" stroke="#bfbfbf" points="811.5,-168.5 811.5,-187.5 989.5,-187.5 989.5,-168.5 811.5,-168.5"/>
<text text-anchor="middle" x="900.5" y="-175.5" font-family="Helvetica,sans-Serif" font-size="10.00">G4VUserDetectorConstruction.hh</text>
</a>
</g>
</g>
<!-- Node1&#45;&gt;Node9 -->
<g id="edge8" class="edge">
<title>Node1&#45;&gt;Node9</title>
<path fill="none" stroke="midnightblue" d="M1349.81,-227.53C1265.27,-218.39 1094.44,-199.95 989.49,-188.61"/>
<polygon fill="midnightblue" stroke="midnightblue" points="989.87,-185.13 979.55,-187.54 989.11,-192.09 989.87,-185.13"/>
</g>
<!-- Node10 -->
<g id="node10" class="node">
<title>Node10</title>
<g id="a_node10"><a xlink:title=" ">
<polygon fill="none" stroke="#bfbfbf" points="1007.5,-168.5 1007.5,-187.5 1199.5,-187.5 1199.5,-168.5 1007.5,-168.5"/>
<text text-anchor="middle" x="1103.5" y="-175.5" font-family="Helvetica,sans-Serif" font-size="10.00">G4VUserPrimaryGeneratorAction.hh</text>
</a>
</g>
</g>
<!-- Node1&#45;&gt;Node10 -->
<g id="edge9" class="edge">
<title>Node1&#45;&gt;Node10</title>
<path fill="none" stroke="midnightblue" d="M1353.44,-224.44C1301.09,-214.92 1216.51,-199.55 1160.46,-189.36"/>
<polygon fill="midnightblue" stroke="midnightblue" points="1160.81,-185.86 1150.34,-187.52 1159.55,-192.75 1160.81,-185.86"/>
</g>
<!-- Node11 -->
<g id="node11" class="node">
<title>Node11</title>
<g id="a_node11"><a xlink:title=" ">
<polygon fill="none" stroke="#bfbfbf" points="1218,-168.5 1218,-187.5 1319,-187.5 1319,-168.5 1218,-168.5"/>
<text text-anchor="middle" x="1268.5" y="-175.5" font-family="Helvetica,sans-Serif" font-size="10.00">G4ParticleGun.hh</text>
</a>
</g>
</g>
<!-- Node1&#45;&gt;Node11 -->
<g id="edge10" class="edge">
<title>Node1&#45;&gt;Node11</title>
<path fill="none" stroke="midnightblue" d="M1379.58,-224.44C1357.76,-215.52 1323.35,-201.44 1298.61,-191.32"/>
<polygon fill="midnightblue" stroke="midnightblue" points="1299.9,-188.06 1289.32,-187.52 1297.25,-194.54 1299.9,-188.06"/>
</g>
<!-- Node12 -->
<g id="node12" class="node">
<title>Node12</title>
<g id="a_node12"><a xlink:title=" ">
<polygon fill="none" stroke="#bfbfbf" points="1337.5,-168.5 1337.5,-187.5 1463.5,-187.5 1463.5,-168.5 1337.5,-168.5"/>
<text text-anchor="middle" x="1400.5" y="-175.5" font-family="Helvetica,sans-Serif" font-size="10.00">G4UserEventAction.hh</text>
</a>
</g>
</g>
<!-- Node1&#45;&gt;Node12 -->
<g id="edge11" class="edge">
<title>Node1&#45;&gt;Node12</title>
<path fill="none" stroke="midnightblue" d="M1400.5,-224.08C1400.5,-217.01 1400.5,-206.86 1400.5,-197.99"/>
<polygon fill="midnightblue" stroke="midnightblue" points="1404,-197.75 1400.5,-187.75 1397,-197.75 1404,-197.75"/>
</g>
<!-- Node13 -->
<g id="node13" class="node">
<title>Node13</title>
<g id="a_node13"><a xlink:title=" ">
<polygon fill="none" stroke="#bfbfbf" points="1482,-168.5 1482,-187.5 1621,-187.5 1621,-168.5 1482,-168.5"/>
<text text-anchor="middle" x="1551.5" y="-175.5" font-family="Helvetica,sans-Serif" font-size="10.00">G4UserTrackingAction.hh</text>
</a>
</g>
</g>
<!-- Node1&#45;&gt;Node13 -->
<g id="edge12" class="edge">
<title>Node1&#45;&gt;Node13</title>
<path fill="none" stroke="midnightblue" d="M1424.43,-224.44C1449.72,-215.4 1489.8,-201.06 1518.18,-190.92"/>
<polygon fill="midnightblue" stroke="midnightblue" points="1519.45,-194.18 1527.69,-187.52 1517.09,-187.59 1519.45,-194.18"/>
</g>
<!-- Node14 -->
<g id="node14" class="node">
<title>Node14</title>
<g id="a_node14"><a xlink:title=" ">
<polygon fill="none" stroke="#bfbfbf" points="1639.5,-168.5 1639.5,-187.5 1745.5,-187.5 1745.5,-168.5 1639.5,-168.5"/>
<text text-anchor="middle" x="1692.5" y="-175.5" font-family="Helvetica,sans-Serif" font-size="10.00">G4RunManager.hh</text>
</a>
</g>
</g>
<!-- Node1&#45;&gt;Node14 -->
<g id="edge13" class="edge">
<title>Node1&#45;&gt;Node14</title>
<path fill="none" stroke="midnightblue" d="M1446.77,-224.44C1498.24,-214.92 1581.39,-199.55 1636.5,-189.36"/>
<polygon fill="midnightblue" stroke="midnightblue" points="1637.25,-192.78 1646.45,-187.52 1635.98,-185.89 1637.25,-192.78"/>
</g>
<!-- Node15 -->
<g id="node15" class="node">
<title>Node15</title>
<g id="a_node15"><a xlink:title=" ">
<polygon fill="none" stroke="#bfbfbf" points="1764,-168.5 1764,-187.5 1865,-187.5 1865,-168.5 1764,-168.5"/>
<text text-anchor="middle" x="1814.5" y="-175.5" font-family="Helvetica,sans-Serif" font-size="10.00">G4MuonMinus.hh</text>
</a>
</g>
</g>
<!-- Node1&#45;&gt;Node15 -->
<g id="edge14" class="edge">
<title>Node1&#45;&gt;Node15</title>
<path fill="none" stroke="midnightblue" d="M1451.26,-226.91C1518.09,-218.81 1639.52,-203.82 1753.8,-188.07"/>
<polygon fill="midnightblue" stroke="midnightblue" points="1754.35,-191.53 1763.77,-186.69 1753.39,-184.59 1754.35,-191.53"/>
</g>
<!-- Node16 -->
<g id="node16" class="node">
<title>Node16</title>
<g id="a_node16"><a xlink:title=" ">
<polygon fill="none" stroke="#bfbfbf" points="1883,-168.5 1883,-187.5 1968,-187.5 1968,-168.5 1883,-168.5"/>
<text text-anchor="middle" x="1925.5" y="-175.5" font-family="Helvetica,sans-Serif" font-size="10.00">G4Electron.hh</text>
</a>
</g>
</g>
<!-- Node1&#45;&gt;Node16 -->
<g id="edge15" class="edge">
<title>Node1&#45;&gt;Node16</title>
<path fill="none" stroke="midnightblue" d="M1451.05,-229.47C1535.95,-223.26 1712.76,-209.12 1872.94,-187.97"/>
<polygon fill="midnightblue" stroke="midnightblue" points="1873.52,-191.42 1882.97,-186.63 1872.6,-184.48 1873.52,-191.42"/>
</g>
<!-- Node17 -->
<g id="node17" class="node">
<title>Node17</title>
<g id="a_node17"><a xlink:title=" ">
<polygon fill="none" stroke="#bfbfbf" points="1986.5,-168.5 1986.5,-187.5 2050.5,-187.5 2050.5,-168.5 1986.5,-168.5"/>
<text text-anchor="middle" x="2018.5" y="-175.5" font-family="Helvetica,sans-Serif" font-size="10.00">G4Box.hh</text>
</a>
</g>
</g>
<!-- Node1&#45;&gt;Node17 -->
<g id="edge16" class="edge">
<title>Node1&#45;&gt;Node17</title>
<path fill="none" stroke="midnightblue" d="M1451.22,-231.31C1551.85,-227.45 1783.69,-216.06 1976.5,-188 1976.6,-187.99 1976.7,-187.97 1976.8,-187.96"/>
<polygon fill="midnightblue" stroke="midnightblue" points="1977.2,-191.44 1986.48,-186.32 1976.03,-184.54 1977.2,-191.44"/>
</g>
<!-- Node18 -->
<g id="node18" class="node">
<title>Node18</title>
<g id="a_node18"><a xlink:title=" ">
<polygon fill="none" stroke="#bfbfbf" points="2068.5,-168.5 2068.5,-187.5 2178.5,-187.5 2178.5,-168.5 2068.5,-168.5"/>
<text text-anchor="middle" x="2123.5" y="-175.5" font-family="Helvetica,sans-Serif" font-size="10.00">G4PVPlacement.hh</text>
</a>
</g>
</g>
<!-- Node1&#45;&gt;Node18 -->
<g id="edge17" class="edge">
<title>Node1&#45;&gt;Node18</title>
<path fill="none" stroke="midnightblue" d="M1451.04,-230.78C1560.02,-225.74 1825.44,-212.01 2058.36,-188.05"/>
<polygon fill="midnightblue" stroke="midnightblue" points="2058.79,-191.52 2068.37,-187.01 2058.06,-184.56 2058.79,-191.52"/>
</g>
<!-- Node19 -->
<g id="node19" class="node">
<title>Node19</title>
<g id="a_node19"><a xlink:title=" ">
<polygon fill="none" stroke="#bfbfbf" points="2197,-168.5 2197,-187.5 2304,-187.5 2304,-168.5 2197,-168.5"/>
<text text-anchor="middle" x="2250.5" y="-175.5" font-family="Helvetica,sans-Serif" font-size="10.00">G4NistManager.hh</text>
</a>
</g>
</g>
<!-- Node1&#45;&gt;Node19 -->
<g id="edge18" class="edge">
<title>Node1&#45;&gt;Node19</title>
<path fill="none" stroke="midnightblue" d="M1451.26,-231.59C1575.06,-227.83 1902.58,-215.95 2186.83,-187.97"/>
<polygon fill="midnightblue" stroke="midnightblue" points="2187.32,-191.44 2196.92,-186.97 2186.62,-184.47 2187.32,-191.44"/>
</g>
<!-- Node20 -->
<g id="node20" class="node">
<title>Node20</title>
<g id="a_node20"><a xlink:href="G4DarkBremsstrahlung_8h.html" target="_top" xlink:title="Class providing the Dark Bremsstrahlung process class.">
<polygon fill="none" stroke="black" points="152,-168.5 152,-187.5 357,-187.5 357,-168.5 152,-168.5"/>
<text text-anchor="middle" x="254.5" y="-175.5" font-family="Helvetica,sans-Serif" font-size="10.00">G4DarkBreM/G4DarkBremsstrahlung.h</text>
</a>
</g>
</g>
<!-- Node1&#45;&gt;Node20 -->
<g id="edge19" class="edge">
<title>Node1&#45;&gt;Node20</title>
<path fill="none" stroke="midnightblue" d="M1349.85,-231.47C1200.93,-226.83 751.36,-211.79 367.21,-188.08"/>
<polygon fill="midnightblue" stroke="midnightblue" points="367.2,-184.58 357,-187.45 366.77,-191.56 367.2,-184.58"/>
</g>
<!-- Node27 -->
<g id="node27" class="node">
<title>Node27</title>
<g id="a_node27"><a xlink:href="G4DarkBreMModel_8h_source.html" target="_top" xlink:title=" ">
<polygon fill="none" stroke="black" points="2361,-168.5 2361,-187.5 2544,-187.5 2544,-168.5 2361,-168.5"/>
<text text-anchor="middle" x="2452.5" y="-175.5" font-family="Helvetica,sans-Serif" font-size="10.00">G4DarkBreM/G4DarkBreMModel.h</text>
</a>
</g>
</g>
<!-- Node1&#45;&gt;Node27 -->
<g id="edge27" class="edge">
<title>Node1&#45;&gt;Node27</title>
<path fill="none" stroke="midnightblue" d="M1451.04,-231.26C1592.54,-226.24 2004.63,-210.64 2346.5,-188 2347.82,-187.91 2349.15,-187.82 2350.49,-187.73"/>
<polygon fill="midnightblue" stroke="midnightblue" points="2351.15,-191.19 2360.87,-186.99 2350.65,-184.21 2351.15,-191.19"/>
</g>
<!-- Node30 -->
<g id="node30" class="node">
<title>Node30</title>
<g id="a_node30"><a xlink:href="G4APrime_8h.html" target="_top" xlink:title="Class creating the A&#39; particle in Geant.">
<polygon fill="none" stroke="black" points="2641.5,-168.5 2641.5,-187.5 2781.5,-187.5 2781.5,-168.5 2641.5,-168.5"/>
<text text-anchor="middle" x="2711.5" y="-175.5" font-family="Helvetica,sans-Serif" font-size="10.00">G4DarkBreM/G4APrime.h</text>
</a>
</g>
</g>
<!-- Node1&#45;&gt;Node30 -->
<g id="edge32" class="edge">
<title>Node1&#45;&gt;Node30</title>
<path fill="none" stroke="midnightblue" d="M1451.04,-231.34C1611.94,-225.99 2126.66,-208.37 2552.5,-188 2578.11,-186.78 2606.02,-185.26 2631.22,-183.82"/>
<polygon fill="midnightblue" stroke="midnightblue" points="2631.68,-187.3 2641.46,-183.23 2631.28,-180.31 2631.68,-187.3"/>
</g>
<!-- Node21 -->
<g id="node21" class="node">
<title>Node21</title>
<g id="a_node21"><a xlink:title=" ">
<polygon fill="none" stroke="#bfbfbf" points="143.5,-112.5 143.5,-131.5 273.5,-131.5 273.5,-112.5 143.5,-112.5"/>
<text text-anchor="middle" x="208.5" y="-119.5" font-family="Helvetica,sans-Serif" font-size="10.00">G4VDiscreteProcess.hh</text>
</a>
</g>
</g>
<!-- Node20&#45;&gt;Node21 -->
<g id="edge20" class="edge">
<title>Node20&#45;&gt;Node21</title>
<path fill="none" stroke="midnightblue" d="M246.9,-168.08C240.27,-160.3 230.48,-148.8 222.44,-139.37"/>
<polygon fill="midnightblue" stroke="midnightblue" points="225.1,-137.09 215.95,-131.75 219.77,-141.63 225.1,-137.09"/>
</g>
<!-- Node22 -->
<g id="node22" class="node">
<title>Node22</title>
<g id="a_node22"><a xlink:href="PrototypeModel_8h.html" target="_top" xlink:title="Class providing a prototype model for dark brem.">
<polygon fill="none" stroke="black" points="337.5,-56.5 337.5,-75.5 505.5,-75.5 505.5,-56.5 337.5,-56.5"/>
<text text-anchor="middle" x="421.5" y="-63.5" font-family="Helvetica,sans-Serif" font-size="10.00">G4DarkBreM/PrototypeModel.h</text>
</a>
</g>
</g>
<!-- Node20&#45;&gt;Node22 -->
<g id="edge21" class="edge">
<title>Node20&#45;&gt;Node22</title>
<path fill="none" stroke="midnightblue" d="M261.28,-168.4C272.29,-154.91 295.27,-128.59 319.5,-112 339.81,-98.09 365.12,-86.9 385.44,-79.15"/>
<polygon fill="midnightblue" stroke="midnightblue" points="386.81,-82.38 394.98,-75.63 384.38,-75.81 386.81,-82.38"/>
</g>
<!-- Node26 -->
<g id="node26" class="node">
<title>Node26</title>
<g id="a_node26"><a xlink:href="ElementXsecCache_8h_source.html" target="_top" xlink:title=" ">
<polygon fill="none" stroke="black" points="329,-112.5 329,-131.5 514,-131.5 514,-112.5 329,-112.5"/>
<text text-anchor="middle" x="421.5" y="-119.5" font-family="Helvetica,sans-Serif" font-size="10.00">G4DarkBreM/ElementXsecCache.h</text>
</a>
</g>
</g>
<!-- Node20&#45;&gt;Node26 -->
<g id="edge25" class="edge">
<title>Node20&#45;&gt;Node26</title>
<path fill="none" stroke="midnightblue" d="M280.96,-168.44C309.18,-159.32 354.04,-144.81 385.47,-134.65"/>
<polygon fill="midnightblue" stroke="midnightblue" points="386.72,-137.92 395.16,-131.52 384.57,-131.26 386.72,-137.92"/>
</g>
<!-- Node23 -->
<g id="node23" class="node">
<title>Node23</title>
<g id="a_node23"><a xlink:title=" ">
<polygon fill="none" stroke="#bfbfbf" points="299,-0.5 299,-19.5 370,-19.5 370,-0.5 299,-0.5"/>
<text text-anchor="middle" x="334.5" y="-7.5" font-family="Helvetica,sans-Serif" font-size="10.00">G4Track.hh</text>
</a>
</g>
</g>
<!-- Node22&#45;&gt;Node23 -->
<g id="edge22" class="edge">
<title>Node22&#45;&gt;Node23</title>
<path fill="none" stroke="midnightblue" d="M407.52,-56.32C393.95,-47.9 373.12,-34.97 357.18,-25.07"/>
<polygon fill="midnightblue" stroke="midnightblue" points="358.79,-21.95 348.44,-19.65 355.09,-27.9 358.79,-21.95"/>
</g>
<!-- Node24 -->
<g id="node24" class="node">
<title>Node24</title>
<g id="a_node24"><a xlink:title=" ">
<polygon fill="none" stroke="#bfbfbf" points="388,-0.5 388,-19.5 455,-19.5 455,-0.5 388,-0.5"/>
<text text-anchor="middle" x="421.5" y="-7.5" font-family="Helvetica,sans-Serif" font-size="10.00">G4Step.hh</text>
</a>
</g>
</g>
<!-- Node22&#45;&gt;Node24 -->
<g id="edge23" class="edge">
<title>Node22&#45;&gt;Node24</title>
<path fill="none" stroke="midnightblue" d="M421.5,-56.08C421.5,-49.01 421.5,-38.86 421.5,-29.99"/>
<polygon fill="midnightblue" stroke="midnightblue" points="425,-29.75 421.5,-19.75 418,-29.75 425,-29.75"/>
</g>
<!-- Node25 -->
<g id="node25" class="node">
<title>Node25</title>
<g id="a_node25"><a xlink:title=" ">
<polygon fill="none" stroke="#bfbfbf" points="473.5,-0.5 473.5,-19.5 591.5,-19.5 591.5,-0.5 473.5,-0.5"/>
<text text-anchor="middle" x="532.5" y="-7.5" font-family="Helvetica,sans-Serif" font-size="10.00">G4ParticleChange.hh</text>
</a>
</g>
</g>
<!-- Node22&#45;&gt;Node25 -->
<g id="edge24" class="edge">
<title>Node22&#45;&gt;Node25</title>
<path fill="none" stroke="midnightblue" d="M439.33,-56.32C457.22,-47.62 484.98,-34.12 505.55,-24.11"/>
<polygon fill="midnightblue" stroke="midnightblue" points="507.25,-27.18 514.71,-19.65 504.19,-20.88 507.25,-27.18"/>
</g>
<!-- Node26&#45;&gt;Node22 -->
<g id="edge26" class="edge">
<title>Node26&#45;&gt;Node22</title>
<path fill="none" stroke="midnightblue" d="M421.5,-112.08C421.5,-105.01 421.5,-94.86 421.5,-85.99"/>
<polygon fill="midnightblue" stroke="midnightblue" points="425,-85.75 421.5,-75.75 418,-85.75 425,-85.75"/>
</g>
<!-- Node27&#45;&gt;Node4 -->
<g id="edge28" class="edge">
<title>Node27&#45;&gt;Node4</title>
<path fill="none" stroke="midnightblue" d="M2433.49,-168.44C2413.91,-159.64 2383.19,-145.81 2360.77,-135.72"/>
<polygon fill="midnightblue" stroke="midnightblue" points="2361.98,-132.43 2351.43,-131.52 2359.11,-138.81 2361.98,-132.43"/>
</g>
<!-- Node27&#45;&gt;Node22 -->
<g id="edge30" class="edge">
<title>Node27&#45;&gt;Node22</title>
<path fill="none" stroke="midnightblue" d="M2445.02,-168.13C2431.79,-153.22 2402.62,-123.6 2370.5,-112 2282.54,-80.22 893.36,-69.77 515.66,-67.51"/>
<polygon fill="midnightblue" stroke="midnightblue" points="515.6,-64.01 505.58,-67.45 515.56,-71.01 515.6,-64.01"/>
</g>
<!-- Node28 -->
<g id="node28" class="node">
<title>Node28</title>
<g id="a_node28"><a xlink:title=" ">
<polygon fill="none" stroke="#bfbfbf" points="2417.5,-112.5 2417.5,-131.5 2455.5,-131.5 2455.5,-112.5 2417.5,-112.5"/>
<text text-anchor="middle" x="2436.5" y="-119.5" font-family="Helvetica,sans-Serif" font-size="10.00">map</text>
</a>
</g>
</g>
<!-- Node27&#45;&gt;Node28 -->
<g id="edge29" class="edge">
<title>Node27&#45;&gt;Node28</title>
<path fill="none" stroke="midnightblue" d="M2449.86,-168.08C2447.71,-160.85 2444.62,-150.41 2441.95,-141.4"/>
<polygon fill="midnightblue" stroke="midnightblue" points="2445.29,-140.34 2439.09,-131.75 2438.58,-142.33 2445.29,-140.34"/>
</g>
<!-- Node29 -->
<g id="node29" class="node">
<title>Node29</title>
<g id="a_node29"><a xlink:title=" ">
<polygon fill="none" stroke="#bfbfbf" points="2473.5,-112.5 2473.5,-131.5 2633.5,-131.5 2633.5,-112.5 2473.5,-112.5"/>
<text text-anchor="middle" x="2553.5" y="-119.5" font-family="Helvetica,sans-Serif" font-size="10.00">CLHEP/Vector/LorentzVector.h</text>
</a>
</g>
</g>
<!-- Node27&#45;&gt;Node29 -->
<g id="edge31" class="edge">
<title>Node27&#45;&gt;Node29</title>
<path fill="none" stroke="midnightblue" d="M2468.73,-168.32C2484.85,-159.7 2509.8,-146.36 2528.46,-136.39"/>
<polygon fill="midnightblue" stroke="midnightblue" points="2530.14,-139.46 2537.31,-131.65 2526.84,-133.28 2530.14,-139.46"/>
</g>
<!-- Node31 -->
<g id="node31" class="node">
<title>Node31</title>
<g id="a_node31"><a xlink:title=" ">
<polygon fill="none" stroke="#bfbfbf" points="2789.5,-112.5 2789.5,-131.5 2917.5,-131.5 2917.5,-112.5 2789.5,-112.5"/>
<text text-anchor="middle" x="2853.5" y="-119.5" font-family="Helvetica,sans-Serif" font-size="10.00">G4ParticleDefinition.hh</text>
</a>
</g>
</g>
<!-- Node30&#45;&gt;Node31 -->
<g id="edge33" class="edge">
<title>Node30&#45;&gt;Node31</title>
<path fill="none" stroke="midnightblue" d="M2734,-168.44C2757.58,-159.48 2794.82,-145.31 2821.46,-135.18"/>
<polygon fill="midnightblue" stroke="midnightblue" points="2823,-138.34 2831.1,-131.52 2820.51,-131.8 2823,-138.34"/>
</g>
<!-- Node32 -->
<g id="node32" class="node">
<title>Node32</title>
<g id="a_node32"><a xlink:title=" ">
<polygon fill="none" stroke="#bfbfbf" points="2652,-112.5 2652,-131.5 2771,-131.5 2771,-112.5 2652,-112.5"/>
<text text-anchor="middle" x="2711.5" y="-119.5" font-family="Helvetica,sans-Serif" font-size="10.00">G4SystemOfUnits.hh</text>
</a>
</g>
</g>
<!-- Node30&#45;&gt;Node32 -->
<g id="edge34" class="edge">
<title>Node30&#45;&gt;Node32</title>
<path fill="none" stroke="midnightblue" d="M2711.5,-168.08C2711.5,-161.01 2711.5,-150.86 2711.5,-141.99"/>
<polygon fill="midnightblue" stroke="midnightblue" points="2715,-141.75 2711.5,-131.75 2708,-141.75 2715,-141.75"/>
</g>
</g>
</svg>
