<?xml version="1.0" encoding="UTF-8" standalone="no"?>
<!DOCTYPE svg PUBLIC "-//W3C//DTD SVG 1.1//EN"
 "http://www.w3.org/Graphics/SVG/1.1/DTD/svg11.dtd">
<!-- Generated by graphviz version 2.43.0 (0)
 -->
<!-- Title: app/simulate.cxx Pages: 1 -->
<svg width="2682pt" height="252pt"
 viewBox="0.00 0.00 2682.00 252.00" xmlns="http://www.w3.org/2000/svg" xmlns:xlink="http://www.w3.org/1999/xlink">
<g id="graph0" class="graph" transform="scale(1 1) rotate(0) translate(4 248)">
<title>app/simulate.cxx</title>
<!-- Node1 -->
<g id="node1" class="node">
<title>Node1</title>
<g id="a_node1"><a xlink:title=" ">
<polygon fill="#bfbfbf" stroke="black" points="1199.5,-224.5 1199.5,-243.5 1300.5,-243.5 1300.5,-224.5 1199.5,-224.5"/>
<text text-anchor="middle" x="1250" y="-231.5" font-family="Helvetica,sans-Serif" font-size="10.00">app/simulate.cxx</text>
</a>
</g>
</g>
<!-- Node2 -->
<g id="node2" class="node">
<title>Node2</title>
<g id="a_node2"><a xlink:title=" ">
<polygon fill="none" stroke="#bfbfbf" points="70.5,-168.5 70.5,-187.5 125.5,-187.5 125.5,-168.5 70.5,-168.5"/>
<text text-anchor="middle" x="98" y="-175.5" font-family="Helvetica,sans-Serif" font-size="10.00">fstream</text>
</a>
</g>
</g>
<!-- Node1&#45;&gt;Node2 -->
<g id="edge1" class="edge">
<title>Node1&#45;&gt;Node2</title>
<path fill="none" stroke="midnightblue" d="M1199.38,-232.29C1012.96,-229.47 364.23,-217.81 135.68,-187.73"/>
<polygon fill="midnightblue" stroke="midnightblue" points="136.15,-184.26 125.77,-186.38 135.2,-191.2 136.15,-184.26"/>
</g>
<!-- Node3 -->
<g id="node3" class="node">
<title>Node3</title>
<g id="a_node3"><a xlink:title=" ">
<polygon fill="none" stroke="#bfbfbf" points="144,-168.5 144,-187.5 204,-187.5 204,-168.5 144,-168.5"/>
<text text-anchor="middle" x="174" y="-175.5" font-family="Helvetica,sans-Serif" font-size="10.00">iostream</text>
</a>
</g>
</g>
<!-- Node1&#45;&gt;Node3 -->
<g id="edge2" class="edge">
<title>Node1&#45;&gt;Node3</title>
<path fill="none" stroke="midnightblue" d="M1199.29,-233.62C1048.94,-234.85 592.67,-234.19 218,-188 216.74,-187.84 215.46,-187.67 214.17,-187.49"/>
<polygon fill="midnightblue" stroke="midnightblue" points="214.63,-184.01 204.19,-185.83 213.48,-190.92 214.63,-184.01"/>
</g>
<!-- Node4 -->
<g id="node4" class="node">
<title>Node4</title>
<g id="a_node4"><a xlink:title=" ">
<polygon fill="none" stroke="#bfbfbf" points="242,-56.5 242,-75.5 300,-75.5 300,-56.5 242,-56.5"/>
<text text-anchor="middle" x="271" y="-63.5" font-family="Helvetica,sans-Serif" font-size="10.00">memory</text>
</a>
</g>
</g>
<!-- Node1&#45;&gt;Node4 -->
<g id="edge3" class="edge">
<title>Node1&#45;&gt;Node4</title>
<path fill="none" stroke="midnightblue" d="M1199.37,-232.39C1005.97,-229.86 323.02,-218.75 289,-188 260.6,-162.33 263.27,-112.82 267.34,-85.77"/>
<polygon fill="midnightblue" stroke="midnightblue" points="270.82,-86.14 269.08,-75.69 263.93,-84.95 270.82,-86.14"/>
</g>
<!-- Node5 -->
<g id="node5" class="node">
<title>Node5</title>
<g id="a_node5"><a xlink:title=" ">
<polygon fill="none" stroke="#bfbfbf" points="521,-168.5 521,-187.5 563,-187.5 563,-168.5 521,-168.5"/>
<text text-anchor="middle" x="542" y="-175.5" font-family="Helvetica,sans-Serif" font-size="10.00">array</text>
</a>
</g>
</g>
<!-- Node1&#45;&gt;Node5 -->
<g id="edge4" class="edge">
<title>Node1&#45;&gt;Node5</title>
<path fill="none" stroke="midnightblue" d="M1199.34,-233.51C1087.53,-233.81 811.28,-229.98 573.05,-187.77"/>
<polygon fill="midnightblue" stroke="midnightblue" points="573.62,-184.32 563.16,-185.99 572.38,-191.21 573.62,-184.32"/>
</g>
<!-- Node6 -->
<g id="node6" class="node">
<title>Node6</title>
<g id="a_node6"><a xlink:title=" ">
<polygon fill="none" stroke="#bfbfbf" points="581.5,-168.5 581.5,-187.5 640.5,-187.5 640.5,-168.5 581.5,-168.5"/>
<text text-anchor="middle" x="611" y="-175.5" font-family="Helvetica,sans-Serif" font-size="10.00">QBBC.hh</text>
</a>
</g>
</g>
<!-- Node1&#45;&gt;Node6 -->
<g id="edge5" class="edge">
<title>Node1&#45;&gt;Node6</title>
<path fill="none" stroke="midnightblue" d="M1199.43,-231.9C1097.29,-229.11 859,-219.65 650.68,-188.04"/>
<polygon fill="midnightblue" stroke="midnightblue" points="651.2,-184.58 640.78,-186.52 650.13,-191.5 651.2,-184.58"/>
</g>
<!-- Node7 -->
<g id="node7" class="node">
<title>Node7</title>
<g id="a_node7"><a xlink:title=" ">
<polygon fill="none" stroke="#bfbfbf" points="658.5,-168.5 658.5,-187.5 777.5,-187.5 777.5,-168.5 658.5,-168.5"/>
<text text-anchor="middle" x="718" y="-175.5" font-family="Helvetica,sans-Serif" font-size="10.00">G4PhysListFactory.hh</text>
</a>
</g>
</g>
<!-- Node1&#45;&gt;Node7 -->
<g id="edge6" class="edge">
<title>Node1&#45;&gt;Node7</title>
<path fill="none" stroke="midnightblue" d="M1199.24,-228.62C1115.82,-221.29 944.23,-205.72 788.09,-188.09"/>
<polygon fill="midnightblue" stroke="midnightblue" points="788.16,-184.57 777.82,-186.93 787.37,-191.53 788.16,-184.57"/>
</g>
<!-- Node8 -->
<g id="node8" class="node">
<title>Node8</title>
<g id="a_node8"><a xlink:title=" ">
<polygon fill="none" stroke="#bfbfbf" points="796,-168.5 796,-187.5 940,-187.5 940,-168.5 796,-168.5"/>
<text text-anchor="middle" x="868" y="-175.5" font-family="Helvetica,sans-Serif" font-size="10.00">G4VPhysicsConstructor.hh</text>
</a>
</g>
</g>
<!-- Node1&#45;&gt;Node8 -->
<g id="edge7" class="edge">
<title>Node1&#45;&gt;Node8</title>
<path fill="none" stroke="midnightblue" d="M1199.27,-225.83C1132.26,-216.36 1013.92,-199.63 938.31,-188.94"/>
<polygon fill="midnightblue" stroke="midnightblue" points="938.78,-185.47 928.39,-187.54 937.8,-192.4 938.78,-185.47"/>
</g>
<!-- Node9 -->
<g id="node9" class="node">
<title>Node9</title>
<g id="a_node9"><a xlink:title=" ">
<polygon fill="none" stroke="#bfbfbf" points="958,-168.5 958,-187.5 1136,-187.5 1136,-168.5 958,-168.5"/>
<text text-anchor="middle" x="1047" y="-175.5" font-family="Helvetica,sans-Serif" font-size="10.00">G4VUserDetectorConstruction.hh</text>
</a>
</g>
</g>
<!-- Node1&#45;&gt;Node9 -->
<g id="edge8" class="edge">
<title>Node1&#45;&gt;Node9</title>
<path fill="none" stroke="midnightblue" d="M1217.83,-224.44C1182.94,-215.16 1127.11,-200.31 1088.83,-190.13"/>
<polygon fill="midnightblue" stroke="midnightblue" points="1089.58,-186.7 1079.02,-187.52 1087.78,-193.47 1089.58,-186.7"/>
</g>
<!-- Node10 -->
<g id="node10" class="node">
<title>Node10</title>
<g id="a_node10"><a xlink:title=" ">
<polygon fill="none" stroke="#bfbfbf" points="1154,-168.5 1154,-187.5 1346,-187.5 1346,-168.5 1154,-168.5"/>
<text text-anchor="middle" x="1250" y="-175.5" font-family="Helvetica,sans-Serif" font-size="10.00">G4VUserPrimaryGeneratorAction.hh</text>
</a>
</g>
</g>
<!-- Node1&#45;&gt;Node10 -->
<g id="edge9" class="edge">
<title>Node1&#45;&gt;Node10</title>
<path fill="none" stroke="midnightblue" d="M1250,-224.08C1250,-217.01 1250,-206.86 1250,-197.99"/>
<polygon fill="midnightblue" stroke="midnightblue" points="1253.5,-197.75 1250,-187.75 1246.5,-197.75 1253.5,-197.75"/>
</g>
<!-- Node11 -->
<g id="node11" class="node">
<title>Node11</title>
<g id="a_node11"><a xlink:title=" ">
<polygon fill="none" stroke="#bfbfbf" points="1364.5,-168.5 1364.5,-187.5 1465.5,-187.5 1465.5,-168.5 1364.5,-168.5"/>
<text text-anchor="middle" x="1415" y="-175.5" font-family="Helvetica,sans-Serif" font-size="10.00">G4ParticleGun.hh</text>
</a>
</g>
</g>
<!-- Node1&#45;&gt;Node11 -->
<g id="edge10" class="edge">
<title>Node1&#45;&gt;Node11</title>
<path fill="none" stroke="midnightblue" d="M1276.14,-224.44C1304.02,-215.32 1348.35,-200.81 1379.4,-190.65"/>
<polygon fill="midnightblue" stroke="midnightblue" points="1380.56,-193.95 1388.98,-187.52 1378.38,-187.3 1380.56,-193.95"/>
</g>
<!-- Node12 -->
<g id="node12" class="node">
<title>Node12</title>
<g id="a_node12"><a xlink:title=" ">
<polygon fill="none" stroke="#bfbfbf" points="1484,-168.5 1484,-187.5 1610,-187.5 1610,-168.5 1484,-168.5"/>
<text text-anchor="middle" x="1547" y="-175.5" font-family="Helvetica,sans-Serif" font-size="10.00">G4UserEventAction.hh</text>
</a>
</g>
</g>
<!-- Node1&#45;&gt;Node12 -->
<g id="edge11" class="edge">
<title>Node1&#45;&gt;Node12</title>
<path fill="none" stroke="midnightblue" d="M1297.06,-224.44C1349.41,-214.92 1433.99,-199.55 1490.04,-189.36"/>
<polygon fill="midnightblue" stroke="midnightblue" points="1490.95,-192.75 1500.16,-187.52 1489.69,-185.86 1490.95,-192.75"/>
</g>
<!-- Node13 -->
<g id="node13" class="node">
<title>Node13</title>
<g id="a_node13"><a xlink:title=" ">
<polygon fill="none" stroke="#bfbfbf" points="1628.5,-168.5 1628.5,-187.5 1767.5,-187.5 1767.5,-168.5 1628.5,-168.5"/>
<text text-anchor="middle" x="1698" y="-175.5" font-family="Helvetica,sans-Serif" font-size="10.00">G4UserTrackingAction.hh</text>
</a>
</g>
</g>
<!-- Node1&#45;&gt;Node13 -->
<g id="edge12" class="edge">
<title>Node1&#45;&gt;Node13</title>
<path fill="none" stroke="midnightblue" d="M1300.52,-226.91C1377.83,-217.59 1526.17,-199.71 1618.15,-188.63"/>
<polygon fill="midnightblue" stroke="midnightblue" points="1618.74,-192.08 1628.25,-187.41 1617.9,-185.13 1618.74,-192.08"/>
</g>
<!-- Node14 -->
<g id="node14" class="node">
<title>Node14</title>
<g id="a_node14"><a xlink:title=" ">
<polygon fill="none" stroke="#bfbfbf" points="1786,-168.5 1786,-187.5 1892,-187.5 1892,-168.5 1786,-168.5"/>
<text text-anchor="middle" x="1839" y="-175.5" font-family="Helvetica,sans-Serif" font-size="10.00">G4RunManager.hh</text>
</a>
</g>
</g>
<!-- Node1&#45;&gt;Node14 -->
<g id="edge13" class="edge">
<title>Node1&#45;&gt;Node14</title>
<path fill="none" stroke="midnightblue" d="M1300.5,-229.63C1392.64,-223.29 1594.38,-208.42 1775.76,-187.96"/>
<polygon fill="midnightblue" stroke="midnightblue" points="1776.21,-191.43 1785.75,-186.82 1775.42,-184.47 1776.21,-191.43"/>
</g>
<!-- Node15 -->
<g id="node15" class="node">
<title>Node15</title>
<g id="a_node15"><a xlink:title=" ">
<polygon fill="none" stroke="#bfbfbf" points="1910.5,-168.5 1910.5,-187.5 2011.5,-187.5 2011.5,-168.5 1910.5,-168.5"/>
<text text-anchor="middle" x="1961" y="-175.5" font-family="Helvetica,sans-Serif" font-size="10.00">G4MuonMinus.hh</text>
</a>
</g>
</g>
<!-- Node1&#45;&gt;Node15 -->
<g id="edge14" class="edge">
<title>Node1&#45;&gt;Node15</title>
<path fill="none" stroke="midnightblue" d="M1300.77,-230.87C1408.92,-226.04 1670.21,-212.79 1900.07,-188.01"/>
<polygon fill="midnightblue" stroke="midnightblue" points="1900.74,-191.46 1910.3,-186.9 1899.98,-184.5 1900.74,-191.46"/>
</g>
<!-- Node16 -->
<g id="node16" class="node">
<title>Node16</title>
<g id="a_node16"><a xlink:title=" ">
<polygon fill="none" stroke="#bfbfbf" points="2029.5,-168.5 2029.5,-187.5 2114.5,-187.5 2114.5,-168.5 2029.5,-168.5"/>
<text text-anchor="middle" x="2072" y="-175.5" font-family="Helvetica,sans-Serif" font-size="10.00">G4Electron.hh</text>
</a>
</g>
</g>
<!-- Node1&#45;&gt;Node16 -->
<g id="edge15" class="edge">
<title>Node1&#45;&gt;Node16</title>
<path fill="none" stroke="midnightblue" d="M1300.62,-232.02C1422.5,-229.23 1742.03,-219.4 2019.23,-187.94"/>
<polygon fill="midnightblue" stroke="midnightblue" points="2019.95,-191.38 2029.49,-186.76 2019.16,-184.42 2019.95,-191.38"/>
</g>
<!-- Node17 -->
<g id="node17" class="node">
<title>Node17</title>
<g id="a_node17"><a xlink:title=" ">
<polygon fill="none" stroke="#bfbfbf" points="2133,-168.5 2133,-187.5 2197,-187.5 2197,-168.5 2133,-168.5"/>
<text text-anchor="middle" x="2165" y="-175.5" font-family="Helvetica,sans-Serif" font-size="10.00">G4Box.hh</text>
</a>
</g>
</g>
<!-- Node1&#45;&gt;Node17 -->
<g id="edge16" class="edge">
<title>Node1&#45;&gt;Node17</title>
<path fill="none" stroke="midnightblue" d="M1300.94,-233.21C1435.73,-233.14 1812.68,-228.98 2123,-188 2123.1,-187.99 2123.2,-187.97 2123.31,-187.96"/>
<polygon fill="midnightblue" stroke="midnightblue" points="2123.67,-191.45 2132.99,-186.41 2122.56,-184.53 2123.67,-191.45"/>
</g>
<!-- Node18 -->
<g id="node18" class="node">
<title>Node18</title>
<g id="a_node18"><a xlink:title=" ">
<polygon fill="none" stroke="#bfbfbf" points="2215,-168.5 2215,-187.5 2325,-187.5 2325,-168.5 2215,-168.5"/>
<text text-anchor="middle" x="2270" y="-175.5" font-family="Helvetica,sans-Serif" font-size="10.00">G4PVPlacement.hh</text>
</a>
</g>
</g>
<!-- Node1&#45;&gt;Node18 -->
<g id="edge17" class="edge">
<title>Node1&#45;&gt;Node18</title>
<path fill="none" stroke="midnightblue" d="M1300.64,-232.27C1441.99,-229.87 1852.94,-220.5 2204.75,-188.02"/>
<polygon fill="midnightblue" stroke="midnightblue" points="2205.25,-191.49 2214.88,-187.08 2204.6,-184.52 2205.25,-191.49"/>
</g>
<!-- Node19 -->
<g id="node19" class="node">
<title>Node19</title>
<g id="a_node19"><a xlink:title=" ">
<polygon fill="none" stroke="#bfbfbf" points="2343.5,-168.5 2343.5,-187.5 2450.5,-187.5 2450.5,-168.5 2343.5,-168.5"/>
<text text-anchor="middle" x="2397" y="-175.5" font-family="Helvetica,sans-Serif" font-size="10.00">G4NistManager.hh</text>
</a>
</g>
</g>
<!-- Node1&#45;&gt;Node19 -->
<g id="edge18" class="edge">
<title>Node1&#45;&gt;Node19</title>
<path fill="none" stroke="midnightblue" d="M1300.64,-232.7C1454.33,-231.42 1929.09,-224.61 2333.29,-187.95"/>
<polygon fill="midnightblue" stroke="midnightblue" points="2333.79,-191.42 2343.43,-187.03 2333.15,-184.45 2333.79,-191.42"/>
</g>
<!-- Node20 -->
<g id="node20" class="node">
<title>Node20</title>
<g id="a_node20"><a xlink:href="G4DarkBremsstrahlung_8h.html" target="_top" xlink:title="Class providing the Dark Bremsstrahlung process class.">
<polygon fill="none" stroke="black" points="298.5,-168.5 298.5,-187.5 503.5,-187.5 503.5,-168.5 298.5,-168.5"/>
<text text-anchor="middle" x="401" y="-175.5" font-family="Helvetica,sans-Serif" font-size="10.00">G4DarkBreM/G4DarkBremsstrahlung.h</text>
</a>
</g>
</g>
<!-- Node1&#45;&gt;Node20 -->
<g id="edge19" class="edge">
<title>Node1&#45;&gt;Node20</title>
<path fill="none" stroke="midnightblue" d="M1199.42,-230.27C1081.36,-223.81 778.15,-206.79 513.69,-188.11"/>
<polygon fill="midnightblue" stroke="midnightblue" points="513.73,-184.6 503.51,-187.39 513.23,-191.58 513.73,-184.6"/>
</g>
<!-- Node27 -->
<g id="node27" class="node">
<title>Node27</title>
<g id="a_node27"><a xlink:href="G4DarkBreMModel_8h_source.html" target="_top" xlink:title=" ">
<polygon fill="none" stroke="black" points="58.5,-112.5 58.5,-131.5 241.5,-131.5 241.5,-112.5 58.5,-112.5"/>
<text text-anchor="middle" x="150" y="-119.5" font-family="Helvetica,sans-Serif" font-size="10.00">G4DarkBreM/G4DarkBreMModel.h</text>
</a>
</g>
</g>
<!-- Node1&#45;&gt;Node27 -->
<g id="edge28" class="edge">
<title>Node1&#45;&gt;Node27</title>
<path fill="none" stroke="midnightblue" d="M1199.38,-232.19C1009.57,-228.95 346.42,-215.74 256,-188 238.17,-182.53 196.12,-154.83 170.67,-137.41"/>
<polygon fill="midnightblue" stroke="midnightblue" points="172.34,-134.31 162.12,-131.51 168.36,-140.07 172.34,-134.31"/>
</g>
<!-- Node34 -->
<g id="node34" class="node">
<title>Node34</title>
<g id="a_node34"><a xlink:href="G4APrime_8h.html" target="_top" xlink:title="Class creating the A&#39; particle in Geant.">
<polygon fill="none" stroke="black" points="2469,-168.5 2469,-187.5 2609,-187.5 2609,-168.5 2469,-168.5"/>
<text text-anchor="middle" x="2539" y="-175.5" font-family="Helvetica,sans-Serif" font-size="10.00">G4DarkBreM/G4APrime.h</text>
</a>
</g>
</g>
<!-- Node1&#45;&gt;Node34 -->
<g id="edge38" class="edge">
<title>Node1&#45;&gt;Node34</title>
<path fill="none" stroke="midnightblue" d="M1300.75,-232.47C1465.86,-230.46 2002.82,-221.64 2458.71,-187.95"/>
<polygon fill="midnightblue" stroke="midnightblue" points="2459.08,-191.43 2468.79,-187.2 2458.56,-184.45 2459.08,-191.43"/>
</g>
<!-- Node21 -->
<g id="node21" class="node">
<title>Node21</title>
<g id="a_node21"><a xlink:title=" ">
<polygon fill="none" stroke="#bfbfbf" points="538,-112.5 538,-131.5 668,-131.5 668,-112.5 538,-112.5"/>
<text text-anchor="middle" x="603" y="-119.5" font-family="Helvetica,sans-Serif" font-size="10.00">G4VDiscreteProcess.hh</text>
</a>
</g>
</g>
<!-- Node20&#45;&gt;Node21 -->
<g id="edge20" class="edge">
<title>Node20&#45;&gt;Node21</title>
<path fill="none" stroke="midnightblue" d="M433.01,-168.44C467.73,-159.16 523.29,-144.31 561.38,-134.13"/>
<polygon fill="midnightblue" stroke="midnightblue" points="562.39,-137.48 571.14,-131.52 560.58,-130.72 562.39,-137.48"/>
</g>
<!-- Node22 -->
<g id="node22" class="node">
<title>Node22</title>
<g id="a_node22"><a xlink:href="PrototypeModel_8h.html" target="_top" xlink:title="Class providing a prototype model for dark brem.">
<polygon fill="none" stroke="black" points="407,-56.5 407,-75.5 575,-75.5 575,-56.5 407,-56.5"/>
<text text-anchor="middle" x="491" y="-63.5" font-family="Helvetica,sans-Serif" font-size="10.00">G4DarkBreM/PrototypeModel.h</text>
</a>
</g>
</g>
<!-- Node20&#45;&gt;Node22 -->
<g id="edge21" class="edge">
<title>Node20&#45;&gt;Node22</title>
<path fill="none" stroke="midnightblue" d="M438.1,-168.46C457.44,-161.92 479.43,-150.72 491,-132 499.52,-118.21 498.48,-99.44 495.93,-85.61"/>
<polygon fill="midnightblue" stroke="midnightblue" points="499.32,-84.76 493.71,-75.77 492.49,-86.3 499.32,-84.76"/>
</g>
<!-- Node26 -->
<g id="node26" class="node">
<title>Node26</title>
<g id="a_node26"><a xlink:href="ElementXsecCache_8h_source.html" target="_top" xlink:title=" ">
<polygon fill="none" stroke="black" points="297.5,-112.5 297.5,-131.5 482.5,-131.5 482.5,-112.5 297.5,-112.5"/>
<text text-anchor="middle" x="390" y="-119.5" font-family="Helvetica,sans-Serif" font-size="10.00">G4DarkBreM/ElementXsecCache.h</text>
</a>
</g>
</g>
<!-- Node20&#45;&gt;Node26 -->
<g id="edge25" class="edge">
<title>Node20&#45;&gt;Node26</title>
<path fill="none" stroke="midnightblue" d="M399.18,-168.08C397.73,-160.93 395.63,-150.64 393.81,-141.69"/>
<polygon fill="midnightblue" stroke="midnightblue" points="397.21,-140.85 391.78,-131.75 390.35,-142.25 397.21,-140.85"/>
</g>
<!-- Node23 -->
<g id="node23" class="node">
<title>Node23</title>
<g id="a_node23"><a xlink:title=" ">
<polygon fill="none" stroke="#bfbfbf" points="437.5,-0.5 437.5,-19.5 508.5,-19.5 508.5,-0.5 437.5,-0.5"/>
<text text-anchor="middle" x="473" y="-7.5" font-family="Helvetica,sans-Serif" font-size="10.00">G4Track.hh</text>
</a>
</g>
</g>
<!-- Node22&#45;&gt;Node23 -->
<g id="edge22" class="edge">
<title>Node22&#45;&gt;Node23</title>
<path fill="none" stroke="midnightblue" d="M488.03,-56.08C485.62,-48.85 482.14,-38.41 479.13,-29.4"/>
<polygon fill="midnightblue" stroke="midnightblue" points="482.4,-28.13 475.92,-19.75 475.76,-30.34 482.4,-28.13"/>
</g>
<!-- Node24 -->
<g id="node24" class="node">
<title>Node24</title>
<g id="a_node24"><a xlink:title=" ">
<polygon fill="none" stroke="#bfbfbf" points="526.5,-0.5 526.5,-19.5 593.5,-19.5 593.5,-0.5 526.5,-0.5"/>
<text text-anchor="middle" x="560" y="-7.5" font-family="Helvetica,sans-Serif" font-size="10.00">G4Step.hh</text>
</a>
</g>
</g>
<!-- Node22&#45;&gt;Node24 -->
<g id="edge23" class="edge">
<title>Node22&#45;&gt;Node24</title>
<path fill="none" stroke="midnightblue" d="M502.09,-56.32C512.49,-48.18 528.26,-35.84 540.72,-26.09"/>
<polygon fill="midnightblue" stroke="midnightblue" points="542.99,-28.75 548.71,-19.83 538.68,-23.24 542.99,-28.75"/>
</g>
<!-- Node25 -->
<g id="node25" class="node">
<title>Node25</title>
<g id="a_node25"><a xlink:title=" ">
<polygon fill="none" stroke="#bfbfbf" points="612,-0.5 612,-19.5 730,-19.5 730,-0.5 612,-0.5"/>
<text text-anchor="middle" x="671" y="-7.5" font-family="Helvetica,sans-Serif" font-size="10.00">G4ParticleChange.hh</text>
</a>
</g>
</g>
<!-- Node22&#45;&gt;Node25 -->
<g id="edge24" class="edge">
<title>Node22&#45;&gt;Node25</title>
<path fill="none" stroke="midnightblue" d="M519.52,-56.44C550.07,-47.28 598.71,-32.69 632.6,-22.52"/>
<polygon fill="midnightblue" stroke="midnightblue" points="634.04,-25.74 642.61,-19.52 632.03,-19.04 634.04,-25.74"/>
</g>
<!-- Node26&#45;&gt;Node4 -->
<g id="edge26" class="edge">
<title>Node26&#45;&gt;Node4</title>
<path fill="none" stroke="midnightblue" d="M371.14,-112.44C351.73,-103.64 321.27,-89.81 299.04,-79.72"/>
<polygon fill="midnightblue" stroke="midnightblue" points="300.32,-76.46 289.77,-75.52 297.43,-82.84 300.32,-76.46"/>
</g>
<!-- Node26&#45;&gt;Node22 -->
<g id="edge27" class="edge">
<title>Node26&#45;&gt;Node22</title>
<path fill="none" stroke="midnightblue" d="M406.23,-112.32C422.35,-103.7 447.3,-90.36 465.96,-80.39"/>
<polygon fill="midnightblue" stroke="midnightblue" points="467.64,-83.46 474.81,-75.65 464.34,-77.28 467.64,-83.46"/>
</g>
<!-- Node27&#45;&gt;Node4 -->
<g id="edge29" class="edge">
<title>Node27&#45;&gt;Node4</title>
<path fill="none" stroke="midnightblue" d="M169.17,-112.44C188.91,-103.64 219.89,-89.81 242.49,-79.72"/>
<polygon fill="midnightblue" stroke="midnightblue" points="244.21,-82.79 251.92,-75.52 241.36,-76.4 244.21,-82.79"/>
</g>
<!-- Node27&#45;&gt;Node22 -->
<g id="edge37" class="edge">
<title>Node27&#45;&gt;Node22</title>
<path fill="none" stroke="midnightblue" d="M204.03,-112.44C264.64,-102.85 362.86,-87.29 427.2,-77.1"/>
<polygon fill="midnightblue" stroke="midnightblue" points="427.89,-80.54 437.22,-75.52 426.8,-73.62 427.89,-80.54"/>
</g>
<!-- Node28 -->
<g id="node28" class="node">
<title>Node28</title>
<g id="a_node28"><a xlink:title=" ">
<polygon fill="none" stroke="#bfbfbf" points="0,-0.5 0,-19.5 38,-19.5 38,-0.5 0,-0.5"/>
<text text-anchor="middle" x="19" y="-7.5" font-family="Helvetica,sans-Serif" font-size="10.00">map</text>
</a>
</g>
</g>
<!-- Node27&#45;&gt;Node28 -->
<g id="edge30" class="edge">
<title>Node27&#45;&gt;Node28</title>
<path fill="none" stroke="midnightblue" d="M127.97,-112.49C109.97,-104.81 84.56,-92.22 66,-76 50.32,-62.3 36.93,-42.43 28.5,-28.28"/>
<polygon fill="midnightblue" stroke="midnightblue" points="31.49,-26.47 23.48,-19.53 25.42,-29.95 31.49,-26.47"/>
</g>
<!-- Node29 -->
<g id="node29" class="node">
<title>Node29</title>
<g id="a_node29"><a xlink:href="ParseLibrary_8h.html" target="_top" xlink:title=" ">
<polygon fill="none" stroke="black" points="75.5,-56.5 75.5,-75.5 224.5,-75.5 224.5,-56.5 75.5,-56.5"/>
<text text-anchor="middle" x="150" y="-63.5" font-family="Helvetica,sans-Serif" font-size="10.00">G4DarkBreM/ParseLibrary.h</text>
</a>
</g>
</g>
<!-- Node27&#45;&gt;Node29 -->
<g id="edge31" class="edge">
<title>Node27&#45;&gt;Node29</title>
<path fill="none" stroke="midnightblue" d="M150,-112.08C150,-105.01 150,-94.86 150,-85.99"/>
<polygon fill="midnightblue" stroke="midnightblue" points="153.5,-85.75 150,-75.75 146.5,-85.75 153.5,-85.75"/>
</g>
<!-- Node29&#45;&gt;Node28 -->
<g id="edge33" class="edge">
<title>Node29&#45;&gt;Node28</title>
<path fill="none" stroke="midnightblue" d="M129.24,-56.44C107.3,-47.4 72.53,-33.07 47.92,-22.92"/>
<polygon fill="midnightblue" stroke="midnightblue" points="48.96,-19.56 38.38,-18.99 46.29,-26.04 48.96,-19.56"/>
</g>
<!-- Node30 -->
<g id="node30" class="node">
<title>Node30</title>
<g id="a_node30"><a xlink:title=" ">
<polygon fill="none" stroke="#bfbfbf" points="375,-0.5 375,-19.5 419,-19.5 419,-0.5 375,-0.5"/>
<text text-anchor="middle" x="397" y="-7.5" font-family="Helvetica,sans-Serif" font-size="10.00">string</text>
</a>
</g>
</g>
<!-- Node29&#45;&gt;Node30 -->
<g id="edge32" class="edge">
<title>Node29&#45;&gt;Node30</title>
<path fill="none" stroke="midnightblue" d="M196.16,-56.45C237.91,-48.48 301.27,-35.8 364.9,-20.13"/>
<polygon fill="midnightblue" stroke="midnightblue" points="365.84,-23.5 374.7,-17.7 364.16,-16.71 365.84,-23.5"/>
</g>
<!-- Node31 -->
<g id="node31" class="node">
<title>Node31</title>
<g id="a_node31"><a xlink:title=" ">
<polygon fill="none" stroke="#bfbfbf" points="56.5,-0.5 56.5,-19.5 103.5,-19.5 103.5,-0.5 56.5,-0.5"/>
<text text-anchor="middle" x="80" y="-7.5" font-family="Helvetica,sans-Serif" font-size="10.00">vector</text>
</a>
</g>
</g>
<!-- Node29&#45;&gt;Node31 -->
<g id="edge34" class="edge">
<title>Node29&#45;&gt;Node31</title>
<path fill="none" stroke="midnightblue" d="M138.75,-56.32C128.2,-48.18 112.2,-35.84 99.56,-26.09"/>
<polygon fill="midnightblue" stroke="midnightblue" points="101.51,-23.17 91.45,-19.83 97.23,-28.71 101.51,-23.17"/>
</g>
<!-- Node32 -->
<g id="node32" class="node">
<title>Node32</title>
<g id="a_node32"><a xlink:title=" ">
<polygon fill="none" stroke="#bfbfbf" points="121.5,-0.5 121.5,-19.5 178.5,-19.5 178.5,-0.5 121.5,-0.5"/>
<text text-anchor="middle" x="150" y="-7.5" font-family="Helvetica,sans-Serif" font-size="10.00">ostream</text>
</a>
</g>
</g>
<!-- Node29&#45;&gt;Node32 -->
<g id="edge35" class="edge">
<title>Node29&#45;&gt;Node32</title>
<path fill="none" stroke="midnightblue" d="M150,-56.08C150,-49.01 150,-38.86 150,-29.99"/>
<polygon fill="midnightblue" stroke="midnightblue" points="153.5,-29.75 150,-19.75 146.5,-29.75 153.5,-29.75"/>
</g>
<!-- Node33 -->
<g id="node33" class="node">
<title>Node33</title>
<g id="a_node33"><a xlink:title=" ">
<polygon fill="none" stroke="#bfbfbf" points="197,-0.5 197,-19.5 357,-19.5 357,-0.5 197,-0.5"/>
<text text-anchor="middle" x="277" y="-7.5" font-family="Helvetica,sans-Serif" font-size="10.00">CLHEP/Vector/LorentzVector.h</text>
</a>
</g>
</g>
<!-- Node29&#45;&gt;Node33 -->
<g id="edge36" class="edge">
<title>Node29&#45;&gt;Node33</title>
<path fill="none" stroke="midnightblue" d="M170.12,-56.44C191.02,-47.56 223.93,-33.56 247.72,-23.45"/>
<polygon fill="midnightblue" stroke="midnightblue" points="249.14,-26.65 256.97,-19.52 246.4,-20.21 249.14,-26.65"/>
</g>
<!-- Node35 -->
<g id="node35" class="node">
<title>Node35</title>
<g id="a_node35"><a xlink:title=" ">
<polygon fill="none" stroke="#bfbfbf" points="2546,-112.5 2546,-131.5 2674,-131.5 2674,-112.5 2546,-112.5"/>
<text text-anchor="middle" x="2610" y="-119.5" font-family="Helvetica,sans-Serif" font-size="10.00">G4ParticleDefinition.hh</text>
</a>
</g>
</g>
<!-- Node34&#45;&gt;Node35 -->
<g id="edge39" class="edge">
<title>Node34&#45;&gt;Node35</title>
<path fill="none" stroke="midnightblue" d="M2550.41,-168.32C2561.11,-160.18 2577.34,-147.84 2590.16,-138.09"/>
<polygon fill="midnightblue" stroke="midnightblue" points="2592.54,-140.67 2598.39,-131.83 2588.31,-135.1 2592.54,-140.67"/>
</g>
<!-- Node36 -->
<g id="node36" class="node">
<title>Node36</title>
<g id="a_node36"><a xlink:title=" ">
<polygon fill="none" stroke="#bfbfbf" points="2408.5,-112.5 2408.5,-131.5 2527.5,-131.5 2527.5,-112.5 2408.5,-112.5"/>
<text text-anchor="middle" x="2468" y="-119.5" font-family="Helvetica,sans-Serif" font-size="10.00">G4SystemOfUnits.hh</text>
</a>
</g>
</g>
<!-- Node34&#45;&gt;Node36 -->
<g id="edge40" class="edge">
<title>Node34&#45;&gt;Node36</title>
<path fill="none" stroke="midnightblue" d="M2527.59,-168.32C2516.89,-160.18 2500.66,-147.84 2487.84,-138.09"/>
<polygon fill="midnightblue" stroke="midnightblue" points="2489.69,-135.1 2479.61,-131.83 2485.46,-140.67 2489.69,-135.1"/>
</g>
</g>
</svg>
