<?xml version="1.0" encoding="UTF-8" standalone="no"?>
<!DOCTYPE svg PUBLIC "-//W3C//DTD SVG 1.1//EN"
 "http://www.w3.org/Graphics/SVG/1.1/DTD/svg11.dtd">
<!-- Generated by graphviz version 2.43.0 (0)
 -->
<!-- Title: app/xsec_calc.cxx Pages: 1 -->
<svg width="1010pt" height="252pt"
 viewBox="0.00 0.00 1009.50 252.00" xmlns="http://www.w3.org/2000/svg" xmlns:xlink="http://www.w3.org/1999/xlink">
<g id="graph0" class="graph" transform="scale(1 1) rotate(0) translate(4 248)">
<title>app/xsec_calc.cxx</title>
<!-- Node1 -->
<g id="node1" class="node">
<title>Node1</title>
<g id="a_node1"><a xlink:title=" ">
<polygon fill="#bfbfbf" stroke="black" points="207.5,-224.5 207.5,-243.5 312.5,-243.5 312.5,-224.5 207.5,-224.5"/>
<text text-anchor="middle" x="260" y="-231.5" font-family="Helvetica,sans-Serif" font-size="10.00">app/xsec_calc.cxx</text>
</a>
</g>
</g>
<!-- Node2 -->
<g id="node2" class="node">
<title>Node2</title>
<g id="a_node2"><a xlink:title=" ">
<polygon fill="none" stroke="#bfbfbf" points="5.5,-168.5 5.5,-187.5 60.5,-187.5 60.5,-168.5 5.5,-168.5"/>
<text text-anchor="middle" x="33" y="-175.5" font-family="Helvetica,sans-Serif" font-size="10.00">fstream</text>
</a>
</g>
</g>
<!-- Node1&#45;&gt;Node2 -->
<g id="edge1" class="edge">
<title>Node1&#45;&gt;Node2</title>
<path fill="none" stroke="midnightblue" d="M223.56,-224.44C187.32,-215.91 129.86,-202.34 70.76,-188.17"/>
<polygon fill="midnightblue" stroke="midnightblue" points="71.42,-184.73 60.88,-185.8 69.78,-191.54 71.42,-184.73"/>
</g>
<!-- Node3 -->
<g id="node3" class="node">
<title>Node3</title>
<g id="a_node3"><a xlink:title=" ">
<polygon fill="none" stroke="#bfbfbf" points="79,-168.5 79,-187.5 139,-187.5 139,-168.5 79,-168.5"/>
<text text-anchor="middle" x="109" y="-175.5" font-family="Helvetica,sans-Serif" font-size="10.00">iostream</text>
</a>
</g>
</g>
<!-- Node1&#45;&gt;Node3 -->
<g id="edge2" class="edge">
<title>Node1&#45;&gt;Node3</title>
<path fill="none" stroke="midnightblue" d="M236.07,-224.44C210.78,-215.4 170.7,-201.06 142.32,-190.92"/>
<polygon fill="midnightblue" stroke="midnightblue" points="143.41,-187.59 132.81,-187.52 141.05,-194.18 143.41,-187.59"/>
</g>
<!-- Node4 -->
<g id="node4" class="node">
<title>Node4</title>
<g id="a_node4"><a xlink:href="G4DarkBremsstrahlung_8h.html" target="_top" xlink:title="Class providing the Dark Bremsstrahlung process class.">
<polygon fill="none" stroke="black" points="157.5,-168.5 157.5,-187.5 362.5,-187.5 362.5,-168.5 157.5,-168.5"/>
<text text-anchor="middle" x="260" y="-175.5" font-family="Helvetica,sans-Serif" font-size="10.00">G4DarkBreM/G4DarkBremsstrahlung.h</text>
</a>
</g>
</g>
<!-- Node1&#45;&gt;Node4 -->
<g id="edge3" class="edge">
<title>Node1&#45;&gt;Node4</title>
<path fill="none" stroke="midnightblue" d="M260,-224.08C260,-217.01 260,-206.86 260,-197.99"/>
<polygon fill="midnightblue" stroke="midnightblue" points="263.5,-197.75 260,-187.75 256.5,-197.75 263.5,-197.75"/>
</g>
<!-- Node11 -->
<g id="node11" class="node">
<title>Node11</title>
<g id="a_node11"><a xlink:href="G4DarkBreMModel_8h_source.html" target="_top" xlink:title=" ">
<polygon fill="none" stroke="black" points="380.5,-168.5 380.5,-187.5 563.5,-187.5 563.5,-168.5 380.5,-168.5"/>
<text text-anchor="middle" x="472" y="-175.5" font-family="Helvetica,sans-Serif" font-size="10.00">G4DarkBreM/G4DarkBreMModel.h</text>
</a>
</g>
</g>
<!-- Node1&#45;&gt;Node11 -->
<g id="edge11" class="edge">
<title>Node1&#45;&gt;Node11</title>
<path fill="none" stroke="midnightblue" d="M293.59,-224.44C330.19,-215.12 388.84,-200.18 428.83,-190"/>
<polygon fill="midnightblue" stroke="midnightblue" points="429.74,-193.38 438.57,-187.52 428.01,-186.59 429.74,-193.38"/>
</g>
<!-- Node15 -->
<g id="node15" class="node">
<title>Node15</title>
<g id="a_node15"><a xlink:href="G4APrime_8h.html" target="_top" xlink:title="Class creating the A&#39; particle in Geant.">
<polygon fill="none" stroke="black" points="730,-168.5 730,-187.5 870,-187.5 870,-168.5 730,-168.5"/>
<text text-anchor="middle" x="800" y="-175.5" font-family="Helvetica,sans-Serif" font-size="10.00">G4DarkBreM/G4APrime.h</text>
</a>
</g>
</g>
<!-- Node1&#45;&gt;Node15 -->
<g id="edge16" class="edge">
<title>Node1&#45;&gt;Node15</title>
<path fill="none" stroke="midnightblue" d="M312.76,-227.72C407.6,-218.24 607.4,-198.26 719.45,-187.06"/>
<polygon fill="midnightblue" stroke="midnightblue" points="720.08,-190.51 729.68,-186.03 719.38,-183.54 720.08,-190.51"/>
</g>
<!-- Node5 -->
<g id="node5" class="node">
<title>Node5</title>
<g id="a_node5"><a xlink:title=" ">
<polygon fill="none" stroke="#bfbfbf" points="0,-112.5 0,-131.5 130,-131.5 130,-112.5 0,-112.5"/>
<text text-anchor="middle" x="65" y="-119.5" font-family="Helvetica,sans-Serif" font-size="10.00">G4VDiscreteProcess.hh</text>
</a>
</g>
</g>
<!-- Node4&#45;&gt;Node5 -->
<g id="edge4" class="edge">
<title>Node4&#45;&gt;Node5</title>
<path fill="none" stroke="midnightblue" d="M229.1,-168.44C195.73,-159.2 142.41,-144.44 105.65,-134.26"/>
<polygon fill="midnightblue" stroke="midnightblue" points="106.33,-130.81 95.75,-131.52 104.46,-137.56 106.33,-130.81"/>
</g>
<!-- Node6 -->
<g id="node6" class="node">
<title>Node6</title>
<g id="a_node6"><a xlink:href="PrototypeModel_8h.html" target="_top" xlink:title="Class providing a prototype model for dark brem.">
<polygon fill="none" stroke="black" points="194,-56.5 194,-75.5 362,-75.5 362,-56.5 194,-56.5"/>
<text text-anchor="middle" x="278" y="-63.5" font-family="Helvetica,sans-Serif" font-size="10.00">G4DarkBreM/PrototypeModel.h</text>
</a>
</g>
</g>
<!-- Node4&#45;&gt;Node6 -->
<g id="edge5" class="edge">
<title>Node4&#45;&gt;Node6</title>
<path fill="none" stroke="midnightblue" d="M231.05,-168.44C200.55,-157.84 159.08,-137.95 176,-112 186.48,-95.92 204.14,-85.55 221.85,-78.87"/>
<polygon fill="midnightblue" stroke="midnightblue" points="223.31,-82.07 231.64,-75.53 221.05,-75.45 223.31,-82.07"/>
</g>
<!-- Node10 -->
<g id="node10" class="node">
<title>Node10</title>
<g id="a_node10"><a xlink:href="ElementXsecCache_8h_source.html" target="_top" xlink:title=" ">
<polygon fill="none" stroke="black" points="185.5,-112.5 185.5,-131.5 370.5,-131.5 370.5,-112.5 185.5,-112.5"/>
<text text-anchor="middle" x="278" y="-119.5" font-family="Helvetica,sans-Serif" font-size="10.00">G4DarkBreM/ElementXsecCache.h</text>
</a>
</g>
</g>
<!-- Node4&#45;&gt;Node10 -->
<g id="edge9" class="edge">
<title>Node4&#45;&gt;Node10</title>
<path fill="none" stroke="midnightblue" d="M262.97,-168.08C265.38,-160.85 268.86,-150.41 271.87,-141.4"/>
<polygon fill="midnightblue" stroke="midnightblue" points="275.24,-142.34 275.08,-131.75 268.6,-140.13 275.24,-142.34"/>
</g>
<!-- Node7 -->
<g id="node7" class="node">
<title>Node7</title>
<g id="a_node7"><a xlink:title=" ">
<polygon fill="none" stroke="#bfbfbf" points="155.5,-0.5 155.5,-19.5 226.5,-19.5 226.5,-0.5 155.5,-0.5"/>
<text text-anchor="middle" x="191" y="-7.5" font-family="Helvetica,sans-Serif" font-size="10.00">G4Track.hh</text>
</a>
</g>
</g>
<!-- Node6&#45;&gt;Node7 -->
<g id="edge6" class="edge">
<title>Node6&#45;&gt;Node7</title>
<path fill="none" stroke="midnightblue" d="M264.02,-56.32C250.45,-47.9 229.62,-34.97 213.68,-25.07"/>
<polygon fill="midnightblue" stroke="midnightblue" points="215.29,-21.95 204.94,-19.65 211.59,-27.9 215.29,-21.95"/>
</g>
<!-- Node8 -->
<g id="node8" class="node">
<title>Node8</title>
<g id="a_node8"><a xlink:title=" ">
<polygon fill="none" stroke="#bfbfbf" points="244.5,-0.5 244.5,-19.5 311.5,-19.5 311.5,-0.5 244.5,-0.5"/>
<text text-anchor="middle" x="278" y="-7.5" font-family="Helvetica,sans-Serif" font-size="10.00">G4Step.hh</text>
</a>
</g>
</g>
<!-- Node6&#45;&gt;Node8 -->
<g id="edge7" class="edge">
<title>Node6&#45;&gt;Node8</title>
<path fill="none" stroke="midnightblue" d="M278,-56.08C278,-49.01 278,-38.86 278,-29.99"/>
<polygon fill="midnightblue" stroke="midnightblue" points="281.5,-29.75 278,-19.75 274.5,-29.75 281.5,-29.75"/>
</g>
<!-- Node9 -->
<g id="node9" class="node">
<title>Node9</title>
<g id="a_node9"><a xlink:title=" ">
<polygon fill="none" stroke="#bfbfbf" points="330,-0.5 330,-19.5 448,-19.5 448,-0.5 330,-0.5"/>
<text text-anchor="middle" x="389" y="-7.5" font-family="Helvetica,sans-Serif" font-size="10.00">G4ParticleChange.hh</text>
</a>
</g>
</g>
<!-- Node6&#45;&gt;Node9 -->
<g id="edge8" class="edge">
<title>Node6&#45;&gt;Node9</title>
<path fill="none" stroke="midnightblue" d="M295.83,-56.32C313.72,-47.62 341.48,-34.12 362.05,-24.11"/>
<polygon fill="midnightblue" stroke="midnightblue" points="363.75,-27.18 371.21,-19.65 360.69,-20.88 363.75,-27.18"/>
</g>
<!-- Node10&#45;&gt;Node6 -->
<g id="edge10" class="edge">
<title>Node10&#45;&gt;Node6</title>
<path fill="none" stroke="midnightblue" d="M278,-112.08C278,-105.01 278,-94.86 278,-85.99"/>
<polygon fill="midnightblue" stroke="midnightblue" points="281.5,-85.75 278,-75.75 274.5,-85.75 281.5,-85.75"/>
</g>
<!-- Node11&#45;&gt;Node6 -->
<g id="edge14" class="edge">
<title>Node11&#45;&gt;Node6</title>
<path fill="none" stroke="midnightblue" d="M461.28,-168.49C444.42,-155.33 410.38,-129.74 379,-112 356.74,-99.42 330.3,-87.74 310.06,-79.44"/>
<polygon fill="midnightblue" stroke="midnightblue" points="311.25,-76.15 300.66,-75.65 308.63,-82.64 311.25,-76.15"/>
</g>
<!-- Node12 -->
<g id="node12" class="node">
<title>Node12</title>
<g id="a_node12"><a xlink:title=" ">
<polygon fill="none" stroke="#bfbfbf" points="426,-112.5 426,-131.5 484,-131.5 484,-112.5 426,-112.5"/>
<text text-anchor="middle" x="455" y="-119.5" font-family="Helvetica,sans-Serif" font-size="10.00">memory</text>
</a>
</g>
</g>
<!-- Node11&#45;&gt;Node12 -->
<g id="edge12" class="edge">
<title>Node11&#45;&gt;Node12</title>
<path fill="none" stroke="midnightblue" d="M469.19,-168.08C466.92,-160.85 463.63,-150.41 460.79,-141.4"/>
<polygon fill="midnightblue" stroke="midnightblue" points="464.1,-140.24 457.75,-131.75 457.42,-142.34 464.1,-140.24"/>
</g>
<!-- Node13 -->
<g id="node13" class="node">
<title>Node13</title>
<g id="a_node13"><a xlink:title=" ">
<polygon fill="none" stroke="#bfbfbf" points="502,-112.5 502,-131.5 540,-131.5 540,-112.5 502,-112.5"/>
<text text-anchor="middle" x="521" y="-119.5" font-family="Helvetica,sans-Serif" font-size="10.00">map</text>
</a>
</g>
</g>
<!-- Node11&#45;&gt;Node13 -->
<g id="edge13" class="edge">
<title>Node11&#45;&gt;Node13</title>
<path fill="none" stroke="midnightblue" d="M480.09,-168.08C487.16,-160.3 497.59,-148.8 506.15,-139.37"/>
<polygon fill="midnightblue" stroke="midnightblue" points="508.93,-141.51 513.06,-131.75 503.75,-136.8 508.93,-141.51"/>
</g>
<!-- Node14 -->
<g id="node14" class="node">
<title>Node14</title>
<g id="a_node14"><a xlink:title=" ">
<polygon fill="none" stroke="#bfbfbf" points="558,-112.5 558,-131.5 718,-131.5 718,-112.5 558,-112.5"/>
<text text-anchor="middle" x="638" y="-119.5" font-family="Helvetica,sans-Serif" font-size="10.00">CLHEP/Vector/LorentzVector.h</text>
</a>
</g>
</g>
<!-- Node11&#45;&gt;Node14 -->
<g id="edge15" class="edge">
<title>Node11&#45;&gt;Node14</title>
<path fill="none" stroke="midnightblue" d="M498.3,-168.44C526.35,-159.32 570.94,-144.81 602.18,-134.65"/>
<polygon fill="midnightblue" stroke="midnightblue" points="603.39,-137.94 611.82,-131.52 601.23,-131.28 603.39,-137.94"/>
</g>
<!-- Node16 -->
<g id="node16" class="node">
<title>Node16</title>
<g id="a_node16"><a xlink:title=" ">
<polygon fill="none" stroke="#bfbfbf" points="736,-112.5 736,-131.5 864,-131.5 864,-112.5 736,-112.5"/>
<text text-anchor="middle" x="800" y="-119.5" font-family="Helvetica,sans-Serif" font-size="10.00">G4ParticleDefinition.hh</text>
</a>
</g>
</g>
<!-- Node15&#45;&gt;Node16 -->
<g id="edge17" class="edge">
<title>Node15&#45;&gt;Node16</title>
<path fill="none" stroke="midnightblue" d="M800,-168.08C800,-161.01 800,-150.86 800,-141.99"/>
<polygon fill="midnightblue" stroke="midnightblue" points="803.5,-141.75 800,-131.75 796.5,-141.75 803.5,-141.75"/>
</g>
<!-- Node17 -->
<g id="node17" class="node">
<title>Node17</title>
<g id="a_node17"><a xlink:title=" ">
<polygon fill="none" stroke="#bfbfbf" points="882.5,-112.5 882.5,-131.5 1001.5,-131.5 1001.5,-112.5 882.5,-112.5"/>
<text text-anchor="middle" x="942" y="-119.5" font-family="Helvetica,sans-Serif" font-size="10.00">G4SystemOfUnits.hh</text>
</a>
</g>
</g>
<!-- Node15&#45;&gt;Node17 -->
<g id="edge18" class="edge">
<title>Node15&#45;&gt;Node17</title>
<path fill="none" stroke="midnightblue" d="M822.5,-168.44C846.08,-159.48 883.32,-145.31 909.96,-135.18"/>
<polygon fill="midnightblue" stroke="midnightblue" points="911.5,-138.34 919.6,-131.52 909.01,-131.8 911.5,-138.34"/>
</g>
</g>
</svg>
