<?xml version="1.0" encoding="UTF-8" standalone="no"?>
<!DOCTYPE svg PUBLIC "-//W3C//DTD SVG 1.1//EN"
 "http://www.w3.org/Graphics/SVG/1.1/DTD/svg11.dtd">
<!-- Generated by graphviz version 2.43.0 (0)
 -->
<!-- Title: app/xsec_calc.cxx Pages: 1 -->
<svg width="888pt" height="252pt"
 viewBox="0.00 0.00 888.00 252.00" xmlns="http://www.w3.org/2000/svg" xmlns:xlink="http://www.w3.org/1999/xlink">
<g id="graph0" class="graph" transform="scale(1 1) rotate(0) translate(4 248)">
<title>app/xsec_calc.cxx</title>
<!-- Node1 -->
<g id="node1" class="node">
<title>Node1</title>
<g id="a_node1"><a xlink:title=" ">
<polygon fill="#bfbfbf" stroke="black" points="225.5,-224.5 225.5,-243.5 330.5,-243.5 330.5,-224.5 225.5,-224.5"/>
<text text-anchor="middle" x="278" y="-231.5" font-family="Helvetica,sans-Serif" font-size="10.00">app/xsec_calc.cxx</text>
</a>
</g>
</g>
<!-- Node2 -->
<g id="node2" class="node">
<title>Node2</title>
<g id="a_node2"><a xlink:title=" ">
<polygon fill="none" stroke="#bfbfbf" points="23.5,-168.5 23.5,-187.5 78.5,-187.5 78.5,-168.5 23.5,-168.5"/>
<text text-anchor="middle" x="51" y="-175.5" font-family="Helvetica,sans-Serif" font-size="10.00">fstream</text>
</a>
</g>
</g>
<!-- Node1&#45;&gt;Node2 -->
<g id="edge1" class="edge">
<title>Node1&#45;&gt;Node2</title>
<path fill="none" stroke="midnightblue" d="M241.56,-224.44C205.32,-215.91 147.86,-202.34 88.76,-188.17"/>
<polygon fill="midnightblue" stroke="midnightblue" points="89.42,-184.73 78.88,-185.8 87.78,-191.54 89.42,-184.73"/>
</g>
<!-- Node3 -->
<g id="node3" class="node">
<title>Node3</title>
<g id="a_node3"><a xlink:title=" ">
<polygon fill="none" stroke="#bfbfbf" points="97,-168.5 97,-187.5 157,-187.5 157,-168.5 97,-168.5"/>
<text text-anchor="middle" x="127" y="-175.5" font-family="Helvetica,sans-Serif" font-size="10.00">iostream</text>
</a>
</g>
</g>
<!-- Node1&#45;&gt;Node3 -->
<g id="edge2" class="edge">
<title>Node1&#45;&gt;Node3</title>
<path fill="none" stroke="midnightblue" d="M254.07,-224.44C228.78,-215.4 188.7,-201.06 160.32,-190.92"/>
<polygon fill="midnightblue" stroke="midnightblue" points="161.41,-187.59 150.81,-187.52 159.05,-194.18 161.41,-187.59"/>
</g>
<!-- Node4 -->
<g id="node4" class="node">
<title>Node4</title>
<g id="a_node4"><a xlink:href="G4DarkBremsstrahlung_8h.html" target="_top" xlink:title="Class providing the Dark Bremsstrahlung process class.">
<polygon fill="none" stroke="black" points="175.5,-168.5 175.5,-187.5 380.5,-187.5 380.5,-168.5 175.5,-168.5"/>
<text text-anchor="middle" x="278" y="-175.5" font-family="Helvetica,sans-Serif" font-size="10.00">G4DarkBreM/G4DarkBremsstrahlung.h</text>
</a>
</g>
</g>
<!-- Node1&#45;&gt;Node4 -->
<g id="edge3" class="edge">
<title>Node1&#45;&gt;Node4</title>
<path fill="none" stroke="midnightblue" d="M278,-224.08C278,-217.01 278,-206.86 278,-197.99"/>
<polygon fill="midnightblue" stroke="midnightblue" points="281.5,-197.75 278,-187.75 274.5,-197.75 281.5,-197.75"/>
</g>
<!-- Node12 -->
<g id="node12" class="node">
<title>Node12</title>
<g id="a_node12"><a xlink:href="G4DarkBreMModel_8h_source.html" target="_top" xlink:title=" ">
<polygon fill="none" stroke="black" points="388.5,-112.5 388.5,-131.5 571.5,-131.5 571.5,-112.5 388.5,-112.5"/>
<text text-anchor="middle" x="480" y="-119.5" font-family="Helvetica,sans-Serif" font-size="10.00">G4DarkBreM/G4DarkBreMModel.h</text>
</a>
</g>
</g>
<!-- Node1&#45;&gt;Node12 -->
<g id="edge12" class="edge">
<title>Node1&#45;&gt;Node12</title>
<path fill="none" stroke="midnightblue" d="M303.91,-224.45C326.92,-216.41 361.12,-203.33 389,-188 415.76,-173.29 443.98,-152.12 461.77,-137.98"/>
<polygon fill="midnightblue" stroke="midnightblue" points="464.02,-140.66 469.62,-131.67 459.63,-135.21 464.02,-140.66"/>
</g>
<!-- Node19 -->
<g id="node19" class="node">
<title>Node19</title>
<g id="a_node19"><a xlink:href="G4APrime_8h.html" target="_top" xlink:title="Class creating the A&#39; particle in Geant.">
<polygon fill="none" stroke="black" points="584,-168.5 584,-187.5 724,-187.5 724,-168.5 584,-168.5"/>
<text text-anchor="middle" x="654" y="-175.5" font-family="Helvetica,sans-Serif" font-size="10.00">G4DarkBreM/G4APrime.h</text>
</a>
</g>
</g>
<!-- Node1&#45;&gt;Node19 -->
<g id="edge22" class="edge">
<title>Node1&#45;&gt;Node19</title>
<path fill="none" stroke="midnightblue" d="M330.68,-225.43C396.98,-215.91 511.06,-199.53 584.47,-188.99"/>
<polygon fill="midnightblue" stroke="midnightblue" points="585.15,-192.42 594.55,-187.54 584.16,-185.49 585.15,-192.42"/>
</g>
<!-- Node5 -->
<g id="node5" class="node">
<title>Node5</title>
<g id="a_node5"><a xlink:title=" ">
<polygon fill="none" stroke="#bfbfbf" points="0,-112.5 0,-131.5 130,-131.5 130,-112.5 0,-112.5"/>
<text text-anchor="middle" x="65" y="-119.5" font-family="Helvetica,sans-Serif" font-size="10.00">G4VDiscreteProcess.hh</text>
</a>
</g>
</g>
<!-- Node4&#45;&gt;Node5 -->
<g id="edge4" class="edge">
<title>Node4&#45;&gt;Node5</title>
<path fill="none" stroke="midnightblue" d="M244.25,-168.44C207.48,-159.12 148.55,-144.18 108.38,-134"/>
<polygon fill="midnightblue" stroke="midnightblue" points="109.15,-130.58 98.59,-131.52 107.43,-137.37 109.15,-130.58"/>
</g>
<!-- Node6 -->
<g id="node6" class="node">
<title>Node6</title>
<g id="a_node6"><a xlink:href="PrototypeModel_8h.html" target="_top" xlink:title="Class providing a prototype model for dark brem.">
<polygon fill="none" stroke="black" points="191,-56.5 191,-75.5 359,-75.5 359,-56.5 191,-56.5"/>
<text text-anchor="middle" x="275" y="-63.5" font-family="Helvetica,sans-Serif" font-size="10.00">G4DarkBreM/PrototypeModel.h</text>
</a>
</g>
</g>
<!-- Node4&#45;&gt;Node6 -->
<g id="edge5" class="edge">
<title>Node4&#45;&gt;Node6</title>
<path fill="none" stroke="midnightblue" d="M231.64,-168.47C210.93,-162.1 188.42,-151.05 176,-132 159.45,-106.6 194.8,-88.9 227.76,-78.45"/>
<polygon fill="midnightblue" stroke="midnightblue" points="228.82,-81.79 237.4,-75.57 226.82,-75.08 228.82,-81.79"/>
</g>
<!-- Node10 -->
<g id="node10" class="node">
<title>Node10</title>
<g id="a_node10"><a xlink:href="ElementXsecCache_8h_source.html" target="_top" xlink:title=" ">
<polygon fill="none" stroke="black" points="185.5,-112.5 185.5,-131.5 370.5,-131.5 370.5,-112.5 185.5,-112.5"/>
<text text-anchor="middle" x="278" y="-119.5" font-family="Helvetica,sans-Serif" font-size="10.00">G4DarkBreM/ElementXsecCache.h</text>
</a>
</g>
</g>
<!-- Node4&#45;&gt;Node10 -->
<g id="edge9" class="edge">
<title>Node4&#45;&gt;Node10</title>
<path fill="none" stroke="midnightblue" d="M278,-168.08C278,-161.01 278,-150.86 278,-141.99"/>
<polygon fill="midnightblue" stroke="midnightblue" points="281.5,-141.75 278,-131.75 274.5,-141.75 281.5,-141.75"/>
</g>
<!-- Node7 -->
<g id="node7" class="node">
<title>Node7</title>
<g id="a_node7"><a xlink:title=" ">
<polygon fill="none" stroke="#bfbfbf" points="150.5,-0.5 150.5,-19.5 221.5,-19.5 221.5,-0.5 150.5,-0.5"/>
<text text-anchor="middle" x="186" y="-7.5" font-family="Helvetica,sans-Serif" font-size="10.00">G4Track.hh</text>
</a>
</g>
</g>
<!-- Node6&#45;&gt;Node7 -->
<g id="edge6" class="edge">
<title>Node6&#45;&gt;Node7</title>
<path fill="none" stroke="midnightblue" d="M260.7,-56.32C246.82,-47.9 225.51,-34.97 209.2,-25.07"/>
<polygon fill="midnightblue" stroke="midnightblue" points="210.63,-21.85 200.26,-19.65 207,-27.83 210.63,-21.85"/>
</g>
<!-- Node8 -->
<g id="node8" class="node">
<title>Node8</title>
<g id="a_node8"><a xlink:title=" ">
<polygon fill="none" stroke="#bfbfbf" points="239.5,-0.5 239.5,-19.5 306.5,-19.5 306.5,-0.5 239.5,-0.5"/>
<text text-anchor="middle" x="273" y="-7.5" font-family="Helvetica,sans-Serif" font-size="10.00">G4Step.hh</text>
</a>
</g>
</g>
<!-- Node6&#45;&gt;Node8 -->
<g id="edge7" class="edge">
<title>Node6&#45;&gt;Node8</title>
<path fill="none" stroke="midnightblue" d="M274.67,-56.08C274.41,-49.01 274.03,-38.86 273.7,-29.99"/>
<polygon fill="midnightblue" stroke="midnightblue" points="277.19,-29.61 273.32,-19.75 270.2,-29.87 277.19,-29.61"/>
</g>
<!-- Node9 -->
<g id="node9" class="node">
<title>Node9</title>
<g id="a_node9"><a xlink:title=" ">
<polygon fill="none" stroke="#bfbfbf" points="325,-0.5 325,-19.5 443,-19.5 443,-0.5 325,-0.5"/>
<text text-anchor="middle" x="384" y="-7.5" font-family="Helvetica,sans-Serif" font-size="10.00">G4ParticleChange.hh</text>
</a>
</g>
</g>
<!-- Node6&#45;&gt;Node9 -->
<g id="edge8" class="edge">
<title>Node6&#45;&gt;Node9</title>
<path fill="none" stroke="midnightblue" d="M292.51,-56.32C310.07,-47.62 337.33,-34.12 357.53,-24.11"/>
<polygon fill="midnightblue" stroke="midnightblue" points="359.12,-27.23 366.53,-19.65 356.02,-20.96 359.12,-27.23"/>
</g>
<!-- Node10&#45;&gt;Node6 -->
<g id="edge11" class="edge">
<title>Node10&#45;&gt;Node6</title>
<path fill="none" stroke="midnightblue" d="M277.5,-112.08C277.11,-105.01 276.55,-94.86 276.05,-85.99"/>
<polygon fill="midnightblue" stroke="midnightblue" points="279.54,-85.54 275.49,-75.75 272.55,-85.93 279.54,-85.54"/>
</g>
<!-- Node11 -->
<g id="node11" class="node">
<title>Node11</title>
<g id="a_node11"><a xlink:title=" ">
<polygon fill="none" stroke="#bfbfbf" points="386,-56.5 386,-75.5 444,-75.5 444,-56.5 386,-56.5"/>
<text text-anchor="middle" x="415" y="-63.5" font-family="Helvetica,sans-Serif" font-size="10.00">memory</text>
</a>
</g>
</g>
<!-- Node10&#45;&gt;Node11 -->
<g id="edge10" class="edge">
<title>Node10&#45;&gt;Node11</title>
<path fill="none" stroke="midnightblue" d="M299.71,-112.44C322.35,-103.52 358.07,-89.44 383.75,-79.32"/>
<polygon fill="midnightblue" stroke="midnightblue" points="385.37,-82.44 393.39,-75.52 382.81,-75.93 385.37,-82.44"/>
</g>
<!-- Node12&#45;&gt;Node6 -->
<g id="edge21" class="edge">
<title>Node12&#45;&gt;Node6</title>
<path fill="none" stroke="midnightblue" d="M447.52,-112.44C412.28,-103.16 355.9,-88.31 317.24,-78.13"/>
<polygon fill="midnightblue" stroke="midnightblue" points="317.89,-74.68 307.33,-75.52 316.11,-81.45 317.89,-74.68"/>
</g>
<!-- Node12&#45;&gt;Node11 -->
<g id="edge13" class="edge">
<title>Node12&#45;&gt;Node11</title>
<path fill="none" stroke="midnightblue" d="M469.56,-112.32C459.85,-104.26 445.18,-92.08 433.5,-82.37"/>
<polygon fill="midnightblue" stroke="midnightblue" points="435.56,-79.53 425.63,-75.83 431.09,-84.92 435.56,-79.53"/>
</g>
<!-- Node13 -->
<g id="node13" class="node">
<title>Node13</title>
<g id="a_node13"><a xlink:title=" ">
<polygon fill="none" stroke="#bfbfbf" points="461,-0.5 461,-19.5 499,-19.5 499,-0.5 461,-0.5"/>
<text text-anchor="middle" x="480" y="-7.5" font-family="Helvetica,sans-Serif" font-size="10.00">map</text>
</a>
</g>
</g>
<!-- Node12&#45;&gt;Node13 -->
<g id="edge14" class="edge">
<title>Node12&#45;&gt;Node13</title>
<path fill="none" stroke="midnightblue" d="M480,-112.37C480,-94.62 480,-53.67 480,-29.6"/>
<polygon fill="midnightblue" stroke="midnightblue" points="483.5,-29.59 480,-19.59 476.5,-29.59 483.5,-29.59"/>
</g>
<!-- Node14 -->
<g id="node14" class="node">
<title>Node14</title>
<g id="a_node14"><a xlink:href="ParseLibrary_8h.html" target="_top" xlink:title=" ">
<polygon fill="none" stroke="black" points="517.5,-56.5 517.5,-75.5 666.5,-75.5 666.5,-56.5 517.5,-56.5"/>
<text text-anchor="middle" x="592" y="-63.5" font-family="Helvetica,sans-Serif" font-size="10.00">G4DarkBreM/ParseLibrary.h</text>
</a>
</g>
</g>
<!-- Node12&#45;&gt;Node14 -->
<g id="edge15" class="edge">
<title>Node12&#45;&gt;Node14</title>
<path fill="none" stroke="midnightblue" d="M497.99,-112.32C516.04,-103.62 544.05,-90.12 564.8,-80.11"/>
<polygon fill="midnightblue" stroke="midnightblue" points="566.56,-83.15 574.05,-75.65 563.52,-76.84 566.56,-83.15"/>
</g>
<!-- Node14&#45;&gt;Node13 -->
<g id="edge17" class="edge">
<title>Node14&#45;&gt;Node13</title>
<path fill="none" stroke="midnightblue" d="M574.01,-56.32C555.96,-47.62 527.95,-34.12 507.2,-24.11"/>
<polygon fill="midnightblue" stroke="midnightblue" points="508.48,-20.84 497.95,-19.65 505.44,-27.15 508.48,-20.84"/>
</g>
<!-- Node15 -->
<g id="node15" class="node">
<title>Node15</title>
<g id="a_node15"><a xlink:title=" ">
<polygon fill="none" stroke="#bfbfbf" points="517,-0.5 517,-19.5 561,-19.5 561,-0.5 517,-0.5"/>
<text text-anchor="middle" x="539" y="-7.5" font-family="Helvetica,sans-Serif" font-size="10.00">string</text>
</a>
</g>
</g>
<!-- Node14&#45;&gt;Node15 -->
<g id="edge16" class="edge">
<title>Node14&#45;&gt;Node15</title>
<path fill="none" stroke="midnightblue" d="M583.25,-56.08C575.53,-48.22 564.1,-36.57 554.78,-27.08"/>
<polygon fill="midnightblue" stroke="midnightblue" points="557.09,-24.44 547.59,-19.75 552.1,-29.34 557.09,-24.44"/>
</g>
<!-- Node16 -->
<g id="node16" class="node">
<title>Node16</title>
<g id="a_node16"><a xlink:title=" ">
<polygon fill="none" stroke="#bfbfbf" points="579.5,-0.5 579.5,-19.5 626.5,-19.5 626.5,-0.5 579.5,-0.5"/>
<text text-anchor="middle" x="603" y="-7.5" font-family="Helvetica,sans-Serif" font-size="10.00">vector</text>
</a>
</g>
</g>
<!-- Node14&#45;&gt;Node16 -->
<g id="edge18" class="edge">
<title>Node14&#45;&gt;Node16</title>
<path fill="none" stroke="midnightblue" d="M593.82,-56.08C595.27,-48.93 597.37,-38.64 599.19,-29.69"/>
<polygon fill="midnightblue" stroke="midnightblue" points="602.65,-30.25 601.22,-19.75 595.79,-28.85 602.65,-30.25"/>
</g>
<!-- Node17 -->
<g id="node17" class="node">
<title>Node17</title>
<g id="a_node17"><a xlink:title=" ">
<polygon fill="none" stroke="#bfbfbf" points="644.5,-0.5 644.5,-19.5 701.5,-19.5 701.5,-0.5 644.5,-0.5"/>
<text text-anchor="middle" x="673" y="-7.5" font-family="Helvetica,sans-Serif" font-size="10.00">ostream</text>
</a>
</g>
</g>
<!-- Node14&#45;&gt;Node17 -->
<g id="edge19" class="edge">
<title>Node14&#45;&gt;Node17</title>
<path fill="none" stroke="midnightblue" d="M605.01,-56.32C617.53,-47.98 636.68,-35.21 651.47,-25.35"/>
<polygon fill="midnightblue" stroke="midnightblue" points="653.64,-28.11 660.02,-19.65 649.76,-22.29 653.64,-28.11"/>
</g>
<!-- Node18 -->
<g id="node18" class="node">
<title>Node18</title>
<g id="a_node18"><a xlink:title=" ">
<polygon fill="none" stroke="#bfbfbf" points="720,-0.5 720,-19.5 880,-19.5 880,-0.5 720,-0.5"/>
<text text-anchor="middle" x="800" y="-7.5" font-family="Helvetica,sans-Serif" font-size="10.00">CLHEP/Vector/LorentzVector.h</text>
</a>
</g>
</g>
<!-- Node14&#45;&gt;Node18 -->
<g id="edge20" class="edge">
<title>Node14&#45;&gt;Node18</title>
<path fill="none" stroke="midnightblue" d="M624.96,-56.44C660.79,-47.14 718.16,-32.25 757.39,-22.06"/>
<polygon fill="midnightblue" stroke="midnightblue" points="758.4,-25.42 767.2,-19.52 756.64,-18.64 758.4,-25.42"/>
</g>
<!-- Node20 -->
<g id="node20" class="node">
<title>Node20</title>
<g id="a_node20"><a xlink:title=" ">
<polygon fill="none" stroke="#bfbfbf" points="590,-112.5 590,-131.5 718,-131.5 718,-112.5 590,-112.5"/>
<text text-anchor="middle" x="654" y="-119.5" font-family="Helvetica,sans-Serif" font-size="10.00">G4ParticleDefinition.hh</text>
</a>
</g>
</g>
<!-- Node19&#45;&gt;Node20 -->
<g id="edge23" class="edge">
<title>Node19&#45;&gt;Node20</title>
<path fill="none" stroke="midnightblue" d="M654,-168.08C654,-161.01 654,-150.86 654,-141.99"/>
<polygon fill="midnightblue" stroke="midnightblue" points="657.5,-141.75 654,-131.75 650.5,-141.75 657.5,-141.75"/>
</g>
<!-- Node21 -->
<g id="node21" class="node">
<title>Node21</title>
<g id="a_node21"><a xlink:title=" ">
<polygon fill="none" stroke="#bfbfbf" points="736.5,-112.5 736.5,-131.5 855.5,-131.5 855.5,-112.5 736.5,-112.5"/>
<text text-anchor="middle" x="796" y="-119.5" font-family="Helvetica,sans-Serif" font-size="10.00">G4SystemOfUnits.hh</text>
</a>
</g>
</g>
<!-- Node19&#45;&gt;Node21 -->
<g id="edge24" class="edge">
<title>Node19&#45;&gt;Node21</title>
<path fill="none" stroke="midnightblue" d="M676.5,-168.44C700.08,-159.48 737.32,-145.31 763.96,-135.18"/>
<polygon fill="midnightblue" stroke="midnightblue" points="765.5,-138.34 773.6,-131.52 763.01,-131.8 765.5,-138.34"/>
</g>
</g>
</svg>
