<?xml version="1.0" encoding="UTF-8" standalone="no"?>
<!DOCTYPE svg PUBLIC "-//W3C//DTD SVG 1.1//EN"
 "http://www.w3.org/Graphics/SVG/1.1/DTD/svg11.dtd">
<!-- Generated by graphviz version 2.43.0 (0)
 -->
<!-- Title: app/xsec_calc.cxx Pages: 1 -->
<svg width="939pt" height="252pt"
 viewBox="0.00 0.00 938.50 252.00" xmlns="http://www.w3.org/2000/svg" xmlns:xlink="http://www.w3.org/1999/xlink">
<g id="graph0" class="graph" transform="scale(1 1) rotate(0) translate(4 248)">
<title>app/xsec_calc.cxx</title>
<!-- Node1 -->
<g id="node1" class="node">
<title>Node1</title>
<g id="a_node1"><a xlink:title=" ">
<polygon fill="#bfbfbf" stroke="black" points="201,-224.5 201,-243.5 306,-243.5 306,-224.5 201,-224.5"/>
<text text-anchor="middle" x="253.5" y="-231.5" font-family="Helvetica,sans-Serif" font-size="10.00">app/xsec_calc.cxx</text>
</a>
</g>
</g>
<!-- Node2 -->
<g id="node2" class="node">
<title>Node2</title>
<g id="a_node2"><a xlink:title=" ">
<polygon fill="none" stroke="#bfbfbf" points="0,-168.5 0,-187.5 55,-187.5 55,-168.5 0,-168.5"/>
<text text-anchor="middle" x="27.5" y="-175.5" font-family="Helvetica,sans-Serif" font-size="10.00">fstream</text>
</a>
</g>
</g>
<!-- Node1&#45;&gt;Node2 -->
<g id="edge1" class="edge">
<title>Node1&#45;&gt;Node2</title>
<path fill="none" stroke="midnightblue" d="M217.25,-224.43C181.21,-215.89 124.05,-202.31 65.22,-188.16"/>
<polygon fill="midnightblue" stroke="midnightblue" points="65.92,-184.73 55.38,-185.8 64.28,-191.54 65.92,-184.73"/>
</g>
<!-- Node3 -->
<g id="node3" class="node">
<title>Node3</title>
<g id="a_node3"><a xlink:title=" ">
<polygon fill="none" stroke="#bfbfbf" points="73.5,-168.5 73.5,-187.5 133.5,-187.5 133.5,-168.5 73.5,-168.5"/>
<text text-anchor="middle" x="103.5" y="-175.5" font-family="Helvetica,sans-Serif" font-size="10.00">iostream</text>
</a>
</g>
</g>
<!-- Node1&#45;&gt;Node3 -->
<g id="edge2" class="edge">
<title>Node1&#45;&gt;Node3</title>
<path fill="none" stroke="midnightblue" d="M229.73,-224.44C204.61,-215.4 164.79,-201.06 136.6,-190.92"/>
<polygon fill="midnightblue" stroke="midnightblue" points="137.75,-187.61 127.16,-187.52 135.38,-194.2 137.75,-187.61"/>
</g>
<!-- Node4 -->
<g id="node4" class="node">
<title>Node4</title>
<g id="a_node4"><a xlink:title=" ">
<polygon fill="none" stroke="#bfbfbf" points="151.5,-168.5 151.5,-187.5 207.5,-187.5 207.5,-168.5 151.5,-168.5"/>
<text text-anchor="middle" x="179.5" y="-175.5" font-family="Helvetica,sans-Serif" font-size="10.00">unistd.h</text>
</a>
</g>
</g>
<!-- Node1&#45;&gt;Node4 -->
<g id="edge3" class="edge">
<title>Node1&#45;&gt;Node4</title>
<path fill="none" stroke="midnightblue" d="M241.61,-224.32C230.35,-216.11 213.21,-203.6 199.79,-193.81"/>
<polygon fill="midnightblue" stroke="midnightblue" points="201.75,-190.9 191.61,-187.83 197.62,-196.56 201.75,-190.9"/>
</g>
<!-- Node5 -->
<g id="node5" class="node">
<title>Node5</title>
<g id="a_node5"><a xlink:href="G4DarkBremsstrahlung_8h.html" target="_top" xlink:title="Class providing the Dark Bremsstrahlung process class.">
<polygon fill="none" stroke="black" points="226,-168.5 226,-187.5 431,-187.5 431,-168.5 226,-168.5"/>
<text text-anchor="middle" x="328.5" y="-175.5" font-family="Helvetica,sans-Serif" font-size="10.00">G4DarkBreM/G4DarkBremsstrahlung.h</text>
</a>
</g>
</g>
<!-- Node1&#45;&gt;Node5 -->
<g id="edge4" class="edge">
<title>Node1&#45;&gt;Node5</title>
<path fill="none" stroke="midnightblue" d="M265.55,-224.32C276.96,-216.11 294.33,-203.6 307.93,-193.81"/>
<polygon fill="midnightblue" stroke="midnightblue" points="310.16,-196.52 316.23,-187.83 306.07,-190.84 310.16,-196.52"/>
</g>
<!-- Node13 -->
<g id="node13" class="node">
<title>Node13</title>
<g id="a_node13"><a xlink:href="G4DarkBreMModel_8h_source.html" target="_top" xlink:title=" ">
<polygon fill="none" stroke="black" points="439,-112.5 439,-131.5 622,-131.5 622,-112.5 439,-112.5"/>
<text text-anchor="middle" x="530.5" y="-119.5" font-family="Helvetica,sans-Serif" font-size="10.00">G4DarkBreM/G4DarkBreMModel.h</text>
</a>
</g>
</g>
<!-- Node1&#45;&gt;Node13 -->
<g id="edge13" class="edge">
<title>Node1&#45;&gt;Node13</title>
<path fill="none" stroke="midnightblue" d="M306.18,-225.78C344.43,-219.23 396.75,-207.55 439.5,-188 467.72,-175.1 496.18,-152.97 513.57,-138.16"/>
<polygon fill="midnightblue" stroke="midnightblue" points="515.92,-140.76 521.18,-131.55 511.33,-135.47 515.92,-140.76"/>
</g>
<!-- Node20 -->
<g id="node20" class="node">
<title>Node20</title>
<g id="a_node20"><a xlink:href="G4APrime_8h.html" target="_top" xlink:title="Class creating the A&#39; particle in Geant.">
<polygon fill="none" stroke="black" points="634.5,-168.5 634.5,-187.5 774.5,-187.5 774.5,-168.5 634.5,-168.5"/>
<text text-anchor="middle" x="704.5" y="-175.5" font-family="Helvetica,sans-Serif" font-size="10.00">G4DarkBreM/G4APrime.h</text>
</a>
</g>
</g>
<!-- Node1&#45;&gt;Node20 -->
<g id="edge23" class="edge">
<title>Node1&#45;&gt;Node20</title>
<path fill="none" stroke="midnightblue" d="M306.12,-226.7C384.39,-217.33 532.13,-199.64 624.03,-188.63"/>
<polygon fill="midnightblue" stroke="midnightblue" points="624.61,-192.09 634.13,-187.43 623.78,-185.14 624.61,-192.09"/>
</g>
<!-- Node6 -->
<g id="node6" class="node">
<title>Node6</title>
<g id="a_node6"><a xlink:title=" ">
<polygon fill="none" stroke="#bfbfbf" points="50.5,-112.5 50.5,-131.5 180.5,-131.5 180.5,-112.5 50.5,-112.5"/>
<text text-anchor="middle" x="115.5" y="-119.5" font-family="Helvetica,sans-Serif" font-size="10.00">G4VDiscreteProcess.hh</text>
</a>
</g>
</g>
<!-- Node5&#45;&gt;Node6 -->
<g id="edge5" class="edge">
<title>Node5&#45;&gt;Node6</title>
<path fill="none" stroke="midnightblue" d="M294.75,-168.44C257.98,-159.12 199.05,-144.18 158.88,-134"/>
<polygon fill="midnightblue" stroke="midnightblue" points="159.65,-130.58 149.09,-131.52 157.93,-137.37 159.65,-130.58"/>
</g>
<!-- Node7 -->
<g id="node7" class="node">
<title>Node7</title>
<g id="a_node7"><a xlink:href="PrototypeModel_8h.html" target="_top" xlink:title="Class providing a prototype model for dark brem.">
<polygon fill="none" stroke="black" points="241.5,-56.5 241.5,-75.5 409.5,-75.5 409.5,-56.5 241.5,-56.5"/>
<text text-anchor="middle" x="325.5" y="-63.5" font-family="Helvetica,sans-Serif" font-size="10.00">G4DarkBreM/PrototypeModel.h</text>
</a>
</g>
</g>
<!-- Node5&#45;&gt;Node7 -->
<g id="edge6" class="edge">
<title>Node5&#45;&gt;Node7</title>
<path fill="none" stroke="midnightblue" d="M282.14,-168.47C261.43,-162.1 238.92,-151.05 226.5,-132 209.95,-106.6 245.3,-88.9 278.26,-78.45"/>
<polygon fill="midnightblue" stroke="midnightblue" points="279.32,-81.79 287.9,-75.57 277.32,-75.08 279.32,-81.79"/>
</g>
<!-- Node11 -->
<g id="node11" class="node">
<title>Node11</title>
<g id="a_node11"><a xlink:href="ElementXsecCache_8h_source.html" target="_top" xlink:title=" ">
<polygon fill="none" stroke="black" points="236,-112.5 236,-131.5 421,-131.5 421,-112.5 236,-112.5"/>
<text text-anchor="middle" x="328.5" y="-119.5" font-family="Helvetica,sans-Serif" font-size="10.00">G4DarkBreM/ElementXsecCache.h</text>
</a>
</g>
</g>
<!-- Node5&#45;&gt;Node11 -->
<g id="edge10" class="edge">
<title>Node5&#45;&gt;Node11</title>
<path fill="none" stroke="midnightblue" d="M328.5,-168.08C328.5,-161.01 328.5,-150.86 328.5,-141.99"/>
<polygon fill="midnightblue" stroke="midnightblue" points="332,-141.75 328.5,-131.75 325,-141.75 332,-141.75"/>
</g>
<!-- Node8 -->
<g id="node8" class="node">
<title>Node8</title>
<g id="a_node8"><a xlink:title=" ">
<polygon fill="none" stroke="#bfbfbf" points="201,-0.5 201,-19.5 272,-19.5 272,-0.5 201,-0.5"/>
<text text-anchor="middle" x="236.5" y="-7.5" font-family="Helvetica,sans-Serif" font-size="10.00">G4Track.hh</text>
</a>
</g>
</g>
<!-- Node7&#45;&gt;Node8 -->
<g id="edge7" class="edge">
<title>Node7&#45;&gt;Node8</title>
<path fill="none" stroke="midnightblue" d="M311.2,-56.32C297.32,-47.9 276.01,-34.97 259.7,-25.07"/>
<polygon fill="midnightblue" stroke="midnightblue" points="261.13,-21.85 250.76,-19.65 257.5,-27.83 261.13,-21.85"/>
</g>
<!-- Node9 -->
<g id="node9" class="node">
<title>Node9</title>
<g id="a_node9"><a xlink:title=" ">
<polygon fill="none" stroke="#bfbfbf" points="290,-0.5 290,-19.5 357,-19.5 357,-0.5 290,-0.5"/>
<text text-anchor="middle" x="323.5" y="-7.5" font-family="Helvetica,sans-Serif" font-size="10.00">G4Step.hh</text>
</a>
</g>
</g>
<!-- Node7&#45;&gt;Node9 -->
<g id="edge8" class="edge">
<title>Node7&#45;&gt;Node9</title>
<path fill="none" stroke="midnightblue" d="M325.17,-56.08C324.91,-49.01 324.53,-38.86 324.2,-29.99"/>
<polygon fill="midnightblue" stroke="midnightblue" points="327.69,-29.61 323.82,-19.75 320.7,-29.87 327.69,-29.61"/>
</g>
<!-- Node10 -->
<g id="node10" class="node">
<title>Node10</title>
<g id="a_node10"><a xlink:title=" ">
<polygon fill="none" stroke="#bfbfbf" points="375.5,-0.5 375.5,-19.5 493.5,-19.5 493.5,-0.5 375.5,-0.5"/>
<text text-anchor="middle" x="434.5" y="-7.5" font-family="Helvetica,sans-Serif" font-size="10.00">G4ParticleChange.hh</text>
</a>
</g>
</g>
<!-- Node7&#45;&gt;Node10 -->
<g id="edge9" class="edge">
<title>Node7&#45;&gt;Node10</title>
<path fill="none" stroke="midnightblue" d="M343.01,-56.32C360.57,-47.62 387.83,-34.12 408.03,-24.11"/>
<polygon fill="midnightblue" stroke="midnightblue" points="409.62,-27.23 417.03,-19.65 406.52,-20.96 409.62,-27.23"/>
</g>
<!-- Node11&#45;&gt;Node7 -->
<g id="edge12" class="edge">
<title>Node11&#45;&gt;Node7</title>
<path fill="none" stroke="midnightblue" d="M328,-112.08C327.61,-105.01 327.05,-94.86 326.55,-85.99"/>
<polygon fill="midnightblue" stroke="midnightblue" points="330.04,-85.54 325.99,-75.75 323.05,-85.93 330.04,-85.54"/>
</g>
<!-- Node12 -->
<g id="node12" class="node">
<title>Node12</title>
<g id="a_node12"><a xlink:title=" ">
<polygon fill="none" stroke="#bfbfbf" points="436.5,-56.5 436.5,-75.5 494.5,-75.5 494.5,-56.5 436.5,-56.5"/>
<text text-anchor="middle" x="465.5" y="-63.5" font-family="Helvetica,sans-Serif" font-size="10.00">memory</text>
</a>
</g>
</g>
<!-- Node11&#45;&gt;Node12 -->
<g id="edge11" class="edge">
<title>Node11&#45;&gt;Node12</title>
<path fill="none" stroke="midnightblue" d="M350.21,-112.44C372.85,-103.52 408.57,-89.44 434.25,-79.32"/>
<polygon fill="midnightblue" stroke="midnightblue" points="435.87,-82.44 443.89,-75.52 433.31,-75.93 435.87,-82.44"/>
</g>
<!-- Node13&#45;&gt;Node7 -->
<g id="edge22" class="edge">
<title>Node13&#45;&gt;Node7</title>
<path fill="none" stroke="midnightblue" d="M498.02,-112.44C462.78,-103.16 406.4,-88.31 367.74,-78.13"/>
<polygon fill="midnightblue" stroke="midnightblue" points="368.39,-74.68 357.83,-75.52 366.61,-81.45 368.39,-74.68"/>
</g>
<!-- Node13&#45;&gt;Node12 -->
<g id="edge14" class="edge">
<title>Node13&#45;&gt;Node12</title>
<path fill="none" stroke="midnightblue" d="M520.06,-112.32C510.35,-104.26 495.68,-92.08 484,-82.37"/>
<polygon fill="midnightblue" stroke="midnightblue" points="486.06,-79.53 476.13,-75.83 481.59,-84.92 486.06,-79.53"/>
</g>
<!-- Node14 -->
<g id="node14" class="node">
<title>Node14</title>
<g id="a_node14"><a xlink:title=" ">
<polygon fill="none" stroke="#bfbfbf" points="511.5,-0.5 511.5,-19.5 549.5,-19.5 549.5,-0.5 511.5,-0.5"/>
<text text-anchor="middle" x="530.5" y="-7.5" font-family="Helvetica,sans-Serif" font-size="10.00">map</text>
</a>
</g>
</g>
<!-- Node13&#45;&gt;Node14 -->
<g id="edge15" class="edge">
<title>Node13&#45;&gt;Node14</title>
<path fill="none" stroke="midnightblue" d="M530.5,-112.37C530.5,-94.62 530.5,-53.67 530.5,-29.6"/>
<polygon fill="midnightblue" stroke="midnightblue" points="534,-29.59 530.5,-19.59 527,-29.59 534,-29.59"/>
</g>
<!-- Node15 -->
<g id="node15" class="node">
<title>Node15</title>
<g id="a_node15"><a xlink:href="ParseLibrary_8h.html" target="_top" xlink:title=" ">
<polygon fill="none" stroke="black" points="568,-56.5 568,-75.5 717,-75.5 717,-56.5 568,-56.5"/>
<text text-anchor="middle" x="642.5" y="-63.5" font-family="Helvetica,sans-Serif" font-size="10.00">G4DarkBreM/ParseLibrary.h</text>
</a>
</g>
</g>
<!-- Node13&#45;&gt;Node15 -->
<g id="edge16" class="edge">
<title>Node13&#45;&gt;Node15</title>
<path fill="none" stroke="midnightblue" d="M548.49,-112.32C566.54,-103.62 594.55,-90.12 615.3,-80.11"/>
<polygon fill="midnightblue" stroke="midnightblue" points="617.06,-83.15 624.55,-75.65 614.02,-76.84 617.06,-83.15"/>
</g>
<!-- Node15&#45;&gt;Node14 -->
<g id="edge18" class="edge">
<title>Node15&#45;&gt;Node14</title>
<path fill="none" stroke="midnightblue" d="M624.51,-56.32C606.46,-47.62 578.45,-34.12 557.7,-24.11"/>
<polygon fill="midnightblue" stroke="midnightblue" points="558.98,-20.84 548.45,-19.65 555.94,-27.15 558.98,-20.84"/>
</g>
<!-- Node16 -->
<g id="node16" class="node">
<title>Node16</title>
<g id="a_node16"><a xlink:title=" ">
<polygon fill="none" stroke="#bfbfbf" points="567.5,-0.5 567.5,-19.5 611.5,-19.5 611.5,-0.5 567.5,-0.5"/>
<text text-anchor="middle" x="589.5" y="-7.5" font-family="Helvetica,sans-Serif" font-size="10.00">string</text>
</a>
</g>
</g>
<!-- Node15&#45;&gt;Node16 -->
<g id="edge17" class="edge">
<title>Node15&#45;&gt;Node16</title>
<path fill="none" stroke="midnightblue" d="M633.75,-56.08C626.03,-48.22 614.6,-36.57 605.28,-27.08"/>
<polygon fill="midnightblue" stroke="midnightblue" points="607.59,-24.44 598.09,-19.75 602.6,-29.34 607.59,-24.44"/>
</g>
<!-- Node17 -->
<g id="node17" class="node">
<title>Node17</title>
<g id="a_node17"><a xlink:title=" ">
<polygon fill="none" stroke="#bfbfbf" points="630,-0.5 630,-19.5 677,-19.5 677,-0.5 630,-0.5"/>
<text text-anchor="middle" x="653.5" y="-7.5" font-family="Helvetica,sans-Serif" font-size="10.00">vector</text>
</a>
</g>
</g>
<!-- Node15&#45;&gt;Node17 -->
<g id="edge19" class="edge">
<title>Node15&#45;&gt;Node17</title>
<path fill="none" stroke="midnightblue" d="M644.32,-56.08C645.77,-48.93 647.87,-38.64 649.69,-29.69"/>
<polygon fill="midnightblue" stroke="midnightblue" points="653.15,-30.25 651.72,-19.75 646.29,-28.85 653.15,-30.25"/>
</g>
<!-- Node18 -->
<g id="node18" class="node">
<title>Node18</title>
<g id="a_node18"><a xlink:title=" ">
<polygon fill="none" stroke="#bfbfbf" points="695,-0.5 695,-19.5 752,-19.5 752,-0.5 695,-0.5"/>
<text text-anchor="middle" x="723.5" y="-7.5" font-family="Helvetica,sans-Serif" font-size="10.00">ostream</text>
</a>
</g>
</g>
<!-- Node15&#45;&gt;Node18 -->
<g id="edge20" class="edge">
<title>Node15&#45;&gt;Node18</title>
<path fill="none" stroke="midnightblue" d="M655.51,-56.32C668.03,-47.98 687.18,-35.21 701.97,-25.35"/>
<polygon fill="midnightblue" stroke="midnightblue" points="704.14,-28.11 710.52,-19.65 700.26,-22.29 704.14,-28.11"/>
</g>
<!-- Node19 -->
<g id="node19" class="node">
<title>Node19</title>
<g id="a_node19"><a xlink:title=" ">
<polygon fill="none" stroke="#bfbfbf" points="770.5,-0.5 770.5,-19.5 930.5,-19.5 930.5,-0.5 770.5,-0.5"/>
<text text-anchor="middle" x="850.5" y="-7.5" font-family="Helvetica,sans-Serif" font-size="10.00">CLHEP/Vector/LorentzVector.h</text>
</a>
</g>
</g>
<!-- Node15&#45;&gt;Node19 -->
<g id="edge21" class="edge">
<title>Node15&#45;&gt;Node19</title>
<path fill="none" stroke="midnightblue" d="M675.46,-56.44C711.29,-47.14 768.66,-32.25 807.89,-22.06"/>
<polygon fill="midnightblue" stroke="midnightblue" points="808.9,-25.42 817.7,-19.52 807.14,-18.64 808.9,-25.42"/>
</g>
<!-- Node21 -->
<g id="node21" class="node">
<title>Node21</title>
<g id="a_node21"><a xlink:title=" ">
<polygon fill="none" stroke="#bfbfbf" points="640.5,-112.5 640.5,-131.5 768.5,-131.5 768.5,-112.5 640.5,-112.5"/>
<text text-anchor="middle" x="704.5" y="-119.5" font-family="Helvetica,sans-Serif" font-size="10.00">G4ParticleDefinition.hh</text>
</a>
</g>
</g>
<!-- Node20&#45;&gt;Node21 -->
<g id="edge24" class="edge">
<title>Node20&#45;&gt;Node21</title>
<path fill="none" stroke="midnightblue" d="M704.5,-168.08C704.5,-161.01 704.5,-150.86 704.5,-141.99"/>
<polygon fill="midnightblue" stroke="midnightblue" points="708,-141.75 704.5,-131.75 701,-141.75 708,-141.75"/>
</g>
<!-- Node22 -->
<g id="node22" class="node">
<title>Node22</title>
<g id="a_node22"><a xlink:title=" ">
<polygon fill="none" stroke="#bfbfbf" points="787,-112.5 787,-131.5 906,-131.5 906,-112.5 787,-112.5"/>
<text text-anchor="middle" x="846.5" y="-119.5" font-family="Helvetica,sans-Serif" font-size="10.00">G4SystemOfUnits.hh</text>
</a>
</g>
</g>
<!-- Node20&#45;&gt;Node22 -->
<g id="edge25" class="edge">
<title>Node20&#45;&gt;Node22</title>
<path fill="none" stroke="midnightblue" d="M727,-168.44C750.58,-159.48 787.82,-145.31 814.46,-135.18"/>
<polygon fill="midnightblue" stroke="midnightblue" points="816,-138.34 824.1,-131.52 813.51,-131.8 816,-138.34"/>
</g>
</g>
</svg>
